Mako-Regular.ufo
<glyph name="exclam" format="1">
  <advance width="523"/>
  <unicode hex="0021"/>
  <outline>
    <contour>
      <point x="348" y="-14" type="line"/>
      <point x="173" y="-14" type="line"/>
      <point x="173" y="165" type="line"/>
      <point x="348" y="165" type="line"/>
    </contour>
    <contour>
      <point x="217" y="355" type="line"/>
      <point x="213.65" y="402.57" name="inserted"/>
      <point x="209.36" y="463.62"/>
      <point x="204" y="540" type="curve"/>
      <point x="194.62" y="669.98"/>
      <point x="181.76" y="869.88"/>
      <point x="163" y="1162" type="curve"/>
      <point x="163.0" y="1171.38"/>
      <point x="162.34" y="1190.31"/>
      <point x="161.0" y="1228.5" type="curve" smooth="yes" name="inserted"/>
      <point x="159.66" y="1266.69"/>
      <point x="159.34" y="1322.26"/>
      <point x="158" y="1404" type="curve"/>
      <point x="362" y="1404" type="line"/>
      <point x="360.66" y="1322.26"/>
      <point x="359.17" y="1266.69"/>
      <point x="358.5" y="1228.5" type="curve" smooth="yes" name="inserted"/>
      <point x="357.83" y="1190.31"/>
      <point x="357.0" y="1171.38"/>
      <point x="357" y="1162" type="curve"/>
      <point x="338.24" y="869.88"/>
      <point x="325.38" y="669.98"/>
      <point x="316" y="540" type="curve"/>
      <point x="310.64" y="463.62" name="inserted"/>
      <point x="306.35" y="402.57"/>
      <point x="303" y="355" type="curve"/>
    </contour>
  </outline>
</glyph>
<glyph name="quotedbl" format="1">
  <advance width="606"/>
  <unicode hex="0022"/>
  <outline>
    <contour>
      <point x="273" y="1436" type="line"/>
      <point x="273.0" y="1336.84"/>
      <point x="261.06" y="1232.42"/>
      <point x="249" y="1148" type="curve"/>
      <point x="241.63" y="1099.09" name="inserted"/>
      <point x="233.71" y="1052.56"/>
      <point x="225" y="1007" type="curve"/>
      <point x="152" y="1007" type="line"/>
      <point x="145.97" y="1043.18" name="inserted"/>
      <point x="141.02" y="1083.11"/>
      <point x="137" y="1128" type="curve"/>
      <point x="128.96" y="1204.38"/>
      <point x="122.68" y="1310.04"/>
      <point x="120" y="1436" type="curve"/>
    </contour>
    <contour>
      <point x="497" y="1436" type="line"/>
      <point x="497.0" y="1336.84"/>
      <point x="482.74" y="1232.42"/>
      <point x="468" y="1148" type="curve"/>
      <point x="459.29" y="1099.09" name="inserted"/>
      <point x="449.72" y="1052.56"/>
      <point x="439" y="1007" type="curve"/>
      <point x="369" y="1007" type="line"/>
      <point x="362.3" y="1033.8"/>
      <point x="357.02" y="1096.11"/>
      <point x="353.0" y="1174.5" type="curve" smooth="yes" name="inserted"/>
      <point x="348.98" y="1252.89"/>
      <point x="347.0" y="1344.88"/>
      <point x="347" y="1436" type="curve"/>
    </contour>
  </outline>
</glyph>
<glyph name="dollar" format="1">
  <advance width="1014"/>
  <unicode hex="0024"/>
  <outline>
    <contour>
      <point x="473" y="32" type="line"/>
      <point x="463.62" y="32.0"/>
      <point x="444.04" y="33.0"/>
      <point x="436" y="33" type="curve"/>
      <point x="343.54" y="37.02"/>
      <point x="268.26" y="54.58"/>
      <point x="216" y="72" type="curve"/>
      <point x="185.18" y="82.05" name="inserted"/>
      <point x="158.45" y="92.61"/>
      <point x="135" y="104" type="curve"/>
      <point x="110" y="254" type="line"/>
      <point x="139.48" y="240.6" name="inserted"/>
      <point x="171.49" y="228.39"/>
      <point x="207" y="217" type="curve"/>
      <point x="267.3" y="198.24"/>
      <point x="346.88" y="179.02"/>
      <point x="438" y="175" type="curve"/>
      <point x="444.7" y="175.0"/>
      <point x="461.96" y="174.0"/>
      <point x="470" y="174" type="curve"/>
      <point x="458" y="651" type="line"/>
      <point x="440.58" y="656.36"/>
      <point x="425.08" y="661.64"/>
      <point x="409" y="667" type="curve"/>
      <point x="301.8" y="703.18"/>
      <point x="224.43" y="742.06"/>
      <point x="171.5" y="797.0" type="curve" smooth="yes" name="inserted"/>
      <point x="118.57" y="851.94"/>
      <point x="93.0" y="922.84"/>
      <point x="93" y="1022" type="curve"/>
      <point x="93.0" y="1121.16"/>
      <point x="128.36" y="1197.72"/>
      <point x="190.0" y="1254.0" type="curve" smooth="yes" name="inserted"/>
      <point x="251.64" y="1310.28"/>
      <point x="338.82" y="1342.28"/>
      <point x="442" y="1353" type="curve"/>
      <point x="437" y="1593" type="line"/>
      <point x="544" y="1593" type="line"/>
      <point x="549" y="1356" type="line"/>
      <point x="634.76" y="1353.32"/>
      <point x="709.06" y="1340.06"/>
      <point x="764" y="1328" type="curve"/>
      <point x="796.16" y="1320.63" name="inserted"/>
      <point x="824.87" y="1313.04"/>
      <point x="851" y="1305" type="curve"/>
      <point x="871" y="1154" type="line"/>
      <point x="842.19" y="1164.05" name="inserted"/>
      <point x="811.17" y="1172.96"/>
      <point x="777" y="1181" type="curve"/>
      <point x="718.04" y="1195.74"/>
      <point x="640.44" y="1208.98"/>
      <point x="552" y="1213" type="curve"/>
      <point x="563" y="787" type="line"/>
      <point x="683.6" y="748.14"/>
      <point x="775.36" y="716.11"/>
      <point x="837.0" y="660.5" type="curve" smooth="yes" name="inserted"/>
      <point x="898.64" y="604.89"/>
      <point x="930.0" y="527.98"/>
      <point x="930" y="398" type="curve"/>
      <point x="930.0" y="297.5"/>
      <point x="905.28" y="214.98"/>
      <point x="849.0" y="152.0" type="curve" smooth="yes" name="inserted"/>
      <point x="792.72" y="89.02"/>
      <point x="705.96" y="48.4"/>
      <point x="580" y="35" type="curve"/>
      <point x="586" y="-201" type="line"/>
      <point x="478" y="-201" type="line"/>
    </contour>
    <contour>
      <point x="754" y="381" type="curve"/>
      <point x="754.0" y="445.32"/>
      <point x="743.31" y="489.82"/>
      <point x="714.5" y="526.0" type="curve" smooth="yes" name="inserted"/>
      <point x="685.69" y="562.18"/>
      <point x="638.36" y="587.54"/>
      <point x="566" y="613" type="curve"/>
      <point x="577" y="184" type="line"/>
      <point x="631.94" y="193.38"/>
      <point x="676.18" y="211.84"/>
      <point x="707.0" y="244.0" type="curve" smooth="yes" name="inserted"/>
      <point x="737.82" y="276.16"/>
      <point x="754.0" y="319.36"/>
    </contour>
    <contour>
      <point x="257" y="1016" type="curve"/>
      <point x="257.0" y="966.42"/>
      <point x="269.18" y="931.65"/>
      <point x="300.0" y="901.5" type="curve" smooth="yes" name="inserted"/>
      <point x="330.82" y="871.35"/>
      <point x="378.96" y="847.46"/>
      <point x="454" y="822" type="curve"/>
      <point x="446" y="1206" type="line"/>
      <point x="391.06" y="1197.96"/>
      <point x="344.67" y="1178.82"/>
      <point x="310.5" y="1148.0" type="curve" smooth="yes" name="inserted"/>
      <point x="276.33" y="1117.18"/>
      <point x="257.0" y="1073.62"/>
    </contour>
  </outline>
</glyph>
<glyph name="percent" format="1">
  <advance width="1394"/>
  <unicode hex="0025"/>
  <outline>
    <contour>
      <point x="351" y="864" type="curve"/>
      <point x="408.62" y="864.0"/>
      <point x="444.39" y="886.63"/>
      <point x="466.5" y="927.5" type="curve" smooth="yes" name="inserted"/>
      <point x="488.61" y="968.37"/>
      <point x="496.0" y="1026.64"/>
      <point x="496" y="1099" type="curve"/>
      <point x="496.0" y="1172.7"/>
      <point x="488.61" y="1230.63"/>
      <point x="466.5" y="1271.5" type="curve" smooth="yes" name="inserted"/>
      <point x="444.39" y="1312.37"/>
      <point x="408.62" y="1335.0"/>
      <point x="351" y="1335" type="curve"/>
      <point x="292.04" y="1335.0"/>
      <point x="256.61" y="1312.37"/>
      <point x="234.5" y="1271.5" type="curve" smooth="yes" name="inserted"/>
      <point x="212.39" y="1230.63"/>
      <point x="205.0" y="1172.7"/>
      <point x="205" y="1099" type="curve"/>
      <point x="205.0" y="1026.64"/>
      <point x="212.39" y="968.37"/>
      <point x="234.5" y="927.5" type="curve" smooth="yes" name="inserted"/>
      <point x="256.61" y="886.63"/>
      <point x="292.04" y="864.0"/>
    </contour>
    <contour>
      <point x="83" y="1099" type="curve"/>
      <point x="83.0" y="1328.14"/>
      <point x="176.8" y="1438.0"/>
      <point x="351" y="1438" type="curve"/>
      <point x="527.88" y="1438.0"/>
      <point x="619.0" y="1328.14"/>
      <point x="619" y="1099" type="curve"/>
      <point x="619.0" y="872.54" name="inserted"/>
      <point x="530.56" y="761.0"/>
      <point x="351" y="761" type="curve"/>
      <point x="174.12" y="761.0"/>
      <point x="83.0" y="869.86"/>
    </contour>
    <contour>
      <point x="205" y="-12" type="line"/>
      <point x="1083" y="1490" type="line"/>
      <point x="1196" y="1423" type="line"/>
      <point x="314" y="-77" type="line"/>
    </contour>
    <contour>
      <point x="1187" y="321" type="curve"/>
      <point x="1187.0" y="393.36"/>
      <point x="1179.61" y="452.63"/>
      <point x="1157.5" y="493.5" type="curve" smooth="yes" name="inserted"/>
      <point x="1135.39" y="534.37"/>
      <point x="1099.62" y="557.0"/>
      <point x="1042" y="557" type="curve"/>
      <point x="983.04" y="557.0"/>
      <point x="946.61" y="534.37"/>
      <point x="924.5" y="493.5" type="curve" smooth="yes" name="inserted"/>
      <point x="902.39" y="452.63"/>
      <point x="895.0" y="393.36"/>
      <point x="895" y="321" type="curve"/>
      <point x="895.0" y="248.64"/>
      <point x="902.39" y="189.37"/>
      <point x="924.5" y="148.5" type="curve" smooth="yes" name="inserted"/>
      <point x="946.61" y="107.63"/>
      <point x="983.04" y="85.0"/>
      <point x="1042" y="85" type="curve"/>
      <point x="1099.62" y="85.0"/>
      <point x="1135.39" y="107.63"/>
      <point x="1157.5" y="148.5" type="curve" smooth="yes" name="inserted"/>
      <point x="1179.61" y="189.37"/>
      <point x="1187.0" y="248.64"/>
    </contour>
    <contour>
      <point x="774" y="321" type="curve"/>
      <point x="774.0" y="550.14"/>
      <point x="863.78" y="660.0"/>
      <point x="1042" y="660" type="curve"/>
      <point x="1218.88" y="660.0"/>
      <point x="1310.0" y="550.14"/>
      <point x="1310" y="321" type="curve"/>
      <point x="1310.0" y="93.87" name="inserted"/>
      <point x="1221.56" y="-18.0"/>
      <point x="1042" y="-18" type="curve"/>
      <point x="865.12" y="-18.0"/>
      <point x="774.0" y="91.86"/>
    </contour>
  </outline>
</glyph>
<glyph name="ampersand" format="1">
  <advance width="1464"/>
  <unicode hex="0026"/>
  <outline>
    <contour>
      <point x="1318" y="-20" type="line"/>
      <point x="1112" y="164" type="line"/>
      <point x="1007.48" y="36.7"/>
      <point x="846.56" y="-24.0"/>
      <point x="600" y="-24" type="curve"/>
      <point x="408.38" y="-24.0"/>
      <point x="283.06" y="19.32"/>
      <point x="204.0" y="89.0" type="curve" smooth="yes" name="inserted"/>
      <point x="124.94" y="158.68"/>
      <point x="94.0" y="253.84"/>
      <point x="94" y="353" type="curve"/>
      <point x="94.0" y="440.1"/>
      <point x="123.06" y="525.3"/>
      <point x="178.0" y="599.0" type="curve" smooth="yes" name="inserted"/>
      <point x="232.94" y="672.7"/>
      <point x="321.5" y="740.42"/>
      <point x="422" y="790" type="curve"/>
      <point x="363.04" y="843.6"/>
      <point x="302.69" y="897.7"/>
      <point x="264.5" y="958.0" type="curve" smooth="yes" name="inserted"/>
      <point x="226.31" y="1018.3"/>
      <point x="203.0" y="1083.94"/>
      <point x="203" y="1163" type="curve"/>
      <point x="203.0" y="1259.48"/>
      <point x="233.68" y="1325.06"/>
      <point x="298.0" y="1380.0" type="curve" smooth="yes" name="inserted"/>
      <point x="362.32" y="1434.94"/>
      <point x="457.34" y="1464.0"/>
      <point x="590" y="1464" type="curve"/>
      <point x="722.66" y="1464.0"/>
      <point x="813.21" y="1432.6"/>
      <point x="871.5" y="1379.0" type="curve" smooth="yes" name="inserted"/>
      <point x="929.79" y="1325.4"/>
      <point x="955.0" y="1263.1"/>
      <point x="955" y="1176" type="curve"/>
      <point x="955.0" y="1084.88"/>
      <point x="924.77" y="1008.83"/>
      <point x="870.5" y="942.5" type="curve" smooth="yes" name="inserted"/>
      <point x="816.23" y="876.17"/>
      <point x="742.16" y="823.6"/>
      <point x="643" y="770" type="curve"/>
      <point x="1080" y="371" type="line"/>
      <point x="1106.8" y="435.32"/>
      <point x="1121.62" y="528.39"/>
      <point x="1131.0" y="617.5" type="curve" smooth="yes" name="inserted"/>
      <point x="1140.38" y="706.61"/>
      <point x="1144.98" y="802.12"/>
      <point x="1149" y="912" type="curve"/>
      <point x="1295" y="923" type="line"/>
      <point x="1295.0" y="656.34"/>
      <point x="1269.38" y="446.46"/>
      <point x="1193" y="287" type="curve"/>
      <point x="1418" y="85" type="line"/>
    </contour>
    <contour>
      <point x="603" y="123" type="curve"/>
      <point x="805.34" y="123.0"/>
      <point x="926.62" y="171.9"/>
      <point x="1003" y="259" type="curve"/>
      <point x="514" y="708" type="line"/>
      <point x="347.84" y="616.88"/>
      <point x="269.0" y="516.04"/>
      <point x="269" y="374" type="curve"/>
      <point x="269.0" y="304.32"/>
      <point x="285.25" y="243.56"/>
      <point x="335.5" y="198.0" type="curve" smooth="yes" name="inserted"/>
      <point x="385.75" y="152.44"/>
      <point x="469.0" y="123.0"/>
    </contour>
    <contour>
      <point x="367" y="1149" type="curve"/>
      <point x="367.0" y="1096.74"/>
      <point x="389.99" y="1042.58"/>
      <point x="425.5" y="993.0" type="curve" smooth="yes" name="inserted"/>
      <point x="461.01" y="943.42"/>
      <point x="506.78" y="891.86"/>
      <point x="551" y="853" type="curve"/>
      <point x="611.3" y="889.18"/>
      <point x="673.76" y="931.27"/>
      <point x="722.0" y="977.5" type="curve" smooth="yes" name="inserted"/>
      <point x="770.24" y="1023.73"/>
      <point x="803.0" y="1079.3"/>
      <point x="803" y="1153" type="curve"/>
      <point x="803.0" y="1214.64"/>
      <point x="790.01" y="1260.01"/>
      <point x="754.5" y="1291.5" type="curve" smooth="yes" name="inserted"/>
      <point x="718.99" y="1322.99"/>
      <point x="664.42" y="1338.0"/>
      <point x="580" y="1338" type="curve"/>
      <point x="502.28" y="1338.0"/>
      <point x="449.67" y="1320.5"/>
      <point x="415.5" y="1287.0" type="curve" smooth="yes" name="inserted"/>
      <point x="381.33" y="1253.5"/>
      <point x="367.0" y="1209.3"/>
    </contour>
  </outline>
</glyph>
<glyph name="quotesingle" format="1">
  <advance width="389"/>
  <unicode hex="0027"/>
  <outline>
    <contour>
      <point x="284" y="1436" type="line"/>
      <point x="284.0" y="1348.9"/>
      <point x="267.42" y="1244.1"/>
      <point x="250" y="1157" type="curve"/>
      <point x="239.95" y="1106.08" name="inserted"/>
      <point x="228.73" y="1056.58"/>
      <point x="216" y="1007" type="curve"/>
      <point x="141" y="1007" type="line"/>
      <point x="138.99" y="1064.62" name="inserted"/>
      <point x="137.01" y="1119.4"/>
      <point x="135" y="1173" type="curve"/>
      <point x="133.66" y="1218.56"/>
      <point x="132.34" y="1268.27"/>
      <point x="131.0" y="1314.5" type="curve" smooth="yes" name="inserted"/>
      <point x="129.66" y="1360.73"/>
      <point x="129.0" y="1403.84"/>
      <point x="129" y="1436" type="curve"/>
    </contour>
  </outline>
</glyph>
<glyph name="parenleft" format="1">
  <advance width="598"/>
  <unicode hex="0028"/>
  <outline>
    <contour>
      <point x="107" y="619" type="curve"/>
      <point x="107.0" y="766.4"/>
      <point x="128.67" y="888.82"/>
      <point x="161.5" y="992.0" type="curve" smooth="yes" name="inserted"/>
      <point x="194.33" y="1095.18"/>
      <point x="236.78" y="1176.68"/>
      <point x="281" y="1241" type="curve"/>
      <point x="332.59" y="1316.71" name="inserted"/>
      <point x="390.34" y="1376.77"/>
      <point x="456" y="1423" type="curve"/>
      <point x="541" y="1326" type="line"/>
      <point x="492.76" y="1283.12" name="inserted"/>
      <point x="450.52" y="1229.0"/>
      <point x="413" y="1162" type="curve"/>
      <point x="380.84" y="1104.38"/>
      <point x="348.95" y="1033.12"/>
      <point x="325.5" y="942.0" type="curve" smooth="yes" name="inserted"/>
      <point x="302.05" y="850.88"/>
      <point x="286.0" y="744.3"/>
      <point x="286" y="617" type="curve"/>
      <point x="286.0" y="489.7"/>
      <point x="302.05" y="382.95"/>
      <point x="325.5" y="292.5" type="curve" smooth="yes" name="inserted"/>
      <point x="348.95" y="202.05"/>
      <point x="380.84" y="129.28"/>
      <point x="413" y="73" type="curve"/>
      <point x="450.52" y="6.67" name="inserted"/>
      <point x="492.76" y="-47.12"/>
      <point x="541" y="-90" type="curve"/>
      <point x="456" y="-186" type="line"/>
      <point x="390.34" y="-139.77" name="inserted"/>
      <point x="332.59" y="-79.71"/>
      <point x="281" y="-4" type="curve"/>
      <point x="236.78" y="60.32"/>
      <point x="194.33" y="141.82"/>
      <point x="161.5" y="245.0" type="curve" smooth="yes" name="inserted"/>
      <point x="128.67" y="348.18"/>
      <point x="107.0" y="471.6"/>
    </contour>
  </outline>
</glyph>
<glyph name="parenright" format="1">
  <advance width="596"/>
  <unicode hex="0029"/>
  <outline>
    <contour>
      <point x="489" y="619" type="curve"/>
      <point x="489.0" y="471.6"/>
      <point x="467.33" y="348.18"/>
      <point x="434.5" y="245.0" type="curve" smooth="yes" name="inserted"/>
      <point x="401.67" y="141.82"/>
      <point x="359.22" y="60.32"/>
      <point x="315" y="-4" type="curve"/>
      <point x="263.41" y="-79.71" name="inserted"/>
      <point x="205.99" y="-139.77"/>
      <point x="141" y="-186" type="curve"/>
      <point x="55" y="-90" type="line"/>
      <point x="103.24" y="-47.12" name="inserted"/>
      <point x="145.48" y="6.67"/>
      <point x="183" y="73" type="curve"/>
      <point x="215.16" y="129.28"/>
      <point x="246.88" y="202.05"/>
      <point x="271.0" y="292.5" type="curve" smooth="yes" name="inserted"/>
      <point x="295.12" y="382.95"/>
      <point x="311.0" y="489.7"/>
      <point x="311" y="617" type="curve"/>
      <point x="311.0" y="744.3"/>
      <point x="295.12" y="850.88"/>
      <point x="271.0" y="942.0" type="curve" smooth="yes" name="inserted"/>
      <point x="246.88" y="1033.12"/>
      <point x="215.16" y="1104.38"/>
      <point x="183" y="1162" type="curve"/>
      <point x="145.48" y="1229.0" name="inserted"/>
      <point x="103.24" y="1283.12"/>
      <point x="55" y="1326" type="curve"/>
      <point x="141" y="1423" type="line"/>
      <point x="205.99" y="1376.77" name="inserted"/>
      <point x="263.41" y="1316.71"/>
      <point x="315" y="1241" type="curve"/>
      <point x="359.22" y="1176.68"/>
      <point x="401.67" y="1095.18"/>
      <point x="434.5" y="992.0" type="curve" smooth="yes" name="inserted"/>
      <point x="467.33" y="888.82"/>
      <point x="489.0" y="766.4"/>
    </contour>
  </outline>
</glyph>
<glyph name="comma" format="1">
  <advance width="507"/>
  <unicode hex="002C"/>
  <outline>
    <contour>
      <point x="138" y="200" type="line"/>
      <point x="364" y="216" type="line"/>
      <point x="365.34" y="199.92" name="inserted"/>
      <point x="366.99" y="182.76"/>
      <point x="369" y="164" type="curve"/>
      <point x="371.68" y="131.84"/>
      <point x="375.0" y="89.9"/>
      <point x="375" y="43" type="curve"/>
      <point x="375.0" y="-19.98"/>
      <point x="362.82" y="-71.95"/>
      <point x="332.0" y="-115.5" type="curve" smooth="yes" name="inserted"/>
      <point x="301.18" y="-159.05"/>
      <point x="251.72" y="-191.56"/>
      <point x="174" y="-213" type="curve"/>
      <point x="147" y="-133" type="line"/>
      <point x="222.04" y="-124.96"/>
      <point x="258.0" y="-71.02"/>
      <point x="258" y="0" type="curve"/>
      <point x="138" y="0" type="line"/>
    </contour>
  </outline>
</glyph>
<glyph name="hyphen" format="1">
  <advance width="805"/>
  <unicode hex="002D"/>
  <outline>
    <contour>
      <point x="146" y="448" type="line"/>
      <point x="146" y="578" type="line"/>
      <point x="659" y="578" type="line"/>
      <point x="659" y="448" type="line"/>
    </contour>
  </outline>
</glyph>
<glyph name="period" format="1">
  <advance width="469"/>
  <unicode hex="002E"/>
  <outline>
    <contour>
      <point x="329" y="202" type="line"/>
      <point x="329" y="-9" type="line"/>
      <point x="139" y="-9" type="line"/>
      <point x="139" y="202" type="line"/>
    </contour>
  </outline>
</glyph>
<glyph name="zero" format="1">
  <advance width="1280"/>
  <unicode hex="0030"/>
  <outline>
    <contour>
      <point x="639" y="123" type="curve"/>
      <point x="771.66" y="123.0"/>
      <point x="851.27" y="177.69"/>
      <point x="897.5" y="273.5" type="curve" smooth="yes" name="inserted"/>
      <point x="943.73" y="369.31"/>
      <point x="957.0" y="505.16"/>
      <point x="957" y="674" type="curve"/>
      <point x="957.0" y="837.48"/>
      <point x="942.07" y="975.35"/>
      <point x="894.5" y="1072.5" type="curve" smooth="yes" name="inserted"/>
      <point x="846.93" y="1169.65"/>
      <point x="767.64" y="1227.0"/>
      <point x="639" y="1227" type="curve"/>
      <point x="510.36" y="1227.0"/>
      <point x="432.07" y="1170.65"/>
      <point x="384.5" y="1073.5" type="curve" smooth="yes" name="inserted"/>
      <point x="336.93" y="976.35"/>
      <point x="323.0" y="838.82"/>
      <point x="323" y="674" type="curve"/>
      <point x="323.0" y="505.16"/>
      <point x="337.93" y="369.31"/>
      <point x="385.5" y="273.5" type="curve" smooth="yes" name="inserted"/>
      <point x="433.07" y="177.69"/>
      <point x="511.7" y="123.0"/>
    </contour>
    <contour>
      <point x="133" y="673" type="curve"/>
      <point x="133.0" y="888.74"/>
      <point x="162.94" y="1063.4"/>
      <point x="242.0" y="1184.0" type="curve" smooth="yes" name="inserted"/>
      <point x="321.06" y="1304.6"/>
      <point x="446.04" y="1369.0"/>
      <point x="639" y="1369" type="curve"/>
      <point x="833.3" y="1369.0"/>
      <point x="958.94" y="1304.6"/>
      <point x="1038.0" y="1184.0" type="curve" smooth="yes" name="inserted"/>
      <point x="1117.06" y="1063.4"/>
      <point x="1147.0" y="888.74"/>
      <point x="1147" y="673" type="curve"/>
      <point x="1147.0" y="453.24"/>
      <point x="1115.4" y="279.26"/>
      <point x="1035.0" y="160.0" type="curve" smooth="yes" name="inserted"/>
      <point x="954.6" y="40.74"/>
      <point x="829.28" y="-24.0"/>
      <point x="639" y="-24" type="curve"/>
      <point x="448.72" y="-24.0"/>
      <point x="324.23" y="40.74"/>
      <point x="244.5" y="160.0" type="curve" smooth="yes" name="inserted"/>
      <point x="164.77" y="279.26"/>
      <point x="133.0" y="453.24"/>
    </contour>
  </outline>
</glyph>
<glyph name="two" format="1">
  <advance width="988"/>
  <unicode hex="0032"/>
  <outline>
    <contour>
      <point x="488" y="1363" type="curve"/>
      <point x="619.32" y="1363.0"/>
      <point x="713.85" y="1326.66"/>
      <point x="777.5" y="1261.0" type="curve" smooth="yes" name="inserted"/>
      <point x="841.15" y="1195.34"/>
      <point x="871.0" y="1104.54"/>
      <point x="871" y="996" type="curve"/>
      <point x="871.0" y="912.92"/>
      <point x="850.5" y="845.0"/>
      <point x="817.0" y="778.0" type="curve" smooth="yes" name="inserted"/>
      <point x="783.5" y="711.0"/>
      <point x="735.6" y="649.32"/>
      <point x="682" y="585" type="curve"/>
      <point x="304" y="144" type="line"/>
      <point x="856" y="144" type="line"/>
      <point x="836" y="0" type="line"/>
      <point x="120" y="0" type="line"/>
      <point x="90" y="146" type="line"/>
      <point x="553" y="700" type="line"/>
      <point x="585.16" y="738.86"/>
      <point x="620.37" y="784.25"/>
      <point x="646.5" y="834.5" type="curve" smooth="yes" name="inserted"/>
      <point x="672.63" y="884.75"/>
      <point x="691.0" y="935.38"/>
      <point x="691" y="993" type="curve"/>
      <point x="691.0" y="1055.98"/>
      <point x="672.69" y="1112.63"/>
      <point x="634.5" y="1153.5" type="curve" smooth="yes" name="inserted"/>
      <point x="596.31" y="1194.37"/>
      <point x="538.4" y="1217.0"/>
      <point x="458" y="1217" type="curve"/>
      <point x="382.96" y="1217.0"/>
      <point x="300.34" y="1197.76"/>
      <point x="232" y="1179" type="curve"/>
      <point x="192.47" y="1166.27" name="inserted"/>
      <point x="154.52" y="1153.4"/>
      <point x="117" y="1140" type="curve"/>
      <point x="137" y="1296" type="line"/>
      <point x="171.84" y="1308.06" name="inserted"/>
      <point x="208.14" y="1318.95"/>
      <point x="247" y="1329" type="curve"/>
      <point x="314.0" y="1346.42"/>
      <point x="399.56" y="1363.0"/>
    </contour>
  </outline>
</glyph>
<glyph name="three" format="1">
  <advance width="1061"/>
  <unicode hex="0033"/>
  <outline>
    <contour>
      <point x="125" y="189" type="line"/>
      <point x="142.42" y="184.98"/>
      <point x="192.51" y="171.57"/>
      <point x="257.5" y="157.5" type="curve" smooth="yes" name="inserted"/>
      <point x="322.49" y="143.43"/>
      <point x="402.62" y="132.0"/>
      <point x="479" y="132" type="curve"/>
      <point x="556.72" y="132.0"/>
      <point x="620.78" y="151.31"/>
      <point x="665.0" y="189.5" type="curve" smooth="yes" name="inserted"/>
      <point x="709.22" y="227.69"/>
      <point x="734.0" y="285.26"/>
      <point x="734" y="367" type="curve"/>
      <point x="734.0" y="451.42"/>
      <point x="709.98" y="516.61"/>
      <point x="647.0" y="561.5" type="curve" smooth="yes" name="inserted"/>
      <point x="584.02" y="606.39"/>
      <point x="484.1" y="628.0"/>
      <point x="330" y="628" type="curve"/>
      <point x="330" y="789" type="line"/>
      <point x="472.04" y="789.0"/>
      <point x="564.55" y="801.33"/>
      <point x="621.5" y="835.5" type="curve" smooth="yes" name="inserted"/>
      <point x="678.45" y="869.67"/>
      <point x="700.0" y="925.24"/>
      <point x="700" y="1011" type="curve"/>
      <point x="700.0" y="1090.06"/>
      <point x="673.39" y="1141.5"/>
      <point x="628.5" y="1175.0" type="curve" smooth="yes" name="inserted"/>
      <point x="583.61" y="1208.5"/>
      <point x="521.68" y="1221.0"/>
      <point x="452" y="1221" type="curve"/>
      <point x="389.02" y="1221.0"/>
      <point x="314.15" y="1211.06"/>
      <point x="250.5" y="1199.0" type="curve" smooth="yes" name="inserted"/>
      <point x="186.85" y="1186.94"/>
      <point x="133.76" y="1172.36"/>
      <point x="115" y="1167" type="curve"/>
      <point x="140" y="1320" type="line"/>
      <point x="161.44" y="1326.7"/>
      <point x="203.06" y="1338.28"/>
      <point x="258.0" y="1349.0" type="curve" smooth="yes" name="inserted"/>
      <point x="312.94" y="1359.72"/>
      <point x="379.64" y="1370.0"/>
      <point x="452" y="1370" type="curve"/>
      <point x="586.0" y="1370.0"/>
      <point x="694.62" y="1344.28"/>
      <point x="771.0" y="1288.0" type="curve" smooth="yes" name="inserted"/>
      <point x="847.38" y="1231.72"/>
      <point x="889.0" y="1147.92"/>
      <point x="889" y="1030" type="curve"/>
      <point x="889.0" y="957.64"/>
      <point x="873.78" y="902.22"/>
      <point x="851.0" y="858.0" type="curve" smooth="yes" name="inserted"/>
      <point x="828.22" y="813.78"/>
      <point x="797.48" y="785.12"/>
      <point x="768" y="761" type="curve"/>
      <point x="732.49" y="736.21" name="inserted"/>
      <point x="692.89" y="720.04"/>
      <point x="648" y="712" type="curve"/>
      <point x="702.27" y="707.98" name="inserted"/>
      <point x="749.79" y="694.12"/>
      <point x="792" y="670" type="curve"/>
      <point x="828.18" y="645.88"/>
      <point x="864.2" y="616.07"/>
      <point x="891.0" y="568.5" type="curve" smooth="yes" name="inserted"/>
      <point x="917.8" y="520.93"/>
      <point x="936.0" y="457.74"/>
      <point x="936" y="376" type="curve"/>
      <point x="936.0" y="217.88"/>
      <point x="885.25" y="119.64"/>
      <point x="801.5" y="58.0" type="curve" smooth="yes" name="inserted"/>
      <point x="717.75" y="-3.64"/>
      <point x="603.3" y="-24.0"/>
      <point x="476" y="-24" type="curve"/>
      <point x="392.92" y="-24.0"/>
      <point x="307.85" y="-10.74"/>
      <point x="237.5" y="4.0" type="curve" smooth="yes" name="inserted"/>
      <point x="167.15" y="18.74"/>
      <point x="112.44" y="34.64"/>
      <point x="91" y="40" type="curve"/>
    </contour>
  </outline>
</glyph>
<glyph name="four" format="1">
  <advance width="1082"/>
  <unicode hex="0034"/>
  <outline>
    <contour>
      <point x="570" y="1335" type="line"/>
      <point x="836" y="1328" type="line"/>
      <point x="837" y="397" type="line"/>
      <point x="1004" y="397" type="line"/>
      <point x="1004" y="257" type="line"/>
      <point x="837" y="257" type="line"/>
      <point x="837" y="-14" type="line"/>
      <point x="662" y="-19" type="line"/>
      <point x="662" y="257" type="line"/>
      <point x="84" y="257" type="line"/>
      <point x="38" y="379" type="line"/>
    </contour>
    <contour>
      <point x="662" y="397" type="line"/>
      <point x="662" y="839" type="line"/>
      <point x="672" y="1217" type="line"/>
      <point x="488" y="853" type="line"/>
      <point x="233" y="393" type="line"/>
      <point x="424" y="397" type="line"/>
    </contour>
  </outline>
</glyph>
<glyph name="five" format="1">
  <advance width="1028"/>
  <unicode hex="0035"/>
  <outline>
    <contour>
      <point x="197" y="667" type="curve"/>
      <point x="195.66" y="667.0"/>
      <point x="183.4" y="680.6"/>
      <point x="170" y="694" type="curve"/>
      <point x="143" y="721" type="line"/>
      <point x="163" y="1339" type="line"/>
      <point x="839" y="1339" type="line"/>
      <point x="824" y="1209" type="line"/>
      <point x="319" y="1209" type="line"/>
      <point x="301" y="809" type="line"/>
      <point x="321.77" y="813.02" name="inserted"/>
      <point x="343.55" y="816.65"/>
      <point x="367" y="820" type="curve"/>
      <point x="407.2" y="826.7"/>
      <point x="459.72" y="832.0"/>
      <point x="516" y="832" type="curve"/>
      <point x="631.24" y="832.0"/>
      <point x="731.64" y="802.0"/>
      <point x="804.0" y="735.0" type="curve" smooth="yes" name="inserted"/>
      <point x="876.36" y="668.0"/>
      <point x="920.0" y="565.7"/>
      <point x="920" y="425" type="curve"/>
      <point x="920.0" y="276.26"/>
      <point x="893.36" y="164.21"/>
      <point x="821.0" y="88.5" type="curve" smooth="yes" name="inserted"/>
      <point x="748.64" y="12.79"/>
      <point x="633.88" y="-24.0"/>
      <point x="457" y="-24" type="curve"/>
      <point x="377.94" y="-24.0"/>
      <point x="307.6" y="-11.74"/>
      <point x="254" y="3" type="curve"/>
      <point x="222.51" y="11.04" name="inserted"/>
      <point x="194.13" y="20.28"/>
      <point x="168" y="31" type="curve"/>
      <point x="149" y="183" type="line"/>
      <point x="177.14" y="173.62" name="inserted"/>
      <point x="207.17" y="165.04"/>
      <point x="240" y="157" type="curve"/>
      <point x="296.28" y="143.6"/>
      <point x="369.6" y="132.0"/>
      <point x="450" y="132" type="curve"/>
      <point x="563.9" y="132.0"/>
      <point x="638.27" y="150.61"/>
      <point x="684.5" y="195.5" type="curve" smooth="yes" name="inserted"/>
      <point x="730.73" y="240.39"/>
      <point x="748.0" y="312.78"/>
      <point x="748" y="424" type="curve"/>
      <point x="748.0" y="500.38"/>
      <point x="726.22" y="565.1"/>
      <point x="682.0" y="612.0" type="curve" smooth="yes" name="inserted"/>
      <point x="637.78" y="658.9"/>
      <point x="571.78" y="689.0"/>
      <point x="482" y="689" type="curve"/>
      <point x="366.76" y="689.0"/>
      <point x="259.98" y="677.72"/>
    </contour>
  </outline>
</glyph>
<glyph name="six" format="1">
  <advance width="1196"/>
  <unicode hex="0036"/>
  <outline>
    <contour>
      <point x="941" y="1191" type="line"/>
      <point x="824.42" y="1205.74"/>
      <point x="730.08" y="1207.06"/>
      <point x="647" y="1195" type="curve"/>
      <point x="530.42" y="1181.6"/>
      <point x="450.26" y="1134.57"/>
      <point x="398.0" y="1053.5" type="curve" smooth="yes" name="inserted"/>
      <point x="345.74" y="972.43"/>
      <point x="322.34" y="856.42"/>
      <point x="321" y="705" type="curve"/>
      <point x="354.5" y="727.78"/>
      <point x="403.34" y="762.86"/>
      <point x="469.0" y="791.0" type="curve" smooth="yes" name="inserted"/>
      <point x="534.66" y="819.14"/>
      <point x="613.54" y="842.0"/>
      <point x="706" y="842" type="curve"/>
      <point x="823.92" y="842.0"/>
      <point x="923.64" y="802.36"/>
      <point x="996.0" y="730.0" type="curve" smooth="yes" name="inserted"/>
      <point x="1068.36" y="657.64"/>
      <point x="1110.0" y="554.3"/>
      <point x="1110" y="427" type="curve"/>
      <point x="1110.0" y="310.42"/>
      <point x="1072.57" y="198.42"/>
      <point x="991.5" y="114.0" type="curve" smooth="yes" name="inserted"/>
      <point x="910.43" y="29.58"/>
      <point x="788.86" y="-24.0"/>
      <point x="616" y="-24" type="curve"/>
      <point x="457.88" y="-24.0"/>
      <point x="336.91" y="32.8"/>
      <point x="254.5" y="140.0" type="curve" smooth="yes" name="inserted"/>
      <point x="172.09" y="247.2"/>
      <point x="130.0" y="401.68"/>
      <point x="130" y="600" type="curve"/>
      <point x="130.0" y="827.8"/>
      <point x="161.94" y="1000.55"/>
      <point x="241.0" y="1124.5" type="curve" smooth="yes" name="inserted"/>
      <point x="320.06" y="1248.45"/>
      <point x="444.4" y="1319.58"/>
      <point x="632" y="1337" type="curve"/>
      <point x="716.42" y="1349.06"/>
      <point x="808.12" y="1348.72"/>
      <point x="918" y="1338" type="curve"/>
    </contour>
    <contour>
      <point x="669" y="692" type="curve"/>
      <point x="569.84" y="692.0"/>
      <point x="485.98" y="662.8"/>
      <point x="423" y="636" type="curve"/>
      <point x="386.15" y="619.92" name="inserted"/>
      <point x="353.15" y="602.1"/>
      <point x="323" y="582" type="curve"/>
      <point x="323.0" y="579.32"/>
      <point x="322.0" y="568.06"/>
      <point x="322.0" y="556.0" type="curve" smooth="yes" name="inserted"/>
      <point x="322.0" y="543.94"/>
      <point x="322.0" y="533.02"/>
      <point x="322" y="529" type="curve"/>
      <point x="320.66" y="267.7"/>
      <point x="423.66" y="120.0"/>
      <point x="626" y="120" type="curve"/>
      <point x="824.32" y="120.0"/>
      <point x="929.0" y="216.3"/>
      <point x="929" y="424" type="curve"/>
      <point x="929.0" y="507.08"/>
      <point x="909.71" y="573.27"/>
      <point x="867.5" y="619.5" type="curve" smooth="yes" name="inserted"/>
      <point x="825.29" y="665.73"/>
      <point x="760.12" y="692.0"/>
    </contour>
  </outline>
</glyph>
<glyph name="seven" format="1">
  <advance width="917"/>
  <unicode hex="0037"/>
  <outline>
    <contour>
      <point x="205" y="48" type="line"/>
      <point x="528" y="817" type="line"/>
      <point x="678" y="1174" type="line"/>
      <point x="370" y="1171" type="line"/>
      <point x="59" y="1171" type="line"/>
      <point x="69" y="1317" type="line"/>
      <point x="826" y="1317" type="line"/>
      <point x="867" y="1177" type="line"/>
      <point x="365" y="-24" type="line"/>
    </contour>
  </outline>
</glyph>
<glyph name="eight" format="1">
  <advance width="1155"/>
  <unicode hex="0038"/>
  <outline>
    <contour>
      <point x="123" y="345" type="curve"/>
      <point x="123.0" y="437.46"/>
      <point x="144.5" y="505.74"/>
      <point x="178.0" y="558.0" type="curve" smooth="yes" name="inserted"/>
      <point x="211.5" y="610.26"/>
      <point x="254.12" y="642.71"/>
      <point x="297.0" y="667.5" type="curve" smooth="yes" name="inserted"/>
      <point x="339.88" y="692.29"/>
      <point x="381.18" y="702.96"/>
      <point x="412" y="711" type="curve"/>
      <point x="346.34" y="727.08"/>
      <point x="286.22" y="761.25"/>
      <point x="242.0" y="811.5" type="curve" smooth="yes" name="inserted"/>
      <point x="197.78" y="861.75"/>
      <point x="170.0" y="927.24"/>
      <point x="170" y="1013" type="curve"/>
      <point x="170.0" y="1112.16"/>
      <point x="201.0" y="1198.51"/>
      <point x="268.0" y="1263.5" type="curve" smooth="yes" name="inserted"/>
      <point x="335.0" y="1328.49"/>
      <point x="436.3" y="1367.0"/>
      <point x="577" y="1367" type="curve"/>
      <point x="719.04" y="1367.0"/>
      <point x="822.0" y="1327.49"/>
      <point x="889.0" y="1262.5" type="curve" smooth="yes" name="inserted"/>
      <point x="956.0" y="1197.51"/>
      <point x="988.0" y="1110.82"/>
      <point x="988" y="1013" type="curve"/>
      <point x="988.0" y="925.9"/>
      <point x="956.07" y="859.41"/>
      <point x="908.5" y="810.5" type="curve" smooth="yes" name="inserted"/>
      <point x="860.93" y="761.59"/>
      <point x="797.32" y="727.08"/>
      <point x="733" y="711" type="curve"/>
      <point x="789.28" y="698.94"/>
      <point x="863.53" y="670.94"/>
      <point x="924.5" y="616.0" type="curve" smooth="yes" name="inserted"/>
      <point x="985.47" y="561.06"/>
      <point x="1031.0" y="474.98"/>
      <point x="1031" y="345" type="curve"/>
      <point x="1031.0" y="205.64"/>
      <point x="972.93" y="114.79"/>
      <point x="886.5" y="56.5" type="curve" smooth="yes" name="inserted"/>
      <point x="800.07" y="-1.79"/>
      <point x="686.88" y="-24.0"/>
      <point x="577" y="-24" type="curve"/>
      <point x="468.46" y="-24.0"/>
      <point x="354.93" y="-1.79"/>
      <point x="268.5" y="56.5" type="curve" smooth="yes" name="inserted"/>
      <point x="182.07" y="114.79"/>
      <point x="123.0" y="205.64"/>
    </contour>
    <contour>
      <point x="579" y="785" type="curve"/>
      <point x="621.21" y="796.39" name="inserted"/>
      <point x="658.17" y="812.23"/>
      <point x="691" y="833" type="curve"/>
      <point x="719.14" y="850.42"/>
      <point x="746.56" y="875.18"/>
      <point x="768.0" y="906.0" type="curve" smooth="yes" name="inserted"/>
      <point x="789.44" y="936.82"/>
      <point x="803.0" y="976.1"/>
      <point x="803" y="1023" type="curve"/>
      <point x="803.0" y="1100.72"/>
      <point x="778.2" y="1148.01"/>
      <point x="738.0" y="1179.5" type="curve" smooth="yes" name="inserted"/>
      <point x="697.8" y="1210.99"/>
      <point x="641.98" y="1222.0"/>
      <point x="579" y="1222" type="curve"/>
      <point x="520.04" y="1222.0"/>
      <point x="463.54" y="1210.99"/>
      <point x="422.0" y="1179.5" type="curve" smooth="yes" name="inserted"/>
      <point x="380.46" y="1148.01"/>
      <point x="354.0" y="1100.72"/>
      <point x="354" y="1023" type="curve"/>
      <point x="354.0" y="976.1"/>
      <point x="367.56" y="935.82"/>
      <point x="389.0" y="905.0" type="curve" smooth="yes" name="inserted"/>
      <point x="410.44" y="874.18"/>
      <point x="437.86" y="849.42"/>
      <point x="466" y="832" type="curve"/>
      <point x="498.83" y="811.23" name="inserted"/>
      <point x="536.12" y="795.72"/>
    </contour>
    <contour>
      <point x="314" y="364" type="curve"/>
      <point x="314.0" y="274.22"/>
      <point x="341.27" y="215.52"/>
      <point x="387.5" y="178.0" type="curve" smooth="yes" name="inserted"/>
      <point x="433.73" y="140.48"/>
      <point x="499.28" y="126.0"/>
      <point x="577" y="126" type="curve"/>
      <point x="653.38" y="126.0"/>
      <point x="720.76" y="139.48"/>
      <point x="769.0" y="177.0" type="curve" smooth="yes" name="inserted"/>
      <point x="817.24" y="214.52"/>
      <point x="846.0" y="272.88"/>
      <point x="846" y="364" type="curve"/>
      <point x="846.0" y="421.62"/>
      <point x="829.46" y="469.65"/>
      <point x="804.0" y="506.5" type="curve" smooth="yes" name="inserted"/>
      <point x="778.54" y="543.35"/>
      <point x="745.5" y="573.9"/>
      <point x="712" y="594" type="curve"/>
      <point x="672.47" y="618.12" name="inserted"/>
      <point x="628.25" y="635.28"/>
      <point x="578" y="646" type="curve"/>
      <point x="528.42" y="633.94" name="inserted"/>
      <point x="484.86" y="616.12"/>
      <point x="446" y="592" type="curve"/>
      <point x="412.5" y="571.9"/>
      <point x="380.29" y="542.52"/>
      <point x="355.5" y="505.0" type="curve" smooth="yes" name="inserted"/>
      <point x="330.71" y="467.48"/>
      <point x="314.0" y="420.28"/>
    </contour>
  </outline>
</glyph>
<glyph name="nine" format="1">
  <advance width="1196"/>
  <unicode hex="0039"/>
  <outline>
    <contour>
      <point x="255" y="142" type="line"/>
      <point x="371.58" y="127.26"/>
      <point x="465.92" y="126.28"/>
      <point x="549" y="137" type="curve"/>
      <point x="665.58" y="150.4"/>
      <point x="745.74" y="197.43"/>
      <point x="798.0" y="278.5" type="curve" smooth="yes" name="inserted"/>
      <point x="850.26" y="359.57"/>
      <point x="873.66" y="474.9"/>
      <point x="875" y="629" type="curve"/>
      <point x="848.2" y="604.88"/>
      <point x="804.47" y="573.31"/>
      <point x="743.5" y="544.5" type="curve" smooth="yes" name="inserted"/>
      <point x="682.53" y="515.69"/>
      <point x="606.46" y="496.0"/>
      <point x="514" y="496" type="curve"/>
      <point x="394.74" y="496.0"/>
      <point x="288.72" y="532.98"/>
      <point x="211.0" y="604.0" type="curve" smooth="yes" name="inserted"/>
      <point x="133.28" y="675.02"/>
      <point x="86.0" y="778.34"/>
      <point x="86" y="911" type="curve"/>
      <point x="86.0" y="1028.92"/>
      <point x="123.43" y="1140.24"/>
      <point x="204.5" y="1226.0" type="curve" smooth="yes" name="inserted"/>
      <point x="285.57" y="1311.76"/>
      <point x="407.14" y="1365.0"/>
      <point x="580" y="1365" type="curve"/>
      <point x="738.12" y="1365.0"/>
      <point x="858.09" y="1309.71"/>
      <point x="940.5" y="1200.5" type="curve" smooth="yes" name="inserted"/>
      <point x="1022.91" y="1091.29"/>
      <point x="1066.0" y="937.34"/>
      <point x="1066" y="735" type="curve"/>
      <point x="1066.0" y="507.2"/>
      <point x="1034.06" y="330.79"/>
      <point x="955.0" y="205.5" type="curve" smooth="yes" name="inserted"/>
      <point x="875.94" y="80.21"/>
      <point x="751.94" y="9.42"/>
      <point x="563" y="-8" type="curve"/>
      <point x="478.58" y="-21.4"/>
      <point x="387.88" y="-20.72"/>
      <point x="278" y="-10" type="curve"/>
    </contour>
    <contour>
      <point x="548" y="642" type="curve"/>
      <point x="640.46" y="642.0"/>
      <point x="720.04" y="671.2"/>
      <point x="779" y="698" type="curve"/>
      <point x="813.17" y="714.08" name="inserted"/>
      <point x="844.19" y="732.23"/>
      <point x="873" y="753" type="curve"/>
      <point x="873.0" y="757.02"/>
      <point x="874.0" y="770.94"/>
      <point x="874.0" y="783.0" type="curve" smooth="yes" name="inserted"/>
      <point x="874.0" y="795.06"/>
      <point x="874.0" y="805.98"/>
      <point x="874" y="810" type="curve"/>
      <point x="874.0" y="941.32"/>
      <point x="847.92" y="1040.98"/>
      <point x="797.0" y="1112.0" type="curve" smooth="yes" name="inserted"/>
      <point x="746.08" y="1183.02"/>
      <point x="670.5" y="1220.0"/>
      <point x="570" y="1220" type="curve"/>
      <point x="370.34" y="1220.0"/>
      <point x="267.0" y="1123.38"/>
      <point x="267" y="913" type="curve"/>
      <point x="267.0" y="828.58"/>
      <point x="287.44" y="761.73"/>
      <point x="333.0" y="715.5" type="curve" smooth="yes" name="inserted"/>
      <point x="378.56" y="669.27"/>
      <point x="447.5" y="642.0"/>
    </contour>
  </outline>
</glyph>
<glyph name="colon" format="1">
  <advance width="501"/>
  <unicode hex="003A"/>
  <outline>
    <contour>
      <point x="353" y="306" type="line"/>
      <point x="353" y="94" type="line"/>
      <point x="147" y="94" type="line"/>
      <point x="147" y="306" type="line"/>
    </contour>
    <contour>
      <point x="353" y="805" type="line"/>
      <point x="353" y="591" type="line"/>
      <point x="148" y="591" type="line"/>
      <point x="148" y="805" type="line"/>
    </contour>
  </outline>
</glyph>
<glyph name="semicolon" format="1">
  <advance width="514"/>
  <unicode hex="003B"/>
  <outline>
    <contour>
      <point x="357" y="805" type="line"/>
      <point x="357" y="591" type="line"/>
      <point x="152" y="591" type="line"/>
      <point x="152" y="805" type="line"/>
    </contour>
    <contour>
      <point x="152" y="189" type="line"/>
      <point x="355" y="195" type="line"/>
      <point x="357.01" y="181.6" name="inserted"/>
      <point x="358.99" y="166.75"/>
      <point x="361" y="150" type="curve"/>
      <point x="363.68" y="121.86"/>
      <point x="367.0" y="84.54"/>
      <point x="367" y="43" type="curve"/>
      <point x="367.0" y="-19.98"/>
      <point x="355.97" y="-71.95"/>
      <point x="328.5" y="-115.5" type="curve" smooth="yes" name="inserted"/>
      <point x="301.03" y="-159.05"/>
      <point x="256.34" y="-191.56"/>
      <point x="188" y="-213" type="curve"/>
      <point x="160" y="-133" type="line"/>
      <point x="221.64" y="-124.96"/>
      <point x="250.0" y="-71.02"/>
      <point x="250" y="0" type="curve"/>
      <point x="152" y="0" type="line"/>
    </contour>
  </outline>
</glyph>
<glyph name="greater" format="1">
  <advance width="988"/>
  <unicode hex="003E"/>
  <outline>
    <contour>
      <point x="909" y="506" type="line"/>
      <point x="181" y="138" type="line"/>
      <point x="132" y="301" type="line"/>
      <point x="702" y="561" type="line"/>
      <point x="132" y="823" type="line"/>
      <point x="181" y="987" type="line"/>
      <point x="909" y="623" type="line"/>
    </contour>
  </outline>
</glyph>
<glyph name="question" format="1">
  <advance width="872"/>
  <unicode hex="003F"/>
  <outline>
    <contour>
      <point x="804" y="1093" type="curve"/>
      <point x="804.0" y="965.7"/>
      <point x="753.51" y="883.13"/>
      <point x="684.5" y="823.5" type="curve" smooth="yes" name="inserted"/>
      <point x="615.49" y="763.87"/>
      <point x="531.51" y="729.99"/>
      <point x="462.5" y="698.5" type="curve" smooth="yes" name="inserted"/>
      <point x="393.49" y="667.01"/>
      <point x="343.0" y="641.54"/>
      <point x="343" y="600" type="curve"/>
      <point x="343" y="302" type="line"/>
      <point x="192" y="302" type="line"/>
      <point x="192" y="590" type="line"/>
      <point x="192.0" y="661.02"/>
      <point x="219.29" y="710.31"/>
      <point x="261.5" y="748.5" type="curve" smooth="yes" name="inserted"/>
      <point x="303.71" y="786.69"/>
      <point x="357.72" y="813.03"/>
      <point x="414.0" y="840.5" type="curve" smooth="yes" name="inserted"/>
      <point x="470.28" y="867.97"/>
      <point x="524.29" y="894.31"/>
      <point x="566.5" y="932.5" type="curve" smooth="yes" name="inserted"/>
      <point x="608.71" y="970.69"/>
      <point x="636.0" y="1018.98"/>
      <point x="636" y="1090" type="curve"/>
      <point x="636.0" y="1161.02"/>
      <point x="619.69" y="1209.84"/>
      <point x="581.5" y="1242.0" type="curve" smooth="yes" name="inserted"/>
      <point x="543.31" y="1274.16"/>
      <point x="482.78" y="1288.0"/>
      <point x="393" y="1288" type="curve"/>
      <point x="321.98" y="1288.0"/>
      <point x="249.62" y="1276.72"/>
      <point x="192" y="1266" type="curve"/>
      <point x="158.5" y="1259.3" name="inserted"/>
      <point x="126.82" y="1252.04"/>
      <point x="96" y="1244" type="curve"/>
      <point x="96.0" y="1246.68"/>
      <point x="97.83" y="1281.16"/>
      <point x="98.5" y="1316.0" type="curve" smooth="yes" name="inserted"/>
      <point x="99.17" y="1350.84"/>
      <point x="101.0" y="1385.32"/>
      <point x="101" y="1388" type="curve"/>
      <point x="131.15" y="1396.71" name="inserted"/>
      <point x="162.17" y="1404.63"/>
      <point x="195" y="1412" type="curve"/>
      <point x="251.28" y="1424.06"/>
      <point x="322.98" y="1437.0"/>
      <point x="394" y="1437" type="curve"/>
      <point x="550.78" y="1437.0"/>
      <point x="652.85" y="1397.98"/>
      <point x="716.5" y="1335.0" type="curve" smooth="yes" name="inserted"/>
      <point x="780.15" y="1272.02"/>
      <point x="804.0" y="1186.8"/>
    </contour>
    <contour>
      <point x="173" y="78" type="curve"/>
      <point x="173.0" y="108.82"/>
      <point x="184.41" y="136.73"/>
      <point x="202.5" y="157.5" type="curve" smooth="yes" name="inserted"/>
      <point x="220.59" y="178.27"/>
      <point x="245.86" y="191.0"/>
      <point x="274" y="191" type="curve"/>
      <point x="303.48" y="191.0"/>
      <point x="329.07" y="178.27"/>
      <point x="348.5" y="157.5" type="curve" smooth="yes" name="inserted"/>
      <point x="367.93" y="136.73"/>
      <point x="379.0" y="108.82"/>
      <point x="379" y="78" type="curve"/>
      <point x="379.0" y="48.52"/>
      <point x="367.93" y="22.93"/>
      <point x="348.5" y="3.5" type="curve" smooth="yes" name="inserted"/>
      <point x="329.07" y="-15.93"/>
      <point x="303.48" y="-28.0"/>
      <point x="274" y="-28" type="curve"/>
      <point x="245.86" y="-28.0"/>
      <point x="220.59" y="-15.93"/>
      <point x="202.5" y="3.5" type="curve" smooth="yes" name="inserted"/>
      <point x="184.41" y="22.93"/>
      <point x="173.0" y="48.52"/>
    </contour>
  </outline>
</glyph>
<glyph name="at" format="1">
  <advance width="1603"/>
  <unicode hex="0040"/>
  <outline>
    <contour>
      <point x="1035" y="896" type="line"/>
      <point x="1030.98" y="896.0"/>
      <point x="1003.84" y="901.64"/>
      <point x="969.0" y="907.0" type="curve" smooth="yes" name="inserted"/>
      <point x="934.16" y="912.36"/>
      <point x="893.48" y="918.34"/>
      <point x="864" y="917" type="curve"/>
      <point x="770.2" y="912.98"/>
      <point x="686.98" y="868.0"/>
      <point x="624.0" y="801.0" type="curve" smooth="yes" name="inserted"/>
      <point x="561.02" y="734.0"/>
      <point x="521.02" y="646.78"/>
      <point x="517" y="557" type="curve"/>
      <point x="506.28" y="380.12"/>
      <point x="572.32" y="299.0"/>
      <point x="709" y="299" type="curve"/>
      <point x="800.12" y="299.0"/>
      <point x="867.25" y="333.34"/>
      <point x="917.5" y="399.0" type="curve" smooth="yes" name="inserted"/>
      <point x="967.75" y="464.66"/>
      <point x="997.26" y="560.4"/>
      <point x="1012" y="681" type="curve"/>
    </contour>
    <contour>
      <point x="1511" y="685" type="curve"/>
      <point x="1511.0" y="540.28"/>
      <point x="1480.73" y="437.04"/>
      <point x="1434.5" y="362.0" type="curve" smooth="yes" name="inserted"/>
      <point x="1388.27" y="286.96"/>
      <point x="1328.3" y="241.46"/>
      <point x="1268.0" y="216.0" type="curve" smooth="yes" name="inserted"/>
      <point x="1207.7" y="190.54"/>
      <point x="1150.54" y="183.0"/>
      <point x="1109" y="183" type="curve"/>
      <point x="1058.08" y="183.0"/>
      <point x="1031.57" y="200.69"/>
      <point x="1017.5" y="229.5" type="curve" smooth="yes" name="inserted"/>
      <point x="1003.43" y="258.31"/>
      <point x="1002.98" y="299.44"/>
      <point x="1007" y="345" type="curve"/>
      <point x="1008.34" y="349.02"/>
      <point x="1012.98" y="375.54"/>
      <point x="1017" y="401" type="curve"/>
      <point x="1025" y="449" type="line"/>
      <point x="1016" y="450" type="line"/>
      <point x="1003.94" y="399.75" name="inserted"/>
      <point x="984.47" y="355.2"/>
      <point x="957" y="315" type="curve"/>
      <point x="932.88" y="281.5"/>
      <point x="901.05" y="246.29"/>
      <point x="857.5" y="221.5" type="curve" smooth="yes" name="inserted"/>
      <point x="813.95" y="196.71"/>
      <point x="759.34" y="180.0"/>
      <point x="691" y="180" type="curve"/>
      <point x="594.52" y="180.0"/>
      <point x="519.6" y="213.19"/>
      <point x="466.0" y="275.5" type="curve" smooth="yes" name="inserted"/>
      <point x="412.4" y="337.81"/>
      <point x="384.0" y="424.46"/>
      <point x="384" y="533" type="curve"/>
      <point x="384.0" y="620.1"/>
      <point x="410.1" y="705.45"/>
      <point x="457.0" y="782.5" type="curve" smooth="yes" name="inserted"/>
      <point x="503.9" y="859.55"/>
      <point x="570.43" y="925.78"/>
      <point x="651.5" y="970.0" type="curve" smooth="yes" name="inserted"/>
      <point x="732.57" y="1014.22"/>
      <point x="825.82" y="1035.4"/>
      <point x="929" y="1022" type="curve"/>
      <point x="961.16" y="1017.98"/>
      <point x="1006.31" y="1011.53"/>
      <point x="1044.5" y="1005.5" type="curve" smooth="yes" name="inserted"/>
      <point x="1082.69" y="999.47"/>
      <point x="1112.66" y="994.0"/>
      <point x="1114" y="994" type="curve"/>
      <point x="1160" y="895" type="line"/>
      <point x="1105" y="287" type="line"/>
      <point x="1135.82" y="287.0"/>
      <point x="1176.63" y="291.9"/>
      <point x="1217.5" y="312.0" type="curve" smooth="yes" name="inserted"/>
      <point x="1258.37" y="332.1"/>
      <point x="1298.35" y="367.87"/>
      <point x="1328.5" y="427.5" type="curve" smooth="yes" name="inserted"/>
      <point x="1358.65" y="487.13"/>
      <point x="1378.0" y="568.74"/>
      <point x="1378" y="688" type="curve"/>
      <point x="1378.0" y="862.2"/>
      <point x="1323.48" y="988.58"/>
      <point x="1227.0" y="1073.0" type="curve" smooth="yes" name="inserted"/>
      <point x="1130.52" y="1157.42"/>
      <point x="994.5" y="1198.0"/>
      <point x="827" y="1198" type="curve"/>
      <point x="644.76" y="1198.0"/>
      <point x="501.84" y="1125.24"/>
      <point x="400.0" y="1010.0" type="curve" smooth="yes" name="inserted"/>
      <point x="298.16" y="894.76"/>
      <point x="240.04" y="739.5"/>
      <point x="232" y="572" type="curve"/>
      <point x="222.62" y="400.48"/>
      <point x="270.67" y="260.33"/>
      <point x="370.5" y="160.5" type="curve" smooth="yes" name="inserted"/>
      <point x="470.33" y="60.67"/>
      <point x="620.02" y="3.0"/>
      <point x="817" y="3" type="curve"/>
      <point x="968.42" y="3.0"/>
      <point x="1072.66" y="35.48"/>
      <point x="1141" y="73" type="curve"/>
      <point x="1181.2" y="93.1" name="inserted"/>
      <point x="1213.87" y="115.54"/>
      <point x="1240" y="141" type="curve"/>
      <point x="1248.04" y="134.3"/>
      <point x="1260.43" y="118.08"/>
      <point x="1274.5" y="102.0" type="curve" smooth="yes" name="inserted"/>
      <point x="1288.57" y="85.92"/>
      <point x="1300.96" y="70.04"/>
      <point x="1309" y="62" type="curve"/>
      <point x="1282.2" y="28.5" name="inserted"/>
      <point x="1245.9" y="-0.54"/>
      <point x="1199" y="-26" type="curve"/>
      <point x="1158.8" y="-47.44"/>
      <point x="1108.49" y="-70.75"/>
      <point x="1043.5" y="-87.5" type="curve" smooth="yes" name="inserted"/>
      <point x="978.51" y="-104.25"/>
      <point x="900.8" y="-115.0"/>
      <point x="807" y="-115" type="curve"/>
      <point x="591.26" y="-115.0"/>
      <point x="410.3" y="-51.26"/>
      <point x="283.0" y="68.0" type="curve" smooth="yes" name="inserted"/>
      <point x="155.7" y="187.26"/>
      <point x="85.96" y="354.92"/>
      <point x="94" y="572" type="curve"/>
      <point x="102.04" y="785.06"/>
      <point x="183.85" y="971.17"/>
      <point x="314.5" y="1104.5" type="curve" smooth="yes" name="inserted"/>
      <point x="445.15" y="1237.83"/>
      <point x="621.34" y="1317.0"/>
      <point x="821" y="1317" type="curve"/>
      <point x="1017.98" y="1317.0"/>
      <point x="1189.55" y="1261.86"/>
      <point x="1313.5" y="1156.0" type="curve" smooth="yes" name="inserted"/>
      <point x="1437.45" y="1050.14"/>
      <point x="1511.0" y="891.36"/>
    </contour>
  </outline>
</glyph>
<glyph name="B" format="1">
  <advance width="1256"/>
  <unicode hex="0042"/>
  <outline>
    <contour>
      <point x="367" y="825" type="line"/>
      <point x="600" y="825" type="line"/>
      <point x="715.24" y="825.0"/>
      <point x="791.76" y="847.8"/>
      <point x="840.0" y="888.0" type="curve" smooth="yes" name="inserted"/>
      <point x="888.24" y="928.2"/>
      <point x="908.0" y="987.6"/>
      <point x="908" y="1068" type="curve"/>
      <point x="908.0" y="1161.8"/>
      <point x="883.45" y="1212.67"/>
      <point x="826.5" y="1245.5" type="curve" smooth="yes" name="inserted"/>
      <point x="769.55" y="1278.33"/>
      <point x="681.96" y="1292.0"/>
      <point x="556" y="1292" type="curve"/>
      <point x="367" y="1292" type="line"/>
    </contour>
    <contour>
      <point x="978" y="417" type="curve"/>
      <point x="978.0" y="529.56"/>
      <point x="949.64" y="597.12"/>
      <point x="888.0" y="640.0" type="curve" smooth="yes" name="inserted"/>
      <point x="826.36" y="682.88"/>
      <point x="734.64" y="698.0"/>
      <point x="606" y="698" type="curve"/>
      <point x="367" y="698" type="line"/>
      <point x="367" y="144" type="line"/>
      <point x="609" y="144" type="line"/>
      <point x="730.94" y="144.0"/>
      <point x="823.36" y="156.31"/>
      <point x="885.0" y="194.5" type="curve" smooth="yes" name="inserted"/>
      <point x="946.64" y="232.69"/>
      <point x="978.0" y="299.08"/>
    </contour>
    <contour>
      <point x="1156" y="415" type="curve"/>
      <point x="1156.0" y="126.9"/>
      <point x="992.0" y="0.0"/>
      <point x="657" y="0" type="curve"/>
      <point x="186" y="0" type="line"/>
      <point x="186" y="1437" type="line"/>
      <point x="581" y="1437" type="line"/>
      <point x="767.26" y="1437.0"/>
      <point x="893.6" y="1410.3"/>
      <point x="974.0" y="1350.0" type="curve" smooth="yes" name="inserted"/>
      <point x="1054.4" y="1289.7"/>
      <point x="1088.0" y="1199.36"/>
      <point x="1088" y="1060" type="curve"/>
      <point x="1088.0" y="990.32"/>
      <point x="1068.65" y="935.54"/>
      <point x="1038.5" y="894.0" type="curve" smooth="yes" name="inserted"/>
      <point x="1008.35" y="852.46"/>
      <point x="970.69" y="820.76"/>
      <point x="932.5" y="802.0" type="curve" smooth="yes" name="inserted"/>
      <point x="894.31" y="783.24"/>
      <point x="857.46" y="774.68"/>
      <point x="832" y="772" type="curve"/>
      <point x="892.97" y="767.31" name="inserted"/>
      <point x="946.43" y="751.8"/>
      <point x="994" y="725" type="curve"/>
      <point x="1034.2" y="702.22"/>
      <point x="1075.35" y="668.41"/>
      <point x="1105.5" y="619.5" type="curve" smooth="yes" name="inserted"/>
      <point x="1135.65" y="570.59"/>
      <point x="1156.0" y="506.12"/>
    </contour>
  </outline>
</glyph>
<glyph name="C" format="1">
  <advance width="1164"/>
  <unicode hex="0043"/>
  <outline>
    <contour>
      <point x="120" y="721" type="curve" smooth="yes"/>
      <point x="120" y="-149"/>
      <point x="844" y="-70"/>
      <point x="1050" y="43" type="curve"/>
      <point x="1067" y="207" type="line"/>
      <point x="911" y="120"/>
      <point x="316" y="-40"/>
      <point x="316" y="721" type="curve" smooth="yes"/>
      <point x="316" y="1462" name="inserted"/>
      <point x="821" y="1327"/>
      <point x="1057" y="1235" type="curve"/>
      <point x="1040" y="1399" type="line"/>
      <point x="830" y="1492"/>
      <point x="120" y="1631"/>
    </contour>
  </outline>
</glyph>
<glyph name="D" format="1">
  <advance width="1385"/>
  <unicode hex="0044"/>
  <outline>
    <contour>
      <point x="575" y="144" type="line" smooth="yes"/>
      <point x="966" y="144"/>
      <point x="1069" y="276"/>
      <point x="1069" y="740" type="curve"/>
      <point x="1069" y="1117"/>
      <point x="978" y="1292"/>
      <point x="645" y="1292" type="curve" smooth="yes"/>
      <point x="385" y="1292" type="line"/>
      <point x="385" y="144" type="line"/>
    </contour>
    <contour>
      <point x="188" y="0" type="line"/>
      <point x="188" y="1437" type="line"/>
      <point x="601" y="1437" type="line" smooth="yes"/>
      <point x="940" y="1437"/>
      <point x="1265.0" y="1375.28397031"/>
      <point x="1265" y="748" type="curve"/>
      <point x="1265.0" y="291.240130184"/>
      <point x="1146" y="0"/>
      <point x="646" y="0" type="curve" smooth="yes"/>
    </contour>
  </outline>
</glyph>
<glyph name="E" format="1">
  <advance width="1091"/>
  <unicode hex="0045"/>
  <outline>
    <contour>
      <point x="186" y="0" type="line"/>
      <point x="186" y="1437" type="line"/>
      <point x="1002" y="1437" type="line"/>
      <point x="978" y="1292" type="line"/>
      <point x="375" y="1292" type="line"/>
      <point x="375" y="809" type="line"/>
      <point x="867" y="809" type="line"/>
      <point x="867" y="670" type="line"/>
      <point x="375" y="670" type="line"/>
      <point x="375" y="145" type="line"/>
      <point x="1000" y="145" type="line"/>
      <point x="977" y="0" type="line"/>
    </contour>
  </outline>
</glyph>
<glyph name="F" format="1">
  <advance width="1088"/>
  <unicode hex="0046"/>
  <outline>
    <contour>
      <point x="371" y="0" type="line"/>
      <point x="186" y="0" type="line"/>
      <point x="186" y="1437" type="line"/>
      <point x="1020" y="1437" type="line"/>
      <point x="996" y="1292" type="line"/>
      <point x="371" y="1292" type="line"/>
      <point x="371" y="820" type="line"/>
      <point x="926" y="820" type="line"/>
      <point x="926" y="672" type="line"/>
      <point x="371" y="672" type="line"/>
    </contour>
  </outline>
</glyph>
<glyph name="G" format="1">
  <advance width="1360"/>
  <unicode hex="0047"/>
  <outline>
    <contour>
      <point x="1108" y="4" type="line"/>
      <point x="1070" y="125" type="line"/>
      <point x="1019" y="61"/>
      <point x="912" y="-24"/>
      <point x="699" y="-24" type="curve" smooth="yes"/>
      <point x="373" y="-24"/>
      <point x="120" y="186"/>
      <point x="120" y="721" type="curve" smooth="yes"/>
      <point x="120" y="1298"/>
      <point x="424" y="1464"/>
      <point x="751" y="1464" type="curve" smooth="yes"/>
      <point x="919" y="1464"/>
      <point x="1042" y="1432"/>
      <point x="1128" y="1399" type="curve"/>
      <point x="1142" y="1240" type="line"/>
      <point x="1057" y="1273"/>
      <point x="934" y="1314"/>
      <point x="756" y="1314" type="curve" smooth="yes"/>
      <point x="472" y="1314"/>
      <point x="318" y="1137"/>
      <point x="318" y="749" type="curve" smooth="yes"/>
      <point x="318" y="332"/>
      <point x="431" y="127"/>
      <point x="717" y="127" type="curve" smooth="yes"/>
      <point x="891" y="127"/>
      <point x="997" y="199"/>
      <point x="1053" y="253" type="curve"/>
      <point x="1053" y="609" type="line"/>
      <point x="782" y="609" type="line"/>
      <point x="763" y="743" type="line"/>
      <point x="1212" y="743" type="line"/>
      <point x="1212" y="4" type="line"/>
    </contour>
  </outline>
</glyph>
<glyph name="H" format="1">
  <advance width="1451"/>
  <unicode hex="0048"/>
  <outline>
    <contour>
      <point x="1066" y="677" type="line"/>
      <point x="385" y="677" type="line"/>
      <point x="385" y="0" type="line"/>
      <point x="188" y="0" type="line"/>
      <point x="188" y="1437" type="line"/>
      <point x="385" y="1437" type="line"/>
      <point x="385" y="817" type="line"/>
      <point x="1066" y="817" type="line"/>
      <point x="1066" y="1437" type="line"/>
      <point x="1263" y="1437" type="line"/>
      <point x="1263" y="0" type="line"/>
      <point x="1066" y="0" type="line"/>
    </contour>
  </outline>
</glyph>
<glyph name="I" format="1">
  <advance width="561"/>
  <unicode hex="0049"/>
  <outline>
    <contour>
      <point x="189" y="0" type="line"/>
      <point x="189" y="1437" type="line"/>
      <point x="372" y="1437" type="line"/>
      <point x="372" y="0" type="line"/>
    </contour>
  </outline>
</glyph>
<glyph name="J" format="1">
  <advance width="706"/>
  <unicode hex="004A"/>
  <outline>
    <contour>
      <point x="59" y="-14" type="line"/>
      <point x="35" y="53" type="line"/>
      <point x="127.46" y="53.0"/>
      <point x="190.78" y="59.9"/>
      <point x="235.0" y="80.0" type="curve" smooth="yes" name="inserted"/>
      <point x="279.22" y="100.1"/>
      <point x="303.6" y="131.91"/>
      <point x="317.0" y="183.5" type="curve" smooth="yes" name="inserted"/>
      <point x="330.4" y="235.09"/>
      <point x="333.0" y="303.86"/>
      <point x="333" y="399" type="curve"/>
      <point x="333" y="1437" type="line"/>
      <point x="520" y="1437" type="line"/>
      <point x="516" y="308" type="line"/>
      <point x="516.0" y="198.12"/>
      <point x="497.15" y="101.68"/>
      <point x="433.5" y="32.0" type="curve" smooth="yes" name="inserted"/>
      <point x="369.85" y="-37.68"/>
      <point x="262.56" y="-81.0"/>
      <point x="83" y="-81" type="curve"/>
    </contour>
  </outline>
</glyph>
<glyph name="K" format="1">
  <advance width="1294"/>
  <unicode hex="004B"/>
  <outline>
    <contour>
      <point x="1222" y="1384" type="line"/>
      <point x="642" y="780" type="line"/>
      <point x="1274" y="47" type="line"/>
      <point x="1274" y="0" type="line"/>
      <point x="1082" y="0" type="line"/>
      <point x="513" y="672" type="line"/>
      <point x="371" y="530" type="line"/>
      <point x="371" y="0" type="line"/>
      <point x="186" y="0" type="line"/>
      <point x="186" y="1437" type="line"/>
      <point x="371" y="1437" type="line"/>
      <point x="371" y="740" type="line"/>
      <point x="1037" y="1437" type="line"/>
      <point x="1222" y="1437" type="line"/>
    </contour>
  </outline>
</glyph>
<glyph name="L" format="1">
  <advance width="987"/>
  <unicode hex="004C"/>
  <outline>
    <contour>
      <point x="186" y="0" type="line"/>
      <point x="186" y="1437" type="line"/>
      <point x="371" y="1437" type="line"/>
      <point x="371" y="142" type="line"/>
      <point x="959" y="142" type="line"/>
      <point x="942" y="0" type="line"/>
    </contour>
  </outline>
</glyph>
<glyph name="M" format="1">
  <advance width="1798"/>
  <unicode hex="004D"/>
  <outline>
    <contour>
      <point x="244" y="1437" type="line"/>
      <point x="518" y="1437" type="line"/>
      <point x="839" y="380" type="line"/>
      <point x="907" y="149" type="line"/>
      <point x="969" y="380" type="line"/>
      <point x="1291" y="1437" type="line"/>
      <point x="1565" y="1437" type="line"/>
      <point x="1618" y="0" type="line"/>
      <point x="1435" y="0" type="line"/>
      <point x="1404" y="988" type="line"/>
      <point x="1403" y="1286" type="line"/>
      <point x="1318" y="941" type="line"/>
      <point x="1023" y="32" type="line"/>
      <point x="786" y="32" type="line"/>
      <point x="491" y="941" type="line"/>
      <point x="407" y="1286" type="line"/>
      <point x="404" y="987" type="line"/>
      <point x="364" y="0" type="line"/>
      <point x="180" y="0" type="line"/>
    </contour>
  </outline>
</glyph>
<glyph name="N" format="1">
  <advance width="1489"/>
  <unicode hex="004E"/>
  <outline>
    <contour>
      <point x="362" y="1148" type="line"/>
      <point x="362" y="0" type="line"/>
      <point x="186" y="0" type="line"/>
      <point x="186" y="1437" type="line"/>
      <point x="376" y="1437" type="line"/>
      <point x="1127" y="289" type="line"/>
      <point x="1127" y="1437" type="line"/>
      <point x="1303" y="1437" type="line"/>
      <point x="1303" y="0" type="line"/>
      <point x="1121" y="1" type="line"/>
    </contour>
  </outline>
</glyph>
<glyph name="O" format="1">
  <advance width="1399"/>
  <unicode hex="004F"/>
  <outline>
    <contour>
      <point x="311" y="722" type="curve"/>
      <point x="311.0" y="533.06"/>
      <point x="338.02" y="386.01"/>
      <point x="401.0" y="283.5" type="curve" smooth="yes" name="inserted"/>
      <point x="463.98" y="180.99"/>
      <point x="558.64" y="127.0"/>
      <point x="698" y="127" type="curve"/>
      <point x="838.7" y="127.0"/>
      <point x="934.02" y="180.99"/>
      <point x="997.0" y="283.5" type="curve" smooth="yes" name="inserted"/>
      <point x="1059.98" y="386.01"/>
      <point x="1087.0" y="533.06"/>
      <point x="1087" y="722" type="curve"/>
      <point x="1087.0" y="909.6"/>
      <point x="1059.98" y="1056.16"/>
      <point x="997.0" y="1158.0" type="curve" smooth="yes" name="inserted"/>
      <point x="934.02" y="1259.84"/>
      <point x="838.7" y="1314.0"/>
      <point x="698" y="1314" type="curve"/>
      <point x="559.98" y="1314.0"/>
      <point x="463.81" y="1259.84"/>
      <point x="401.5" y="1158.0" type="curve" smooth="yes" name="inserted"/>
      <point x="339.19" y="1056.16"/>
      <point x="311.0" y="909.6"/>
    </contour>
    <contour>
      <point x="120" y="722" type="curve"/>
      <point x="120.0" y="1225.84"/>
      <point x="320.12" y="1464.0"/>
      <point x="698" y="1464" type="curve"/>
      <point x="1078.56" y="1464.0"/>
      <point x="1279.0" y="1225.84"/>
      <point x="1279" y="722" type="curve"/>
      <point x="1279.0" y="212.8"/>
      <point x="1078.56" y="-24.0"/>
      <point x="698" y="-24" type="curve"/>
      <point x="509.06" y="-24.0"/>
      <point x="365.82" y="35.55"/>
      <point x="268.0" y="159.5" type="curve" smooth="yes" name="inserted"/>
      <point x="170.18" y="283.45"/>
      <point x="120.0" y="467.4"/>
    </contour>
  </outline>
</glyph>
<glyph name="P" format="1">
  <advance width="1226"/>
  <unicode hex="0050"/>
  <outline>
    <contour>
      <point x="545" y="717" type="line"/>
      <point x="707.14" y="717.0"/>
      <point x="809.19" y="736.44"/>
      <point x="871.5" y="782.0" type="curve" smooth="yes" name="inserted"/>
      <point x="933.81" y="827.56"/>
      <point x="955.0" y="894.14"/>
      <point x="955" y="1000" type="curve"/>
      <point x="955.0" y="1125.96"/>
      <point x="935.32" y="1196.29"/>
      <point x="871.0" y="1238.5" type="curve" smooth="yes" name="inserted"/>
      <point x="806.68" y="1280.71"/>
      <point x="698.9" y="1293.0"/>
      <point x="518" y="1293" type="curve"/>
      <point x="371" y="1293" type="line"/>
      <point x="371" y="717" type="line"/>
    </contour>
    <contour>
      <point x="1148" y="998" type="curve"/>
      <point x="1148.0" y="834.52"/>
      <point x="1101.67" y="732.0"/>
      <point x="1000.5" y="665.0" type="curve" smooth="yes" name="inserted"/>
      <point x="899.33" y="598.0"/>
      <point x="746.08" y="571.0"/>
      <point x="529" y="571" type="curve"/>
      <point x="434" y="571" type="line"/>
      <point x="413.9" y="571.0" name="inserted"/>
      <point x="393.11" y="571.33"/>
      <point x="371" y="572" type="curve"/>
      <point x="371" y="0" type="line"/>
      <point x="186" y="0" type="line"/>
      <point x="186" y="1437" type="line"/>
      <point x="495" y="1437" type="line"/>
      <point x="754.96" y="1437.0"/>
      <point x="915.84" y="1411.34"/>
      <point x="1015.0" y="1343.0" type="curve" smooth="yes" name="inserted"/>
      <point x="1114.16" y="1274.66"/>
      <point x="1148.0" y="1168.18"/>
    </contour>
  </outline>
</glyph>
<glyph name="Q" format="1">
  <advance width="1395"/>
  <unicode hex="0051"/>
  <outline>
    <contour>
      <point x="120" y="722" type="curve"/>
      <point x="120.0" y="983.3"/>
      <point x="174.5" y="1169.23"/>
      <point x="275.0" y="1290.5" type="curve" smooth="yes" name="inserted"/>
      <point x="375.5" y="1411.77"/>
      <point x="517.78" y="1464.0"/>
      <point x="696" y="1464" type="curve"/>
      <point x="876.9" y="1464.0"/>
      <point x="1019.5" y="1411.77"/>
      <point x="1120.0" y="1290.5" type="curve" smooth="yes" name="inserted"/>
      <point x="1220.5" y="1169.23"/>
      <point x="1275.0" y="983.3"/>
      <point x="1275" y="722" type="curve"/>
      <point x="1275.0" y="484.82"/>
      <point x="1228.08" y="312.6"/>
      <point x="1145.0" y="192.0" type="curve" smooth="yes" name="inserted"/>
      <point x="1061.92" y="71.4"/>
      <point x="944.38" y="6.1"/>
      <point x="801" y="-14" type="curve"/>
      <point x="835.84" y="-42.14"/>
      <point x="884.7" y="-82.44"/>
      <point x="945.0" y="-128.0" type="curve" smooth="yes" name="inserted"/>
      <point x="1005.3" y="-173.56"/>
      <point x="1074.62" y="-219.44"/>
      <point x="1151" y="-265" type="curve"/>
      <point x="1151.0" y="-266.34"/>
      <point x="1140.4" y="-281.07"/>
      <point x="1127.0" y="-300.5" type="curve" smooth="yes" name="inserted"/>
      <point x="1113.6" y="-319.93"/>
      <point x="1096.4" y="-342.73"/>
      <point x="1083.0" y="-363.5" type="curve" smooth="yes" name="inserted"/>
      <point x="1069.6" y="-384.27"/>
      <point x="1059.0" y="-398.66"/>
      <point x="1059" y="-400" type="curve"/>
      <point x="958.5" y="-345.06"/>
      <point x="866.89" y="-279.0"/>
      <point x="788.5" y="-212.0" type="curve" smooth="yes" name="inserted"/>
      <point x="710.11" y="-145.0"/>
      <point x="645.56" y="-78.96"/>
      <point x="600" y="-20" type="curve"/>
      <point x="448.58" y="-1.24"/>
      <point x="330.08" y="65.89"/>
      <point x="247.0" y="188.5" type="curve" smooth="yes" name="inserted"/>
      <point x="163.92" y="311.11"/>
      <point x="120.0" y="486.16"/>
    </contour>
    <contour>
      <point x="311" y="722" type="curve"/>
      <point x="311.0" y="534.4"/>
      <point x="338.02" y="385.01"/>
      <point x="401.0" y="282.5" type="curve" smooth="yes" name="inserted"/>
      <point x="463.98" y="179.99"/>
      <point x="558.64" y="127.0"/>
      <point x="698" y="127" type="curve"/>
      <point x="836.02" y="127.0"/>
      <point x="932.19" y="179.99"/>
      <point x="994.5" y="282.5" type="curve" smooth="yes" name="inserted"/>
      <point x="1056.81" y="385.01"/>
      <point x="1084.0" y="534.4"/>
      <point x="1084" y="722" type="curve"/>
      <point x="1084.0" y="908.26"/>
      <point x="1055.81" y="1057.5"/>
      <point x="993.5" y="1158.0" type="curve" smooth="yes" name="inserted"/>
      <point x="931.19" y="1258.5"/>
      <point x="834.68" y="1314.0"/>
      <point x="698" y="1314" type="curve"/>
      <point x="559.98" y="1314.0"/>
      <point x="463.81" y="1258.5"/>
      <point x="401.5" y="1158.0" type="curve" smooth="yes" name="inserted"/>
      <point x="339.19" y="1057.5"/>
      <point x="311.0" y="908.26"/>
    </contour>
  </outline>
</glyph>
<glyph name="R" format="1">
  <advance width="1235"/>
  <unicode hex="0052"/>
  <outline>
    <contour>
      <point x="1165" y="0" type="line"/>
      <point x="984" y="0" type="line"/>
      <point x="574" y="600" type="line"/>
      <point x="374" y="600" type="line"/>
      <point x="374" y="0" type="line"/>
      <point x="186" y="0" type="line"/>
      <point x="186" y="1437" type="line"/>
      <point x="616" y="1437" type="line"/>
      <point x="775.46" y="1437.0"/>
      <point x="900.07" y="1419.47"/>
      <point x="986.5" y="1358.5" type="curve" smooth="yes" name="inserted"/>
      <point x="1072.93" y="1297.53"/>
      <point x="1119.0" y="1198.18"/>
      <point x="1119" y="1028" type="curve"/>
      <point x="1119.0" y="872.56"/>
      <point x="1073.17" y="777.47"/>
      <point x="1005.5" y="716.5" type="curve" smooth="yes" name="inserted"/>
      <point x="937.83" y="655.53"/>
      <point x="849.44" y="628.72"/>
      <point x="761" y="618" type="curve"/>
      <point x="1165" y="57" type="line"/>
    </contour>
    <contour>
      <point x="374" y="740" type="line"/>
      <point x="598" y="740" type="line"/>
      <point x="732.0" y="740.0"/>
      <point x="817.23" y="756.12"/>
      <point x="871.5" y="799.0" type="curve" smooth="yes" name="inserted"/>
      <point x="925.77" y="841.88"/>
      <point x="946.0" y="907.82"/>
      <point x="946" y="1011" type="curve"/>
      <point x="946.0" y="1135.62"/>
      <point x="924.79" y="1205.63"/>
      <point x="866.5" y="1246.5" type="curve" smooth="yes" name="inserted"/>
      <point x="808.21" y="1287.37"/>
      <point x="713.4" y="1299.0"/>
      <point x="566" y="1299" type="curve"/>
      <point x="374" y="1299" type="line"/>
    </contour>
  </outline>
</glyph>
<glyph name="U" format="1">
  <advance width="1436"/>
  <unicode hex="0055"/>
  <outline>
    <contour>
      <point x="720" y="127" type="curve"/>
      <point x="837.92" y="127.0"/>
      <point x="925.04" y="150.38"/>
      <point x="984.0" y="208.0" type="curve" smooth="yes" name="inserted"/>
      <point x="1042.96" y="265.62"/>
      <point x="1073.0" y="362.92"/>
      <point x="1073" y="513" type="curve"/>
      <point x="1073" y="1437" type="line"/>
      <point x="1263" y="1437" type="line"/>
      <point x="1263" y="500" type="line"/>
      <point x="1263.0" y="292.3"/>
      <point x="1206.65" y="163.23"/>
      <point x="1109.5" y="83.5" type="curve" smooth="yes" name="inserted"/>
      <point x="1012.35" y="3.77"/>
      <point x="877.78" y="-24.0"/>
      <point x="721" y="-24" type="curve"/>
      <point x="558.86" y="-24.0"/>
      <point x="422.65" y="4.43"/>
      <point x="325.5" y="85.5" type="curve" smooth="yes" name="inserted"/>
      <point x="228.35" y="166.57"/>
      <point x="173.0" y="295.98"/>
      <point x="173" y="501" type="curve"/>
      <point x="173" y="1437" type="line"/>
      <point x="364" y="1437" type="line"/>
      <point x="364" y="513" type="line"/>
      <point x="364.0" y="362.92"/>
      <point x="390.21" y="265.62"/>
      <point x="448.5" y="208.0" type="curve" smooth="yes" name="inserted"/>
      <point x="506.79" y="150.38"/>
      <point x="595.38" y="127.0"/>
    </contour>
  </outline>
</glyph>
<glyph name="X" format="1">
  <advance width="1120"/>
  <unicode hex="0058"/>
  <outline>
    <contour>
      <point x="494" y="484" type="line"/>
      <point x="269" y="0" type="line"/>
      <point x="61" y="0" type="line"/>
      <point x="419" y="728" type="line"/>
      <point x="64" y="1437" type="line"/>
      <point x="272" y="1437" type="line"/>
      <point x="494" y="953" type="line"/>
      <point x="560" y="809" type="line"/>
      <point x="626" y="953" type="line"/>
      <point x="848" y="1437" type="line"/>
      <point x="1057" y="1437" type="line"/>
      <point x="697" y="728" type="line"/>
      <point x="1059" y="0" type="line"/>
      <point x="851" y="0" type="line"/>
      <point x="626" y="485" type="line"/>
      <point x="560" y="626" type="line"/>
    </contour>
  </outline>
</glyph>
<glyph name="Y" format="1">
  <advance width="1133"/>
  <unicode hex="0059"/>
  <outline>
    <contour>
      <point x="899" y="1437" type="line"/>
      <point x="1107" y="1437" type="line"/>
      <point x="667" y="450" type="line"/>
      <point x="667" y="0" type="line"/>
      <point x="465" y="0" type="line"/>
      <point x="465" y="449" type="line"/>
      <point x="27" y="1437" type="line"/>
      <point x="237" y="1437" type="line"/>
      <point x="467" y="871" type="line"/>
      <point x="565" y="609" type="line"/>
      <point x="572" y="609" type="line"/>
      <point x="666" y="871" type="line"/>
    </contour>
  </outline>
</glyph>
<glyph name="Z" format="1">
  <advance width="1104"/>
  <unicode hex="005A"/>
  <outline>
    <contour>
      <point x="92" y="156" type="line"/>
      <point x="619" y="972" type="line"/>
      <point x="840" y="1292" type="line"/>
      <point x="638" y="1287" type="line"/>
      <point x="88" y="1287" type="line"/>
      <point x="112" y="1437" type="line"/>
      <point x="1004" y="1437" type="line"/>
      <point x="1020" y="1273" type="line"/>
      <point x="392" y="291" type="line"/>
      <point x="281" y="141" type="line"/>
      <point x="484" y="147" type="line"/>
      <point x="1006" y="147" type="line"/>
      <point x="983" y="0" type="line"/>
      <point x="107" y="0" type="line"/>
    </contour>
  </outline>
</glyph>
<glyph name="backslash" format="1">
  <advance width="698"/>
  <unicode hex="005C"/>
  <outline>
    <contour>
      <point x="238" y="1533" type="line"/>
      <point x="620" y="-179" type="line"/>
      <point x="461" y="-220" type="line"/>
      <point x="78" y="1492" type="line"/>
    </contour>
  </outline>
</glyph>
<glyph name="bracketright" format="1">
  <advance width="646"/>
  <unicode hex="005D"/>
  <outline>
    <contour>
      <point x="69" y="-218" type="line"/>
      <point x="69" y="-102" type="line"/>
      <point x="306" y="-102" type="line"/>
      <point x="300" y="337" type="line"/>
      <point x="300" y="966" type="line"/>
      <point x="306" y="1319" type="line"/>
      <point x="69" y="1319" type="line"/>
      <point x="69" y="1437" type="line"/>
      <point x="475" y="1437" type="line"/>
      <point x="475" y="-218" type="line"/>
    </contour>
  </outline>
</glyph>
<glyph name="asciicircum" format="1">
  <advance width="889"/>
  <unicode hex="005E"/>
  <outline>
    <contour>
      <point x="836" y="279" type="line"/>
      <point x="662" y="279" type="line"/>
      <point x="653.96" y="297.76"/>
      <point x="630.65" y="363.92"/>
      <point x="600.5" y="447.0" type="curve" smooth="yes" name="inserted"/>
      <point x="570.35" y="530.08"/>
      <point x="534.48" y="627.92"/>
      <point x="505.0" y="711.0" type="curve" smooth="yes" name="inserted"/>
      <point x="475.52" y="794.08"/>
      <point x="450.7" y="859.9"/>
      <point x="444" y="880" type="curve"/>
      <point x="438.64" y="865.26"/>
      <point x="422.93" y="825.11"/>
      <point x="403.5" y="769.5" type="curve" smooth="yes" name="inserted"/>
      <point x="384.07" y="713.89"/>
      <point x="360.29" y="647.34"/>
      <point x="335.5" y="579.0" type="curve" smooth="yes" name="inserted"/>
      <point x="310.71" y="510.66"/>
      <point x="286.93" y="442.77"/>
      <point x="267.5" y="388.5" type="curve" smooth="yes" name="inserted"/>
      <point x="248.07" y="334.23"/>
      <point x="233.36" y="292.4"/>
      <point x="228" y="279" type="curve"/>
      <point x="52" y="279" type="line"/>
      <point x="57.36" y="289.72"/>
      <point x="77.52" y="338.83"/>
      <point x="107.0" y="406.5" type="curve" smooth="yes" name="inserted"/>
      <point x="136.48" y="474.17"/>
      <point x="172.65" y="560.07"/>
      <point x="209.5" y="646.5" type="curve" smooth="yes" name="inserted"/>
      <point x="246.35" y="732.93"/>
      <point x="282.52" y="818.83"/>
      <point x="312.0" y="886.5" type="curve" smooth="yes" name="inserted"/>
      <point x="341.48" y="954.17"/>
      <point x="361.64" y="1002.28"/>
      <point x="367" y="1013" type="curve"/>
      <point x="522" y="1013" type="line"/>
    </contour>
  </outline>
</glyph>
<glyph name="grave" format="1">
  <advance width="378"/>
  <unicode hex="0060"/>
  <outline>
    <contour>
      <point x="302" y="1184" type="line"/>
      <point x="229" y="1184" type="line"/>
      <point x="9" y="1713" type="line"/>
      <point x="222" y="1735" type="line"/>
    </contour>
  </outline>
</glyph>
<glyph name="a" format="1">
  <advance width="1108"/>
  <unicode hex="0061"/>
  <outline>
    <contour>
      <point x="611" y="453" type="line"/>
      <point x="493" y="453"/>
      <point x="296" y="447"/>
      <point x="296" y="272" type="curve" smooth="yes"/>
      <point x="296" y="169"/>
      <point x="361" y="117"/>
      <point x="482" y="117" type="curve" smooth="yes"/>
      <point x="618" y="117"/>
      <point x="695" y="164"/>
      <point x="749" y="204" type="curve"/>
      <point x="749" y="447" type="line"/>
      <point x="700" y="450" type="line"/>
    </contour>
    <contour>
      <point x="933" y="221" type="line" smooth="yes"/>
      <point x="933" y="143"/>
      <point x="945" y="136"/>
      <point x="993" y="136" type="curve" smooth="yes"/>
      <point x="1008" y="136"/>
      <point x="1025" y="137"/>
      <point x="1039" y="137" type="curve"/>
      <point x="1025" y="2" type="line"/>
      <point x="1025" y="2"/>
      <point x="945" y="-3"/>
      <point x="914" y="-3" type="curve" smooth="yes"/>
      <point x="800" y="-3"/>
      <point x="763" y="80"/>
      <point x="763" y="117" type="curve"/>
      <point x="720" y="58"/>
      <point x="639" y="-18"/>
      <point x="421" y="-18" type="curve" smooth="yes"/>
      <point x="243" y="-18"/>
      <point x="123" y="96"/>
      <point x="123" y="275" type="curve" smooth="yes"/>
      <point x="123" y="514"/>
      <point x="349" y="568"/>
      <point x="581" y="568" type="curve" smooth="yes"/>
      <point x="628" y="568"/>
      <point x="659" y="564"/>
      <point x="694" y="561" type="curve"/>
      <point x="749" y="553" type="line"/>
      <point x="749" y="666" type="line" smooth="yes"/>
      <point x="749" y="879"/>
      <point x="689" y="912"/>
      <point x="518" y="912" type="curve" smooth="yes"/>
      <point x="384" y="912"/>
      <point x="269" y="875"/>
      <point x="190" y="845" type="curve"/>
      <point x="210" y="996" type="line"/>
      <point x="273" y="1023"/>
      <point x="370" y="1053"/>
      <point x="532" y="1053" type="curve" smooth="yes"/>
      <point x="856" y="1053"/>
      <point x="933" y="935"/>
      <point x="933" y="611" type="curve" smooth="yes"/>
    </contour>
  </outline>
</glyph>
<glyph name="b" format="1">
  <advance width="1125"/>
  <unicode hex="0062"/>
  <outline>
    <contour>
      <point x="152" y="0" type="line"/>
      <point x="152" y="1418" type="line"/>
      <point x="337" y="1437" type="line"/>
      <point x="337" y="956" type="line"/>
      <point x="361.12" y="972.08" name="inserted"/>
      <point x="388.18" y="986.27"/>
      <point x="419" y="999" type="curve"/>
      <point x="471.26" y="1021.78"/>
      <point x="543" y="1043"/>
      <point x="631" y="1043" type="curve"/>
      <point x="842" y="1043"/>
      <point x="1025" y="889"/>
      <point x="1025" y="510" type="curve"/>
      <point x="1025" y="117"/>
      <point x="813" y="-18"/>
      <point x="610" y="-18" type="curve"/>
      <point x="514" y="-18"/>
      <point x="440.92" y="10.18"/>
      <point x="390" y="41" type="curve"/>
      <point x="360.52" y="58.42" name="inserted"/>
      <point x="335.44" y="78.22"/>
      <point x="314" y="101" type="curve"/>
      <point x="288" y="-9" type="line"/>
    </contour>
    <contour>
      <point x="337" y="217" type="line"/>
      <point x="357.1" y="198.91" name="inserted"/>
      <point x="379.54" y="183.07"/>
      <point x="405" y="169" type="curve"/>
      <point x="447.88" y="144.88"/>
      <point x="508" y="122"/>
      <point x="582" y="122" type="curve"/>
      <point x="721" y="122"/>
      <point x="840" y="225"/>
      <point x="840" y="506" type="curve"/>
      <point x="840" y="759"/>
      <point x="758" y="901"/>
      <point x="595" y="901" type="curve"/>
      <point x="521" y="901"/>
      <point x="458.9" y="881.1"/>
      <point x="412" y="861" type="curve"/>
      <point x="385.2" y="848.94" name="inserted"/>
      <point x="360.45" y="836.07"/>
      <point x="337" y="822" type="curve"/>
    </contour>
  </outline>
</glyph>
<glyph name="c" format="1">
  <advance width="931"/>
  <unicode hex="0063"/>
  <outline>
    <contour>
      <point x="100" y="96"/>
      <point x="364" y="-18"/>
      <point x="579" y="-18" type="curve" smooth="yes"/>
      <point x="677" y="-18"/>
      <point x="764" y="6"/>
      <point x="812" y="35" type="curve"/>
      <point x="824" y="180" type="line"/>
      <point x="758" y="148"/>
      <point x="671" y="121"/>
      <point x="587" y="121" type="curve" smooth="yes"/>
      <point x="434" y="121"/>
      <point x="289" y="209"/>
      <point x="289" y="513" type="curve"/>
      <point x="289" y="817"/>
      <point x="430" y="900"/>
      <point x="581" y="900" type="curve" smooth="yes"/>
      <point x="666" y="900"/>
      <point x="755" y="874"/>
      <point x="824" y="846" type="curve"/>
      <point x="812" y="991" type="line"/>
      <point x="762" y="1018"/>
      <point x="669" y="1043"/>
      <point x="566" y="1043" type="curve" smooth="yes"/>
      <point x="354" y="1043"/>
      <point x="100" y="936"/>
      <point x="100" y="513" type="curve"/>
    </contour>
  </outline>
</glyph>
<glyph name="d" format="1">
  <advance width="1125"/>
  <unicode hex="0064"/>
  <outline>
    <contour>
      <point x="522" y="-18" type="curve"/>
      <point x="323" y="-18"/>
      <point x="100.0" y="116.892254789"/>
      <point x="100" y="507" type="curve"/>
      <point x="100.0" y="883.817717112"/>
      <point x="295" y="1043"/>
      <point x="513" y="1043" type="curve"/>
      <point x="648" y="1043" name="inserted"/>
      <point x="720.231914037" y="1004.55604751"/>
      <point x="790" y="966" type="curve"/>
      <point x="790" y="1418" type="line"/>
      <point x="973" y="1437" type="line"/>
      <point x="973" y="0" type="line"/>
      <point x="830" y="-8" type="line"/>
      <point x="798" y="102" type="line"/>
      <point x="742.837910884" y="39.4829656682"/>
      <point x="680" y="-18"/>
    </contour>
    <contour>
      <point x="551" y="122" type="curve"/>
      <point x="670" y="122" name="inserted"/>
      <point x="731.984401411" y="168.236351235"/>
      <point x="790" y="219" type="curve"/>
      <point x="790" y="833" type="line"/>
      <point x="721.177367422" y="868.341351865"/>
      <point x="659" y="901"/>
      <point x="542" y="901" type="curve"/>
      <point x="381" y="901"/>
      <point x="284.0" y="757.6"/>
      <point x="284" y="503" type="curve"/>
      <point x="284.0" y="223.944538717"/>
      <point x="414" y="122"/>
    </contour>
  </outline>
</glyph>
<glyph name="e" format="1">
  <advance width="1020"/>
  <unicode hex="0065"/>
  <outline>
    <contour>
      <point x="289" y="503" type="curve" smooth="yes"/>
      <point x="289" y="252"/>
      <point x="396" y="121"/>
      <point x="594" y="121" type="curve"/>
      <point x="714" y="121" name="inserted"/>
      <point x="810" y="154"/>
      <point x="880" y="181" type="curve"/>
      <point x="867.0" y="34.0" type="line"/>
      <point x="801.0" y="10.0"/>
      <point x="714.0" y="-18.0"/>
      <point x="586.0" y="-18.0" type="curve"/>
      <point x="262.0" y="-18.0"/>
      <point x="100" y="197"/>
      <point x="100.0" y="501.0" type="curve"/>
      <point x="100.0" y="890.0"/>
      <point x="307" y="1043"/>
      <point x="562" y="1043" type="curve"/>
      <point x="815" y="1043"/>
      <point x="923.0" y="871.0"/>
      <point x="928.0" y="687.0" type="curve"/>
      <point x="928.0" y="630.128631558"/>
      <point x="920" y="517"/>
      <point x="912" y="491" type="curve"/>
      <point x="197" y="491" type="line"/>
      <point x="197" y="603" type="line"/>
      <point x="767" y="603" type="line"/>
      <point x="797" y="794"/>
      <point x="705.0" y="906.0"/>
      <point x="571.0" y="906.0" type="curve"/>
      <point x="445.0" y="906.0"/>
      <point x="289" y="856"/>
    </contour>
  </outline>
</glyph>
<glyph name="f" format="1">
  <advance width="721"/>
  <unicode hex="0066"/>
  <outline>
    <contour>
      <point x="229" y="0" type="line"/>
      <point x="229" y="924" type="line"/>
      <point x="53" y="924" type="line"/>
      <point x="53" y="1028" type="line"/>
      <point x="230" y="1028" type="line"/>
      <point x="230" y="1063" type="line" smooth="yes"/>
      <point x="230" y="1441" name="inserted"/>
      <point x="461" y="1477"/>
      <point x="713" y="1398" type="curve"/>
      <point x="720" y="1261" type="line"/>
      <point x="535" y="1310"/>
      <point x="412" y="1309"/>
      <point x="412" y="1054" type="curve" smooth="yes"/>
      <point x="412" y="1028" type="line"/>
      <point x="685" y="1028" type="line"/>
      <point x="685" y="924" type="line"/>
      <point x="412" y="924" type="line"/>
      <point x="412" y="0" type="line"/>
    </contour>
  </outline>
</glyph>
<glyph name="g" format="1">
  <advance width="1110"/>
  <unicode hex="0067"/>
  <outline>
    <contour>
      <point x="285" y="520" type="curve"/>
      <point x="285" y="747"/>
      <point x="355" y="901"/>
      <point x="538" y="901" type="curve"/>
      <point x="653" y="901"/>
      <point x="717" y="860"/>
      <point x="777" y="822" type="curve"/>
      <point x="777" y="200" type="line"/>
      <point x="574" y="83"/>
      <point x="285" y="78"/>
    </contour>
    <contour>
      <point x="256" y="-427" type="line"/>
      <point x="647" y="-501"/>
      <point x="963.0" y="-532.418502203"/>
      <point x="963" y="127" type="curve" smooth="yes"/>
      <point x="963" y="1031" type="line"/>
      <point x="843" y="1031" type="line"/>
      <point x="810" y="932" type="line"/>
      <point x="770" y="964"/>
      <point x="684" y="1043"/>
      <point x="510" y="1043" type="curve"/>
      <point x="257" y="1043"/>
      <point x="100" y="883"/>
      <point x="100" y="509" type="curve"/>
      <point x="100" y="-97"/>
      <point x="645" y="-41"/>
      <point x="777" y="72" type="curve"/>
      <point x="777" y="39" type="line" smooth="yes"/>
      <point x="777.0" y="-392.731034483"/>
      <point x="586" y="-351"/>
      <point x="236" y="-273" type="curve"/>
    </contour>
  </outline>
</glyph>
<glyph name="h" format="1">
  <advance width="1138"/>
  <unicode hex="0068"/>
  <outline>
    <contour>
      <point x="302" y="922" type="line"/>
      <point x="366" y="970"/>
      <point x="492" y="1043"/>
      <point x="662" y="1043" type="curve"/>
      <point x="875" y="1043"/>
      <point x="995" y="931"/>
      <point x="995" y="624" type="curve" smooth="yes"/>
      <point x="995" y="0" type="line"/>
      <point x="810" y="0" type="line"/>
      <point x="810" y="584" type="line" smooth="yes"/>
      <point x="810" y="804"/>
      <point x="768" y="901"/>
      <point x="626" y="901" type="curve"/>
      <point x="508" y="901" name="inserted"/>
      <point x="412" y="856"/>
      <point x="331" y="808" type="curve"/>
    </contour>
    <contour>
      <point x="152" y="1419" type="line"/>
      <point x="337" y="1437" type="line"/>
      <point x="337" y="0" type="line"/>
      <point x="152" y="0" type="line"/>
    </contour>
  </outline>
</glyph>
<glyph name="j" format="1">
  <advance width="532"/>
  <unicode hex="006A"/>
  <outline>
    <contour>
      <point x="377" y="1028" type="line"/>
      <point x="377" y="133" type="line"/>
      <point x="377.0" y="24.46"/>
      <point x="355.6" y="-63.79"/>
      <point x="302.0" y="-139.5" type="curve" smooth="yes" name="inserted"/>
      <point x="248.4" y="-215.21"/>
      <point x="164.3" y="-276.42"/>
      <point x="37" y="-326" type="curve"/>
      <point x="-18" y="-203" type="line"/>
      <point x="61.06" y="-158.78"/>
      <point x="113.5" y="-118.77"/>
      <point x="147.0" y="-64.5" type="curve" smooth="yes" name="inserted"/>
      <point x="180.5" y="-10.23"/>
      <point x="194.0" y="55.52"/>
      <point x="194" y="152" type="curve"/>
      <point x="194" y="1028" type="line"/>
    </contour>
    <contour>
      <point x="381" y="1408" type="line"/>
      <point x="381" y="1226" type="line"/>
      <point x="189" y="1226" type="line"/>
      <point x="189" y="1408" type="line"/>
    </contour>
  </outline>
</glyph>
<glyph name="k" format="1">
  <advance width="1062"/>
  <unicode hex="006B"/>
  <outline>
    <contour>
      <point x="1025" y="0" type="line"/>
      <point x="835" y="0" type="line"/>
      <point x="415" y="486" type="line"/>
      <point x="337" y="415" type="line"/>
      <point x="337" y="0" type="line"/>
      <point x="152" y="0" type="line"/>
      <point x="152" y="1419" type="line"/>
      <point x="337" y="1437" type="line"/>
      <point x="337" y="564" type="line"/>
      <point x="806" y="1028" type="line"/>
      <point x="1001" y="1028" type="line"/>
      <point x="1001" y="989" type="line"/>
      <point x="568" y="558" type="line"/>
      <point x="1025" y="35" type="line"/>
    </contour>
  </outline>
</glyph>
<glyph name="m" format="1">
  <advance width="1660"/>
  <unicode hex="006D"/>
  <outline>
    <contour>
      <point x="327" y="808" type="line"/>
      <point x="404" y="856"/>
      <point x="473" y="901" name="inserted"/>
      <point x="585" y="901" type="curve"/>
      <point x="699" y="901"/>
      <point x="747" y="834"/>
      <point x="747" y="644" type="curve" smooth="yes"/>
      <point x="747" y="0" type="line"/>
      <point x="922" y="0" type="line"/>
      <point x="922" y="810" type="line"/>
      <point x="992" y="851"/>
      <point x="1074" y="901"/>
      <point x="1167" y="901" type="curve"/>
      <point x="1301" y="901"/>
      <point x="1342" y="804"/>
      <point x="1342" y="584" type="curve" smooth="yes"/>
      <point x="1342" y="0" type="line"/>
      <point x="1517" y="0" type="line"/>
      <point x="1517" y="624" type="line" smooth="yes"/>
      <point x="1517" y="931"/>
      <point x="1402" y="1043"/>
      <point x="1201" y="1043" type="curve"/>
      <point x="1045" y="1043"/>
      <point x="931" y="967"/>
      <point x="869" y="919" type="curve"/>
      <point x="815" y="1001"/>
      <point x="738" y="1043"/>
      <point x="627" y="1043" type="curve"/>
      <point x="466" y="1043"/>
      <point x="360" y="970"/>
      <point x="300" y="922" type="curve"/>
      <point x="274" y="1037" type="line"/>
      <point x="152" y="1025" type="line"/>
      <point x="152" y="0" type="line"/>
      <point x="327" y="0" type="line"/>
    </contour>
  </outline>
</glyph>
<glyph name="n" format="1">
  <advance width="1144"/>
  <unicode hex="006E"/>
  <outline>
    <contour>
      <point x="152" y="1025" type="line"/>
      <point x="281" y="1037" type="line"/>
      <point x="308" y="922" type="line"/>
      <point x="371.86396707" y="969.897975302"/>
      <point x="497.94569455" y="1043.0"/>
      <point x="668" y="1043" type="curve"/>
      <point x="880.627982965" y="1043.0"/>
      <point x="1001.0" y="930.889493133"/>
      <point x="1001" y="624" type="curve"/>
      <point x="1001" y="0" type="line"/>
      <point x="816" y="0" type="line"/>
      <point x="816" y="584" type="line"/>
      <point x="816.0" y="803.76"/>
      <point x="774.04" y="901.0"/>
      <point x="632" y="901" type="curve"/>
      <point x="514.146960877" y="901.0" name="inserted"/>
      <point x="418.150688308" y="855.952679454"/>
      <point x="337" y="808" type="curve"/>
      <point x="337" y="0" type="line"/>
      <point x="152" y="0" type="line"/>
    </contour>
  </outline>
</glyph>
<glyph name="o" format="1">
  <advance width="1107"/>
  <unicode hex="006F"/>
  <outline>
    <contour>
      <point x="554" y="1043" type="curve"/>
      <point x="863.206127686" y="1043.0"/>
      <point x="1007.0" y="835.899553476"/>
      <point x="1007" y="510" type="curve"/>
      <point x="1007.0" y="198.105123378"/>
      <point x="861.200398768" y="-18.0"/>
      <point x="554" y="-18" type="curve"/>
      <point x="244.128293417" y="-18.0"/>
      <point x="100.0" y="198.105123378"/>
      <point x="100" y="510" type="curve"/>
      <point x="100.0" y="835.899553476"/>
      <point x="242.105123378" y="1043.0"/>
    </contour>
    <contour>
      <point x="554" y="122" type="curve"/>
      <point x="754.365123147" y="122.0"/>
      <point x="821.0" y="283.475898619"/>
      <point x="821" y="512" type="curve"/>
      <point x="821.0" y="763.435614293"/>
      <point x="752.702796984" y="901.0"/>
      <point x="554" y="901" type="curve"/>
      <point x="351.225711212" y="901.0"/>
      <point x="287.0" y="761.734803521"/>
      <point x="287" y="512" type="curve"/>
      <point x="287.0" y="284.9195271"/>
      <point x="352.361087017" y="122.0"/>
    </contour>
  </outline>
</glyph>
<glyph name="p" format="1">
  <advance width="1120"/>
  <unicode hex="0070"/>
  <outline>
    <contour>
      <point x="272" y="1036" type="line"/>
      <point x="305" y="927" type="line"/>
      <point x="393.20111295" y="991.146263964"/>
      <point x="476" y="1043"/>
      <point x="643" y="1043" type="curve"/>
      <point x="874" y="1043"/>
      <point x="1020" y="880"/>
      <point x="1020" y="514" type="curve"/>
      <point x="1020" y="136"/>
      <point x="835" y="-18"/>
      <point x="625" y="-18" type="curve"/>
      <point x="480" y="-18" name="inserted"/>
      <point x="408.929019182" y="23.0473205455"/>
      <point x="337" y="71" type="curve"/>
      <point x="337" y="-399" type="line"/>
      <point x="152" y="-415" type="line"/>
      <point x="152" y="1025" type="line"/>
    </contour>
    <contour>
      <point x="337" y="198" type="line"/>
      <point x="401.225561092" y="159.464663345"/>
      <point x="463" y="122"/>
      <point x="581" y="122" type="curve"/>
      <point x="738" y="122"/>
      <point x="834" y="233"/>
      <point x="834" y="524" type="curve"/>
      <point x="834" y="789"/>
      <point x="750" y="901"/>
      <point x="608" y="901" type="curve"/>
      <point x="480" y="901" name="inserted"/>
      <point x="407.212741521" y="859.207840936"/>
      <point x="337" y="816" type="curve"/>
    </contour>
  </outline>
</glyph>
<glyph name="q" format="1">
  <advance width="1098"/>
  <unicode hex="0071"/>
  <outline>
    <contour>
      <point x="946" y="974" type="line"/>
      <point x="906" y="985"/>
      <point x="736" y="1043" name="inserted"/>
      <point x="530" y="1043" type="curve"/>
      <point x="280" y="1043"/>
      <point x="100" y="862"/>
      <point x="100" y="509" type="curve"/>
      <point x="100" y="147"/>
      <point x="293" y="-18"/>
      <point x="510" y="-18" type="curve"/>
      <point x="645" y="-18"/>
      <point x="720" y="34"/>
      <point x="761" y="71" type="curve"/>
      <point x="761" y="-417" type="line"/>
      <point x="946" y="-390" type="line"/>
    </contour>
    <contour>
      <point x="761" y="880" type="curve"/>
      <point x="761" y="196" type="line"/>
      <point x="696" y="158"/>
      <point x="647" y="122" name="inserted"/>
      <point x="551" y="122" type="curve"/>
      <point x="389" y="122"/>
      <point x="284" y="249"/>
      <point x="284" y="512" type="curve"/>
      <point x="284" y="817"/>
      <point x="412" y="901"/>
      <point x="564" y="901" type="curve"/>
      <point x="658" y="901"/>
      <point x="740" y="885"/>
    </contour>
  </outline>
</glyph>
<glyph name="r" format="1">
  <advance width="740"/>
  <unicode hex="0072"/>
  <outline>
    <contour>
      <point x="594" y="1043" type="curve"/>
      <point x="620.8" y="1043.0"/>
      <point x="646.9" y="1037.36"/>
      <point x="667" y="1032" type="curve"/>
      <point x="679.06" y="1028.65" name="inserted"/>
      <point x="689.95" y="1025.02"/>
      <point x="700" y="1021" type="curve"/>
      <point x="678" y="878" type="line"/>
      <point x="675.32" y="880.01" name="inserted"/>
      <point x="670.7" y="882.32"/>
      <point x="664" y="885" type="curve"/>
      <point x="653.28" y="887.68"/>
      <point x="634.16" y="892.0"/>
      <point x="602" y="892" type="curve"/>
      <point x="525.62" y="892.0"/>
      <point x="460.9" y="867.78"/>
      <point x="414" y="845" type="curve"/>
      <point x="386.53" y="831.6" name="inserted"/>
      <point x="361.78" y="816.42"/>
      <point x="339" y="799" type="curve"/>
      <point x="339" y="0" type="line"/>
      <point x="154" y="0" type="line"/>
      <point x="154" y="1025" type="line"/>
      <point x="283" y="1035" type="line"/>
      <point x="318" y="917" type="line"/>
      <point x="395.72" y="997.4"/>
      <point x="492.16" y="1043.0"/>
    </contour>
  </outline>
</glyph>
<glyph name="s" format="1">
  <advance width="913"/>
  <unicode hex="0073"/>
  <outline>
    <contour>
      <point x="104" y="979"/>
      <point x="297" y="1043"/>
      <point x="491" y="1043" type="curve" smooth="yes"/>
      <point x="587" y="1043"/>
      <point x="684" y="1026"/>
      <point x="755" y="1001" type="curve"/>
      <point x="775" y="854" type="line"/>
      <point x="728" y="868"/>
      <point x="603" y="899"/>
      <point x="492" y="899" type="curve" smooth="yes"/>
      <point x="372" y="899"/>
      <point x="275" y="883"/>
      <point x="275" y="773" type="curve" smooth="yes"/>
      <point x="275" y="684"/>
      <point x="315" y="660"/>
      <point x="521" y="607" type="curve" smooth="yes"/>
      <point x="754" y="547"/>
      <point x="841" y="464"/>
      <point x="841" y="282" type="curve" smooth="yes"/>
      <point x="841" y="67"/>
      <point x="657" y="-19"/>
      <point x="446" y="-19" type="curve" smooth="yes"/>
      <point x="342" y="-19"/>
      <point x="233" y="2"/>
      <point x="134" y="38" type="curve"/>
      <point x="115" y="189" type="line"/>
      <point x="156" y="172"/>
      <point x="304" y="126"/>
      <point x="435" y="126" type="curve" smooth="yes"/>
      <point x="560" y="126"/>
      <point x="667" y="155"/>
      <point x="667" y="285" type="curve" smooth="yes"/>
      <point x="667" y="379"/>
      <point x="617" y="413"/>
      <point x="412" y="465" type="curve" smooth="yes"/>
      <point x="213" y="515"/>
      <point x="104" y="583"/>
      <point x="104" y="777" type="curve" smooth="yes"/>
    </contour>
  </outline>
</glyph>
<glyph name="t" format="1">
  <advance width="738"/>
  <unicode hex="0074"/>
  <outline>
    <contour>
      <point x="394" y="-47"/>
      <point x="210" y="-13"/>
      <point x="210" y="314" type="curve" smooth="yes"/>
      <point x="210" y="918" type="line"/>
      <point x="68" y="918" type="line"/>
      <point x="68" y="1028" type="line"/>
      <point x="217" y="1028" type="line"/>
      <point x="243" y="1345" type="line"/>
      <point x="392" y="1374" type="line"/>
      <point x="392" y="1028" type="line"/>
      <point x="648" y="1028" type="line"/>
      <point x="648" y="918" type="line"/>
      <point x="395" y="918" type="line"/>
      <point x="395" y="295" type="line" smooth="yes"/>
      <point x="395" y="123" name="inserted"/>
      <point x="469" y="114"/>
      <point x="644" y="140" type="curve"/>
      <point x="638" y="0" type="line"/>
    </contour>
  </outline>
</glyph>
<glyph name="u" format="1">
  <advance width="1144"/>
  <unicode hex="0075"/>
  <outline>
    <contour>
      <point x="992" y="0" type="line"/>
      <point x="858" y="-11" type="line"/>
      <point x="833" y="118" type="line"/>
      <point x="761.696095295" y="48.5244005435"/>
      <point x="658" y="-18"/>
      <point x="478" y="-18" type="curve"/>
      <point x="245" y="-18"/>
      <point x="143.0" y="123.1"/>
      <point x="143" y="438" type="curve"/>
      <point x="143" y="1028" type="line"/>
      <point x="327" y="1028" type="line"/>
      <point x="327" y="445" type="line"/>
      <point x="327.0" y="211.154709283"/>
      <point x="374.030697997" y="122.0"/>
      <point x="521" y="122" type="curve"/>
      <point x="655.004052357" y="122.0" name="inserted"/>
      <point x="743.624884849" y="168.110625455"/>
      <point x="807" y="217" type="curve"/>
      <point x="807" y="1028" type="line"/>
      <point x="992" y="1028" type="line"/>
    </contour>
  </outline>
</glyph>
<glyph name="v" format="1">
  <advance width="965"/>
  <unicode hex="0076"/>
  <outline>
    <contour>
      <point x="373" y="0" type="line"/>
      <point x="34" y="1028" type="line"/>
      <point x="228" y="1028" type="line"/>
      <point x="485" y="149" type="line"/>
      <point x="742" y="1028" type="line"/>
      <point x="931" y="1028" type="line"/>
      <point x="594" y="0" type="line"/>
    </contour>
  </outline>
</glyph>
<glyph name="w" format="1">
  <advance width="1485"/>
  <unicode hex="0077"/>
  <outline>
    <contour>
      <point x="567" y="0" type="line"/>
      <point x="321" y="0" type="line"/>
      <point x="64" y="1028" type="line"/>
      <point x="264" y="1028" type="line"/>
      <point x="451" y="93" type="line"/>
      <point x="618" y="1014" type="line"/>
      <point x="853" y="1014" type="line"/>
      <point x="1051" y="93" type="line"/>
      <point x="1213" y="1028" type="line"/>
      <point x="1414" y="1028" type="line"/>
      <point x="1175" y="0" type="line"/>
      <point x="931" y="0" type="line"/>
      <point x="735" y="880" type="line"/>
    </contour>
  </outline>
</glyph>
<glyph name="x" format="1">
  <advance width="997"/>
  <unicode hex="0078"/>
  <outline>
    <contour>
      <point x="395" y="516" type="line"/>
      <point x="53" y="1028" type="line"/>
      <point x="247" y="1028" type="line"/>
      <point x="499" y="620" type="line"/>
      <point x="749" y="1028" type="line"/>
      <point x="945" y="1028" type="line"/>
      <point x="601" y="516" type="line"/>
      <point x="945" y="0" type="line"/>
      <point x="738" y="0" type="line"/>
      <point x="499" y="405" type="line"/>
      <point x="258" y="0" type="line"/>
      <point x="53" y="0" type="line"/>
    </contour>
  </outline>
</glyph>
<glyph name="y" format="1">
  <advance width="979"/>
  <unicode hex="0079"/>
  <outline>
    <contour>
      <point x="491" y="136" type="line"/>
      <point x="738" y="1028" type="line"/>
      <point x="934" y="1028" type="line"/>
      <point x="581" y="-60" type="line"/>
      <point x="542.14" y="-179.26"/>
      <point x="513.03" y="-271.02"/>
      <point x="473.5" y="-334.0" type="curve" smooth="yes" name="inserted"/>
      <point x="433.97" y="-396.98"/>
      <point x="386.04" y="-429.0"/>
      <point x="311" y="-429" type="curve"/>
      <point x="227.92" y="-429.0"/>
      <point x="159.58" y="-410.1"/>
      <point x="110" y="-390" type="curve"/>
      <point x="81.19" y="-378.61" name="inserted"/>
      <point x="55.45" y="-365.74"/>
      <point x="32" y="-351" type="curve"/>
      <point x="45" y="-225" type="line"/>
      <point x="71.8" y="-235.72" name="inserted"/>
      <point x="98.2" y="-244.63"/>
      <point x="125" y="-252" type="curve"/>
      <point x="171.9" y="-265.4"/>
      <point x="228.08" y="-278.0"/>
      <point x="279" y="-278" type="curve"/>
      <point x="308.48" y="-278.0"/>
      <point x="327.43" y="-266.27"/>
      <point x="341.5" y="-245.5" type="curve" smooth="yes" name="inserted"/>
      <point x="355.57" y="-224.73"/>
      <point x="364.28" y="-194.2"/>
      <point x="375" y="-154" type="curve"/>
      <point x="399" y="-47" type="line"/>
      <point x="43" y="1028" type="line"/>
      <point x="242" y="1028" type="line"/>
    </contour>
  </outline>
</glyph>
<glyph name="z" format="1">
  <advance width="862"/>
  <unicode hex="007A"/>
  <outline>
    <contour>
      <point x="795" y="885" type="line"/>
      <point x="286" y="134" type="line"/>
      <point x="465" y="138" type="line"/>
      <point x="783" y="138" type="line"/>
      <point x="783" y="0" type="line"/>
      <point x="102" y="0" type="line"/>
      <point x="102" y="153" type="line"/>
      <point x="604" y="893" type="line"/>
      <point x="382" y="888" type="line"/>
      <point x="118" y="888" type="line"/>
      <point x="118" y="1028" type="line"/>
      <point x="764" y="1028" type="line"/>
    </contour>
  </outline>
</glyph>
<glyph name="braceleft" format="1">
  <advance width="608"/>
  <unicode hex="007B"/>
  <outline>
    <contour>
      <point x="74" y="657" type="line"/>
      <point x="199" y="752" type="line"/>
      <point x="199.0" y="938.26"/>
      <point x="207.73" y="1071.18"/>
      <point x="228.5" y="1169.0" type="curve" smooth="yes" name="inserted"/>
      <point x="249.27" y="1266.82"/>
      <point x="281.59" y="1326.82"/>
      <point x="330.5" y="1363.0" type="curve" smooth="yes" name="inserted"/>
      <point x="379.41" y="1399.18"/>
      <point x="442.92" y="1410.66"/>
      <point x="526" y="1412" type="curve"/>
      <point x="526" y="1322" type="line"/>
      <point x="476.42" y="1322.0"/>
      <point x="443.61" y="1312.33"/>
      <point x="421.5" y="1279.5" type="curve" smooth="yes" name="inserted"/>
      <point x="399.39" y="1246.67"/>
      <point x="388.53" y="1192.12"/>
      <point x="382.5" y="1101.0" type="curve" smooth="yes" name="inserted"/>
      <point x="376.47" y="1009.88"/>
      <point x="377.0" y="883.54"/>
      <point x="377" y="708" type="curve"/>
      <point x="211" y="605" type="line"/>
      <point x="377" y="497" type="line"/>
      <point x="377.0" y="321.46"/>
      <point x="376.47" y="196.12"/>
      <point x="382.5" y="105.0" type="curve" smooth="yes" name="inserted"/>
      <point x="388.53" y="13.88"/>
      <point x="399.39" y="-40.67"/>
      <point x="421.5" y="-73.5" type="curve" smooth="yes" name="inserted"/>
      <point x="443.61" y="-106.33"/>
      <point x="476.42" y="-116.0"/>
      <point x="526" y="-116" type="curve"/>
      <point x="526" y="-206" type="line"/>
      <point x="442.92" y="-204.66"/>
      <point x="379.41" y="-193.18"/>
      <point x="330.5" y="-157.0" type="curve" smooth="yes" name="inserted"/>
      <point x="281.59" y="-120.82"/>
      <point x="249.27" y="-60.82"/>
      <point x="228.5" y="37.0" type="curve" smooth="yes" name="inserted"/>
      <point x="207.73" y="134.82"/>
      <point x="199.0" y="267.74"/>
      <point x="199" y="454" type="curve"/>
      <point x="74" y="550" type="line"/>
    </contour>
  </outline>
</glyph>
<glyph name="bar" format="1">
  <advance width="533"/>
  <unicode hex="007C"/>
  <outline>
    <contour>
      <point x="173" y="-131" type="line"/>
      <point x="173" y="1473" type="line"/>
      <point x="361" y="1473" type="line"/>
      <point x="361" y="-131" type="line"/>
    </contour>
  </outline>
</glyph>
<glyph name="braceright" format="1">
  <advance width="608"/>
  <unicode hex="007D"/>
  <outline>
    <contour>
      <point x="535" y="550" type="line"/>
      <point x="409" y="454" type="line"/>
      <point x="409.0" y="267.74"/>
      <point x="400.27" y="134.82"/>
      <point x="379.5" y="37.0" type="curve" smooth="yes" name="inserted"/>
      <point x="358.73" y="-60.82"/>
      <point x="326.41" y="-120.82"/>
      <point x="277.5" y="-157.0" type="curve" smooth="yes" name="inserted"/>
      <point x="228.59" y="-193.18"/>
      <point x="165.08" y="-204.66"/>
      <point x="82" y="-206" type="curve"/>
      <point x="82" y="-116" type="line"/>
      <point x="131.58" y="-116.0"/>
      <point x="164.39" y="-106.33"/>
      <point x="186.5" y="-73.5" type="curve" smooth="yes" name="inserted"/>
      <point x="208.61" y="-40.67"/>
      <point x="218.47" y="13.88"/>
      <point x="224.5" y="105.0" type="curve" smooth="yes" name="inserted"/>
      <point x="230.53" y="196.12"/>
      <point x="230.0" y="321.46"/>
      <point x="230" y="497" type="curve"/>
      <point x="397" y="605" type="line"/>
      <point x="230" y="708" type="line"/>
      <point x="230.0" y="883.54"/>
      <point x="230.53" y="1009.88"/>
      <point x="224.5" y="1101.0" type="curve" smooth="yes" name="inserted"/>
      <point x="218.47" y="1192.12"/>
      <point x="208.61" y="1246.67"/>
      <point x="186.5" y="1279.5" type="curve" smooth="yes" name="inserted"/>
      <point x="164.39" y="1312.33"/>
      <point x="131.58" y="1322.0"/>
      <point x="82" y="1322" type="curve"/>
      <point x="82" y="1412" type="line"/>
      <point x="165.08" y="1410.66"/>
      <point x="228.59" y="1399.18"/>
      <point x="277.5" y="1363.0" type="curve" smooth="yes" name="inserted"/>
      <point x="326.41" y="1326.82"/>
      <point x="358.73" y="1266.82"/>
      <point x="379.5" y="1169.0" type="curve" smooth="yes" name="inserted"/>
      <point x="400.27" y="1071.18"/>
      <point x="409.0" y="938.26"/>
      <point x="409" y="752" type="curve"/>
      <point x="535" y="657" type="line"/>
    </contour>
  </outline>
</glyph>
<glyph name="asciitilde" format="1">
  <advance width="893"/>
  <unicode hex="007E"/>
  <outline>
    <contour>
      <point x="562" y="617" type="curve"/>
      <point x="579.42" y="612.98" name="inserted"/>
      <point x="592.95" y="614.63"/>
      <point x="603" y="622" type="curve"/>
      <point x="623.1" y="636.74"/>
      <point x="627.66" y="670.16"/>
      <point x="629" y="705" type="curve"/>
      <point x="760" y="705" type="line"/>
      <point x="761.34" y="625.94"/>
      <point x="741.31" y="574.5"/>
      <point x="712.5" y="541.0" type="curve" smooth="yes" name="inserted"/>
      <point x="683.69" y="507.5"/>
      <point x="645.18" y="492.34"/>
      <point x="609" y="491" type="curve"/>
      <point x="595.6" y="489.66"/>
      <point x="582.74" y="490.32"/>
      <point x="568" y="493" type="curve"/>
      <point x="522.44" y="498.36"/>
      <point x="475.88" y="522.88"/>
      <point x="433.0" y="547.0" type="curve" smooth="yes" name="inserted"/>
      <point x="390.12" y="571.12"/>
      <point x="350.48" y="593.66"/>
      <point x="321" y="595" type="curve"/>
      <point x="300.9" y="595.0"/>
      <point x="287.04" y="583.59"/>
      <point x="279.0" y="565.5" type="curve" smooth="yes" name="inserted"/>
      <point x="270.96" y="547.41"/>
      <point x="268.0" y="523.46"/>
      <point x="268" y="498" type="curve"/>
      <point x="136" y="498" type="line"/>
      <point x="134.66" y="585.1"/>
      <point x="156.67" y="641.33"/>
      <point x="189.5" y="675.5" type="curve" smooth="yes" name="inserted"/>
      <point x="222.33" y="709.67"/>
      <point x="266.78" y="722.34"/>
      <point x="311" y="721" type="curve"/>
      <point x="360.58" y="718.32"/>
      <point x="407.12" y="695.12"/>
      <point x="450.0" y="671.0" type="curve" smooth="yes" name="inserted"/>
      <point x="492.88" y="646.88"/>
      <point x="529.84" y="622.36"/>
    </contour>
  </outline>
</glyph>
<glyph name="cent" format="1">
  <advance width="981"/>
  <unicode hex="00A2"/>
  <outline>
    <contour>
      <point x="562" y="-129" type="line"/>
      <point x="500" y="-129" type="line"/>
      <point x="528" y="1161" type="line"/>
      <point x="588" y="1161" type="line"/>
    </contour>
    <contour>
      <point x="97" y="504" type="curve"/>
      <point x="97.0" y="705.0"/>
      <point x="155.73" y="836.92"/>
      <point x="243.5" y="920.0" type="curve" smooth="yes" name="inserted"/>
      <point x="331.27" y="1003.08"/>
      <point x="443.78" y="1036.34"/>
      <point x="555" y="1035" type="curve"/>
      <point x="648.8" y="1035.0"/>
      <point x="733.36" y="1010.41"/>
      <point x="795.0" y="961.5" type="curve" smooth="yes" name="inserted"/>
      <point x="856.64" y="912.59"/>
      <point x="891.7" y="840.48"/>
      <point x="885" y="744" type="curve"/>
      <point x="733" y="750" type="line"/>
      <point x="734.34" y="853.18"/>
      <point x="669.9" y="894.34"/>
      <point x="556" y="893" type="curve"/>
      <point x="475.6" y="891.66"/>
      <point x="409.24" y="868.3"/>
      <point x="361.0" y="808.0" type="curve" smooth="yes" name="inserted"/>
      <point x="312.76" y="747.7"/>
      <point x="286.0" y="651.72"/>
      <point x="286" y="507" type="curve"/>
      <point x="286.0" y="360.94"/>
      <point x="310.76" y="261.98"/>
      <point x="359.0" y="199.0" type="curve" smooth="yes" name="inserted"/>
      <point x="407.24" y="136.02"/>
      <point x="477.22" y="109.0"/>
      <point x="567" y="109" type="curve"/>
      <point x="646.06" y="109.0"/>
      <point x="718.23" y="126.58"/>
      <point x="772.5" y="144.0" type="curve" smooth="yes" name="inserted"/>
      <point x="826.77" y="161.42"/>
      <point x="860.0" y="179.0"/>
      <point x="860" y="179" type="curve"/>
      <point x="834" y="42" type="line"/>
      <point x="817.92" y="31.28"/>
      <point x="784.41" y="14.91"/>
      <point x="735.5" y="-0.5" type="curve" smooth="yes" name="inserted"/>
      <point x="686.59" y="-15.91"/>
      <point x="623.36" y="-28.0"/>
      <point x="551" y="-28" type="curve"/>
      <point x="477.3" y="-28.0"/>
      <point x="403.0" y="-13.67"/>
      <point x="336.0" y="20.5" type="curve" smooth="yes" name="inserted"/>
      <point x="269.0" y="54.67"/>
      <point x="208.88" y="106.77"/>
      <point x="166.0" y="186.5" type="curve" smooth="yes" name="inserted"/>
      <point x="123.12" y="266.23"/>
      <point x="97.0" y="368.66"/>
    </contour>
  </outline>
</glyph>
<glyph name="sterling" format="1">
  <advance width="994"/>
  <unicode hex="00A3"/>
  <outline>
    <contour>
      <point x="874" y="-3" type="line"/>
      <point x="89" y="-3" type="line"/>
      <point x="89" y="140" type="line"/>
      <point x="185" y="140" type="line"/>
      <point x="201.75" y="158.76" name="inserted"/>
      <point x="216.27" y="191.1"/>
      <point x="229" y="238" type="curve"/>
      <point x="239.72" y="278.2"/>
      <point x="250.79" y="331.96"/>
      <point x="259.5" y="407.0" type="curve" smooth="yes" name="inserted"/>
      <point x="268.21" y="482.04"/>
      <point x="274.0" y="576.4"/>
      <point x="274" y="697" type="curve"/>
      <point x="108" y="697" type="line"/>
      <point x="108" y="814" type="line"/>
      <point x="274" y="814" type="line"/>
      <point x="274" y="1059" type="line"/>
      <point x="274.0" y="1179.6"/>
      <point x="300.55" y="1278.49"/>
      <point x="357.5" y="1347.5" type="curve" smooth="yes" name="inserted"/>
      <point x="414.45" y="1416.51"/>
      <point x="501.06" y="1454.34"/>
      <point x="623" y="1453" type="curve"/>
      <point x="694.02" y="1451.66"/>
      <point x="753.78" y="1438.74"/>
      <point x="798" y="1424" type="curve"/>
      <point x="824.13" y="1415.96" name="inserted"/>
      <point x="847.23" y="1406.72"/>
      <point x="868" y="1396" type="curve"/>
      <point x="868" y="1257" type="line"/>
      <point x="847.23" y="1265.04" name="inserted"/>
      <point x="825.78" y="1272.63"/>
      <point x="803" y="1280" type="curve"/>
      <point x="764.14" y="1292.06"/>
      <point x="710.28" y="1302.66"/>
      <point x="654" y="1304" type="curve"/>
      <point x="545.46" y="1304.0"/>
      <point x="497.44" y="1261.25"/>
      <point x="476.0" y="1177.5" type="curve" smooth="yes" name="inserted"/>
      <point x="454.56" y="1093.75"/>
      <point x="460.0" y="972.12"/>
      <point x="460" y="814" type="curve"/>
      <point x="821" y="814" type="line"/>
      <point x="821" y="697" type="line"/>
      <point x="460" y="697" type="line"/>
      <point x="460.0" y="569.7"/>
      <point x="452.72" y="472.38"/>
      <point x="442.0" y="396.0" type="curve" smooth="yes" name="inserted"/>
      <point x="431.28" y="319.62"/>
      <point x="416.4" y="266.52"/>
      <point x="403" y="229" type="curve"/>
      <point x="386.25" y="184.11" name="inserted"/>
      <point x="367.77" y="155.07"/>
      <point x="347" y="141" type="curve"/>
      <point x="885" y="141" type="line"/>
    </contour>
  </outline>
</glyph>
<glyph name="currency" format="1">
  <advance width="1184"/>
  <unicode hex="00A4"/>
  <outline>
    <contour>
      <point x="591" y="1354" type="curve"/>
      <point x="699.54" y="1354.0"/>
      <point x="779.68" y="1326.56"/>
      <point x="844" y="1281" type="curve"/>
      <point x="970" y="1409" type="line"/>
      <point x="1040" y="1337" type="line"/>
      <point x="916" y="1213" type="line"/>
      <point x="977.64" y="1137.96"/>
      <point x="1005.0" y="1044.16"/>
      <point x="1005" y="945" type="curve"/>
      <point x="1005.0" y="847.18"/>
      <point x="979.3" y="755.7"/>
      <point x="919" y="682" type="curve"/>
      <point x="1040" y="560" type="line"/>
      <point x="973" y="490" type="line"/>
      <point x="850" y="613" type="line"/>
      <point x="785.68" y="564.76"/>
      <point x="702.22" y="536.0"/>
      <point x="591" y="536" type="curve"/>
      <point x="479.78" y="536.0"/>
      <point x="396.66" y="565.1"/>
      <point x="331" y="612" type="curve"/>
      <point x="211" y="490" type="line"/>
      <point x="145" y="560" type="line"/>
      <point x="262" y="679" type="line"/>
      <point x="201.7" y="754.04"/>
      <point x="175.0" y="847.18"/>
      <point x="175" y="945" type="curve"/>
      <point x="175.0" y="1045.5"/>
      <point x="202.02" y="1139.96"/>
      <point x="265" y="1215" type="curve"/>
      <point x="145" y="1337" type="line"/>
      <point x="215" y="1409" type="line"/>
      <point x="338" y="1283" type="line"/>
      <point x="402.32" y="1327.22"/>
      <point x="482.46" y="1354.0"/>
    </contour>
    <contour>
      <point x="591" y="677" type="curve"/>
      <point x="684.8" y="677.0"/>
      <point x="748.46" y="709.25"/>
      <point x="790.0" y="759.5" type="curve" smooth="yes" name="inserted"/>
      <point x="831.54" y="809.75"/>
      <point x="849.0" y="875.32"/>
      <point x="849" y="945" type="curve"/>
      <point x="849.0" y="1013.34"/>
      <point x="831.37" y="1079.42"/>
      <point x="790.5" y="1129.0" type="curve" smooth="yes" name="inserted"/>
      <point x="749.63" y="1178.58"/>
      <point x="684.8" y="1211.0"/>
      <point x="591" y="1211" type="curve"/>
      <point x="495.86" y="1211.0"/>
      <point x="431.37" y="1178.58"/>
      <point x="390.5" y="1129.0" type="curve" smooth="yes" name="inserted"/>
      <point x="349.63" y="1079.42"/>
      <point x="332.0" y="1013.34"/>
      <point x="332" y="945" type="curve"/>
      <point x="332.0" y="875.32"/>
      <point x="349.46" y="809.75"/>
      <point x="391.0" y="759.5" type="curve" smooth="yes" name="inserted"/>
      <point x="432.54" y="709.25"/>
      <point x="495.86" y="677.0"/>
    </contour>
  </outline>
</glyph>
<glyph name="yen" format="1">
  <advance width="1061"/>
  <unicode hex="00A5"/>
  <outline>
    <contour>
      <point x="170" y="550" type="line"/>
      <point x="406" y="550" type="line"/>
      <point x="400.64" y="560.72"/>
      <point x="377.16" y="616.11"/>
      <point x="345.0" y="694.5" type="curve" smooth="yes" name="inserted"/>
      <point x="312.84" y="772.89"/>
      <point x="271.54" y="873.33"/>
      <point x="230.0" y="974.5" type="curve" smooth="yes" name="inserted"/>
      <point x="188.46" y="1075.67"/>
      <point x="147.16" y="1175.11"/>
      <point x="115.0" y="1253.5" type="curve" smooth="yes" name="inserted"/>
      <point x="82.84" y="1331.89"/>
      <point x="60.36" y="1387.28"/>
      <point x="55" y="1398" type="curve"/>
      <point x="246" y="1398" type="line"/>
      <point x="447" y="879" type="line"/>
      <point x="448.34" y="870.96"/>
      <point x="456.94" y="841.52"/>
      <point x="469.0" y="804.0" type="curve" smooth="yes" name="inserted"/>
      <point x="481.06" y="766.48"/>
      <point x="493.94" y="722.52"/>
      <point x="506.0" y="685.0" type="curve" smooth="yes" name="inserted"/>
      <point x="518.06" y="647.48"/>
      <point x="526.66" y="617.04"/>
      <point x="528" y="609" type="curve"/>
      <point x="529.34" y="613.02"/>
      <point x="538.94" y="642.14"/>
      <point x="551.0" y="681.0" type="curve" smooth="yes" name="inserted"/>
      <point x="563.06" y="719.86"/>
      <point x="577.94" y="766.14"/>
      <point x="590.0" y="805.0" type="curve" smooth="yes" name="inserted"/>
      <point x="602.06" y="843.86"/>
      <point x="611.66" y="873.64"/>
      <point x="613" y="879" type="curve"/>
      <point x="613.0" y="883.02"/>
      <point x="624.41" y="915.93"/>
      <point x="642.5" y="963.5" type="curve" smooth="yes" name="inserted"/>
      <point x="660.59" y="1011.07"/>
      <point x="683.88" y="1073.19"/>
      <point x="708.0" y="1135.5" type="curve" smooth="yes" name="inserted"/>
      <point x="732.12" y="1197.81"/>
      <point x="756.24" y="1259.59"/>
      <point x="775.0" y="1308.5" type="curve" smooth="yes" name="inserted"/>
      <point x="793.76" y="1357.41"/>
      <point x="806.32" y="1391.3"/>
      <point x="809" y="1398" type="curve"/>
      <point x="1001" y="1398" type="line"/>
      <point x="995.64" y="1387.28"/>
      <point x="973.33" y="1331.89"/>
      <point x="940.5" y="1253.5" type="curve" smooth="yes" name="inserted"/>
      <point x="907.67" y="1175.11"/>
      <point x="866.54" y="1075.67"/>
      <point x="825.0" y="974.5" type="curve" smooth="yes" name="inserted"/>
      <point x="783.46" y="873.33"/>
      <point x="742.16" y="772.89"/>
      <point x="710.0" y="694.5" type="curve" smooth="yes" name="inserted"/>
      <point x="677.84" y="616.11"/>
      <point x="654.36" y="560.72"/>
      <point x="649" y="550" type="curve"/>
      <point x="899" y="550" type="line"/>
      <point x="899" y="460" type="line"/>
      <point x="628" y="460" type="line"/>
      <point x="626.66" y="453.3"/>
      <point x="626.34" y="425.8"/>
      <point x="625.0" y="399.0" type="curve" smooth="yes" name="inserted"/>
      <point x="623.66" y="372.2"/>
      <point x="623.0" y="344.36"/>
      <point x="623" y="339" type="curve"/>
      <point x="902" y="339" type="line"/>
      <point x="902" y="254" type="line"/>
      <point x="618" y="254" type="line"/>
      <point x="618" y="-3" type="line"/>
      <point x="437" y="-3" type="line"/>
      <point x="437" y="254" type="line"/>
      <point x="170" y="254" type="line"/>
      <point x="170" y="339" type="line"/>
      <point x="433" y="339" type="line"/>
      <point x="427" y="460" type="line"/>
      <point x="170" y="460" type="line"/>
    </contour>
  </outline>
</glyph>
<glyph name="brokenbar" format="1">
  <advance width="534"/>
  <unicode hex="00A6"/>
  <outline>
    <contour>
      <point x="177" y="-138" type="line"/>
      <point x="177" y="576" type="line"/>
      <point x="357" y="576" type="line"/>
      <point x="357" y="-138" type="line"/>
    </contour>
    <contour>
      <point x="177" y="815" type="line"/>
      <point x="177" y="1473" type="line"/>
      <point x="357" y="1473" type="line"/>
      <point x="357" y="815" type="line"/>
    </contour>
  </outline>
</glyph>
<glyph name="section" format="1">
  <advance width="1003"/>
  <unicode hex="00A7"/>
  <outline>
    <contour>
      <point x="123" y="1091" type="curve"/>
      <point x="124.34" y="1202.22"/>
      <point x="172.32" y="1268.97"/>
      <point x="242.0" y="1308.5" type="curve" smooth="yes" name="inserted"/>
      <point x="311.68" y="1348.03"/>
      <point x="401.24" y="1360.0"/>
      <point x="487" y="1360" type="curve"/>
      <point x="574.1" y="1360.0"/>
      <point x="644.08" y="1345.74"/>
      <point x="695" y="1331" type="curve"/>
      <point x="724.48" y="1322.29" name="inserted"/>
      <point x="750.55" y="1312.72"/>
      <point x="774" y="1302" type="curve"/>
      <point x="774.0" y="1297.98"/>
      <point x="779.64" y="1265.33"/>
      <point x="785.0" y="1232.5" type="curve" smooth="yes" name="inserted"/>
      <point x="790.36" y="1199.67"/>
      <point x="796.0" y="1167.02"/>
      <point x="796" y="1163" type="curve"/>
      <point x="773.22" y="1173.72"/>
      <point x="737.26" y="1188.77"/>
      <point x="685.0" y="1201.5" type="curve" smooth="yes" name="inserted"/>
      <point x="632.74" y="1214.23"/>
      <point x="566.4" y="1223.0"/>
      <point x="486" y="1223" type="curve"/>
      <point x="428.38" y="1221.66"/>
      <point x="379.18" y="1217.76"/>
      <point x="343.0" y="1199.0" type="curve" smooth="yes" name="inserted"/>
      <point x="306.82" y="1180.24"/>
      <point x="286.0" y="1148.94"/>
      <point x="286" y="1094" type="curve"/>
      <point x="286.0" y="1035.04"/>
      <point x="316.08" y="1000.31"/>
      <point x="367.0" y="971.5" type="curve" smooth="yes" name="inserted"/>
      <point x="417.92" y="942.69"/>
      <point x="486.6" y="921.16"/>
      <point x="567" y="889" type="curve"/>
      <point x="659.46" y="852.82"/>
      <point x="737.06" y="823.2"/>
      <point x="792.0" y="783.0" type="curve" smooth="yes" name="inserted"/>
      <point x="846.94" y="742.8"/>
      <point x="878.0" y="693.38"/>
      <point x="878" y="617" type="curve"/>
      <point x="878.0" y="560.72"/>
      <point x="855.95" y="515.16"/>
      <point x="832.5" y="483.0" type="curve" smooth="yes" name="inserted"/>
      <point x="809.05" y="450.84"/>
      <point x="785.02" y="432.68"/>
      <point x="781" y="430" type="curve"/>
      <point x="805.12" y="412.58"/>
      <point x="834.39" y="386.67"/>
      <point x="856.5" y="352.5" type="curve" smooth="yes" name="inserted"/>
      <point x="878.61" y="318.33"/>
      <point x="894.34" y="276.58"/>
      <point x="893" y="227" type="curve"/>
      <point x="893.0" y="149.28"/>
      <point x="866.81" y="81.58"/>
      <point x="804.5" y="32.0" type="curve" smooth="yes" name="inserted"/>
      <point x="742.19" y="-17.58"/>
      <point x="646.04" y="-47.0"/>
      <point x="504" y="-47" type="curve"/>
      <point x="407.52" y="-47.0"/>
      <point x="329.28" y="-31.42"/>
      <point x="273" y="-14" type="curve"/>
      <point x="240.17" y="-4.62" name="inserted"/>
      <point x="210.8" y="6.27"/>
      <point x="184" y="19" type="curve"/>
      <point x="162" y="159" type="line"/>
      <point x="192.15" y="145.6" name="inserted"/>
      <point x="225.15" y="134.05"/>
      <point x="262" y="124" type="curve"/>
      <point x="323.64" y="106.58"/>
      <point x="406.54" y="90.0"/>
      <point x="499" y="90" type="curve"/>
      <point x="570.02" y="90.0"/>
      <point x="624.48" y="99.39"/>
      <point x="662.0" y="121.5" type="curve" smooth="yes" name="inserted"/>
      <point x="699.52" y="143.61"/>
      <point x="719.66" y="178.4"/>
      <point x="721" y="232" type="curve"/>
      <point x="722.34" y="293.64"/>
      <point x="683.13" y="332.18"/>
      <point x="623.5" y="363.0" type="curve" smooth="yes" name="inserted"/>
      <point x="563.87" y="393.82"/>
      <point x="483.72" y="416.84"/>
      <point x="406" y="449" type="curve"/>
      <point x="294.78" y="494.56"/>
      <point x="227.71" y="533.29"/>
      <point x="185.5" y="575.5" type="curve" smooth="yes" name="inserted"/>
      <point x="143.29" y="617.71"/>
      <point x="130.0" y="662.06"/>
      <point x="130" y="717" type="curve"/>
      <point x="130.0" y="757.2"/>
      <point x="143.24" y="790.52"/>
      <point x="162.0" y="820.0" type="curve" smooth="yes" name="inserted"/>
      <point x="180.76" y="849.48"/>
      <point x="206.88" y="873.24"/>
      <point x="231" y="892" type="curve"/>
      <point x="209.56" y="906.74"/>
      <point x="182.61" y="928.84"/>
      <point x="160.5" y="961.0" type="curve" smooth="yes" name="inserted"/>
      <point x="138.39" y="993.16"/>
      <point x="121.66" y="1034.72"/>
    </contour>
    <contour>
      <point x="751" y="603" type="curve"/>
      <point x="751.0" y="641.86"/>
      <point x="734.52" y="665.39"/>
      <point x="697.0" y="687.5" type="curve" smooth="yes" name="inserted"/>
      <point x="659.48" y="709.61"/>
      <point x="602.74" y="730.84"/>
      <point x="521" y="763" type="curve"/>
      <point x="488.84" y="775.06"/>
      <point x="462.16" y="785.94"/>
      <point x="430.0" y="798.0" type="curve" smooth="yes" name="inserted"/>
      <point x="397.84" y="810.06"/>
      <point x="361.58" y="824.56"/>
      <point x="312" y="846" type="curve"/>
      <point x="301.28" y="839.3"/>
      <point x="286.89" y="825.42"/>
      <point x="275.5" y="808.0" type="curve" smooth="yes" name="inserted"/>
      <point x="264.11" y="790.58"/>
      <point x="255.34" y="771.1"/>
      <point x="254" y="751" type="curve"/>
      <point x="251.32" y="713.48"/>
      <point x="258.69" y="688.46"/>
      <point x="287.5" y="663.0" type="curve" smooth="yes" name="inserted"/>
      <point x="316.31" y="637.54"/>
      <point x="367.9" y="612.18"/>
      <point x="455" y="576" type="curve"/>
      <point x="499.22" y="558.58"/>
      <point x="545.95" y="540.42"/>
      <point x="589.5" y="523.0" type="curve" smooth="yes" name="inserted"/>
      <point x="633.05" y="505.58"/>
      <point x="670.86" y="489.4"/>
      <point x="699" y="476" type="curve"/>
      <point x="709.05" y="485.38" name="inserted"/>
      <point x="717.63" y="495.94"/>
      <point x="725" y="508" type="curve"/>
      <point x="738.4" y="529.44"/>
      <point x="751.0" y="560.12"/>
    </contour>
  </outline>
</glyph>
<glyph name="dieresis" format="1">
  <advance width="847"/>
  <unicode hex="00A8"/>
  <outline>
    <contour>
      <point x="322" y="1331" type="line"/>
      <point x="322" y="1164" type="line"/>
      <point x="149" y="1164" type="line"/>
      <point x="149" y="1331" type="line"/>
    </contour>
    <contour>
      <point x="698" y="1331" type="line"/>
      <point x="698" y="1164" type="line"/>
      <point x="524" y="1164" type="line"/>
      <point x="524" y="1331" type="line"/>
    </contour>
  </outline>
</glyph>
<glyph name="copyright" format="1">
  <advance width="1612"/>
  <unicode hex="00A9"/>
  <outline>
    <contour>
      <point x="1402" y="708" type="curve"/>
      <point x="1402.0" y="812.52"/>
      <point x="1376.9" y="914.54"/>
      <point x="1330.0" y="1007.0" type="curve" smooth="yes" name="inserted"/>
      <point x="1283.1" y="1099.46"/>
      <point x="1214.44" y="1179.38"/>
      <point x="1126.0" y="1237.0" type="curve" smooth="yes" name="inserted"/>
      <point x="1037.56" y="1294.62"/>
      <point x="931.28" y="1329.0"/>
      <point x="808" y="1329" type="curve"/>
      <point x="636.48" y="1329.0"/>
      <point x="489.03" y="1261.56"/>
      <point x="382.5" y="1149.0" type="curve" smooth="yes" name="inserted"/>
      <point x="275.97" y="1036.44"/>
      <point x="212.0" y="882.2"/>
      <point x="212" y="708" type="curve"/>
      <point x="212.0" y="531.12"/>
      <point x="272.97" y="378.22"/>
      <point x="379.5" y="267.0" type="curve" smooth="yes" name="inserted"/>
      <point x="486.03" y="155.78"/>
      <point x="632.46" y="89.0"/>
      <point x="808" y="89" type="curve"/>
      <point x="968.8" y="89.0"/>
      <point x="1116.29" y="150.46"/>
      <point x="1225.5" y="259.0" type="curve" smooth="yes" name="inserted"/>
      <point x="1334.71" y="367.54"/>
      <point x="1402.0" y="520.4"/>
    </contour>
    <contour>
      <point x="1520" y="708" type="curve"/>
      <point x="1520.0" y="559.26"/>
      <point x="1481.83" y="430.37"/>
      <point x="1415.5" y="322.5" type="curve" smooth="yes" name="inserted"/>
      <point x="1349.17" y="214.63"/>
      <point x="1257.86" y="130.79"/>
      <point x="1152.0" y="72.5" type="curve" smooth="yes" name="inserted"/>
      <point x="1046.14" y="14.21"/>
      <point x="926.6" y="-17.0"/>
      <point x="806" y="-17" type="curve"/>
      <point x="672.0" y="-17.0"/>
      <point x="550.03" y="17.53"/>
      <point x="443.5" y="78.5" type="curve" smooth="yes" name="inserted"/>
      <point x="336.97" y="139.47"/>
      <point x="250.81" y="227.63"/>
      <point x="188.5" y="335.5" type="curve" smooth="yes" name="inserted"/>
      <point x="126.19" y="443.37"/>
      <point x="92.0" y="568.64"/>
      <point x="92" y="708" type="curve"/>
      <point x="92.0" y="846.02"/>
      <point x="127.02" y="970.46"/>
      <point x="190.0" y="1079.0" type="curve" smooth="yes" name="inserted"/>
      <point x="252.98" y="1187.54"/>
      <point x="339.97" y="1275.19"/>
      <point x="446.5" y="1337.5" type="curve" smooth="yes" name="inserted"/>
      <point x="553.03" y="1399.81"/>
      <point x="674.68" y="1435.0"/>
      <point x="806" y="1435" type="curve"/>
      <point x="949.38" y="1435.0"/>
      <point x="1074.97" y="1395.83"/>
      <point x="1181.5" y="1329.5" type="curve" smooth="yes" name="inserted"/>
      <point x="1288.03" y="1263.17"/>
      <point x="1371.04" y="1170.54"/>
      <point x="1430.0" y="1062.0" type="curve" smooth="yes" name="inserted"/>
      <point x="1488.96" y="953.46"/>
      <point x="1520.0" y="832.62"/>
    </contour>
    <contour>
      <point x="1047" y="313" type="line"/>
      <point x="1041.64" y="310.32"/>
      <point x="1013.54" y="293.91"/>
      <point x="972.0" y="278.5" type="curve" smooth="yes" name="inserted"/>
      <point x="930.46" y="263.09"/>
      <point x="874.96" y="248.0"/>
      <point x="816" y="248" type="curve"/>
      <point x="671.28" y="248.0"/>
      <point x="572.98" y="304.07"/>
      <point x="510.0" y="390.5" type="curve" smooth="yes" name="inserted"/>
      <point x="447.02" y="476.93"/>
      <point x="421.0" y="591.42"/>
      <point x="421" y="708" type="curve"/>
      <point x="421.0" y="840.66"/>
      <point x="454.17" y="955.26"/>
      <point x="520.5" y="1037.0" type="curve" smooth="yes" name="inserted"/>
      <point x="586.83" y="1118.74"/>
      <point x="684.68" y="1167.0"/>
      <point x="816" y="1167" type="curve"/>
      <point x="873.62" y="1167.0"/>
      <point x="928.12" y="1154.57"/>
      <point x="971.0" y="1140.5" type="curve" smooth="yes" name="inserted"/>
      <point x="1013.88" y="1126.43"/>
      <point x="1042.98" y="1112.68"/>
      <point x="1047" y="1110" type="curve"/>
      <point x="1053" y="1013" type="line"/>
      <point x="1032.23" y="1021.04" name="inserted"/>
      <point x="1010.12" y="1028.63"/>
      <point x="986" y="1036" type="curve"/>
      <point x="943.12" y="1048.06"/>
      <point x="887.32" y="1060.0"/>
      <point x="823" y="1060" type="curve"/>
      <point x="718.48" y="1060.0"/>
      <point x="648.88" y="1020.32"/>
      <point x="606.0" y="956.0" type="curve" smooth="yes" name="inserted"/>
      <point x="563.12" y="891.68"/>
      <point x="546.0" y="804.48"/>
      <point x="546" y="708" type="curve"/>
      <point x="546.0" y="604.82"/>
      <point x="561.95" y="517.98"/>
      <point x="605.5" y="455.0" type="curve" smooth="yes" name="inserted"/>
      <point x="649.05" y="392.02"/>
      <point x="717.14" y="355.0"/>
      <point x="823" y="355" type="curve"/>
      <point x="887.32" y="355.0"/>
      <point x="942.46" y="369.26"/>
      <point x="984.0" y="384.0" type="curve" smooth="yes" name="inserted"/>
      <point x="1025.54" y="398.74"/>
      <point x="1050.32" y="414.32"/>
      <point x="1053" y="417" type="curve"/>
    </contour>
  </outline>
</glyph>
<glyph name="ordfeminine" format="1">
  <advance width="953"/>
  <unicode hex="00AA"/>
  <outline>
    <contour>
      <point x="198" y="375" type="line"/>
      <point x="798" y="375" type="line"/>
      <point x="798" y="297" type="line"/>
      <point x="198" y="297" type="line"/>
    </contour>
    <component base="a" xScale="0.73621660471" yScale="0.735714912415" xOffset="59" yOffset="527"/>
  </outline>
</glyph>
<glyph name="guillemotleft" format="1">
  <advance width="1150"/>
  <unicode hex="00AB"/>
  <outline>
    <contour>
      <point x="603" y="189" type="line"/>
      <point x="529" y="76" type="line"/>
      <point x="58" y="552" type="line"/>
      <point x="529" y="1026" type="line"/>
      <point x="605" y="914" type="line"/>
      <point x="243" y="552" type="line"/>
    </contour>
    <contour>
      <point x="964" y="1011" type="line"/>
      <point x="1039" y="900" type="line"/>
      <point x="666" y="552" type="line"/>
      <point x="1040" y="205" type="line"/>
      <point x="966" y="93" type="line"/>
      <point x="478" y="552" type="line"/>
    </contour>
  </outline>
</glyph>
<glyph name="registered" format="1">
  <advance width="1218"/>
  <unicode hex="00AE"/>
  <outline>
    <contour>
      <point x="539" y="1019" type="line"/>
      <point x="589" y="1019" type="line"/>
      <point x="638.58" y="1019.0"/>
      <point x="670.24" y="1024.43"/>
      <point x="689.0" y="1038.5" type="curve" smooth="yes" name="inserted"/>
      <point x="707.76" y="1052.57"/>
      <point x="714.0" y="1073.84"/>
      <point x="714" y="1106" type="curve"/>
      <point x="714.0" y="1135.48"/>
      <point x="709.27" y="1155.94"/>
      <point x="688.5" y="1168.0" type="curve" smooth="yes" name="inserted"/>
      <point x="667.73" y="1180.06"/>
      <point x="631.32" y="1185.0"/>
      <point x="567" y="1185" type="curve"/>
      <point x="539" y="1185" type="line"/>
    </contour>
    <contour>
      <point x="715" y="720" type="line"/>
      <point x="577" y="947" type="line"/>
      <point x="537" y="947" type="line"/>
      <point x="537" y="720" type="line"/>
      <point x="449" y="720" type="line"/>
      <point x="449" y="1257" type="line"/>
      <point x="569" y="1257" type="line"/>
      <point x="662.8" y="1257.0"/>
      <point x="720.16" y="1244.46"/>
      <point x="755.0" y="1219.0" type="curve" smooth="yes" name="inserted"/>
      <point x="789.84" y="1193.54"/>
      <point x="801.0" y="1155.58"/>
      <point x="801" y="1106" type="curve"/>
      <point x="801.0" y="1059.1"/>
      <point x="791.78" y="1025.95"/>
      <point x="769.0" y="1002.5" type="curve" smooth="yes" name="inserted"/>
      <point x="746.22" y="979.05"/>
      <point x="711.26" y="964.38"/>
      <point x="659" y="955" type="curve"/>
      <point x="667.04" y="943.61" name="inserted"/>
      <point x="674.96" y="931.73"/>
      <point x="683" y="919" type="curve"/>
      <point x="697.74" y="896.22"/>
      <point x="716.24" y="867.48"/>
      <point x="735" y="838" type="curve"/>
      <point x="811" y="720" type="line"/>
    </contour>
    <contour>
      <point x="110" y="981" type="curve"/>
      <point x="110.0" y="1120.36"/>
      <point x="165.05" y="1243.88"/>
      <point x="255.5" y="1335.0" type="curve" smooth="yes" name="inserted"/>
      <point x="345.95" y="1426.12"/>
      <point x="470.64" y="1481.0"/>
      <point x="610" y="1481" type="curve"/>
      <point x="749.36" y="1481.0"/>
      <point x="873.05" y="1426.12"/>
      <point x="963.5" y="1335.0" type="curve" smooth="yes" name="inserted"/>
      <point x="1053.95" y="1243.88"/>
      <point x="1108.0" y="1120.36"/>
      <point x="1108" y="981" type="curve"/>
      <point x="1108.0" y="841.64"/>
      <point x="1053.95" y="717.95"/>
      <point x="963.5" y="627.5" type="curve" smooth="yes" name="inserted"/>
      <point x="873.05" y="537.05"/>
      <point x="749.36" y="482.0"/>
      <point x="610" y="482" type="curve"/>
      <point x="470.64" y="482.0"/>
      <point x="345.95" y="537.05"/>
      <point x="255.5" y="627.5" type="curve" smooth="yes" name="inserted"/>
      <point x="165.05" y="717.95"/>
      <point x="110.0" y="841.64"/>
    </contour>
    <contour>
      <point x="197" y="980" type="curve"/>
      <point x="197.0" y="860.74"/>
      <point x="241.96" y="757.87"/>
      <point x="317.0" y="683.5" type="curve" smooth="yes" name="inserted"/>
      <point x="392.04" y="609.13"/>
      <point x="494.76" y="565.0"/>
      <point x="610" y="565" type="curve"/>
      <point x="725.24" y="565.0"/>
      <point x="827.96" y="609.13"/>
      <point x="903.0" y="683.5" type="curve" smooth="yes" name="inserted"/>
      <point x="978.04" y="757.87"/>
      <point x="1023.0" y="860.74"/>
      <point x="1023" y="980" type="curve"/>
      <point x="1023.0" y="1097.92"/>
      <point x="978.04" y="1201.96"/>
      <point x="903.0" y="1277.0" type="curve" smooth="yes" name="inserted"/>
      <point x="827.96" y="1352.04"/>
      <point x="725.24" y="1397.0"/>
      <point x="610" y="1397" type="curve"/>
      <point x="494.76" y="1397.0"/>
      <point x="392.04" y="1352.04"/>
      <point x="317.0" y="1277.0" type="curve" smooth="yes" name="inserted"/>
      <point x="241.96" y="1201.96"/>
      <point x="197.0" y="1097.92"/>
    </contour>
  </outline>
</glyph>
<glyph name="degree" format="1">
  <advance width="675"/>
  <unicode hex="00B0"/>
  <outline>
    <contour>
      <point x="456" y="985" type="curve"/>
      <point x="456.0" y="1053.34"/>
      <point x="412.04" y="1103.0"/>
      <point x="337" y="1103" type="curve"/>
      <point x="264.64" y="1103.0"/>
      <point x="218.0" y="1054.68"/>
      <point x="218" y="985" type="curve"/>
      <point x="218.0" y="916.66"/>
      <point x="260.62" y="869.0"/>
      <point x="337" y="869" type="curve"/>
      <point x="409.36" y="869.0"/>
      <point x="456.0" y="915.32"/>
    </contour>
    <contour>
      <point x="570" y="985" type="curve"/>
      <point x="570.0" y="919.34"/>
      <point x="545.37" y="862.54"/>
      <point x="504.5" y="821.0" type="curve" smooth="yes" name="inserted"/>
      <point x="463.63" y="779.46"/>
      <point x="405.34" y="755.0"/>
      <point x="337" y="755" type="curve"/>
      <point x="270.0" y="755.0"/>
      <point x="212.54" y="779.63"/>
      <point x="171.0" y="820.5" type="curve" smooth="yes" name="inserted"/>
      <point x="129.46" y="861.37"/>
      <point x="106.0" y="918.0"/>
      <point x="106" y="985" type="curve"/>
      <point x="106.0" y="1050.66"/>
      <point x="129.46" y="1107.63"/>
      <point x="171.0" y="1148.5" type="curve" smooth="yes" name="inserted"/>
      <point x="212.54" y="1189.37"/>
      <point x="270.0" y="1213.0"/>
      <point x="337" y="1213" type="curve"/>
      <point x="405.34" y="1213.0"/>
      <point x="463.63" y="1188.37"/>
      <point x="504.5" y="1147.5" type="curve" smooth="yes" name="inserted"/>
      <point x="545.37" y="1106.63"/>
      <point x="570.0" y="1050.66"/>
    </contour>
  </outline>
</glyph>
<glyph name="twosuperior" format="1">
  <advance width="843"/>
  <unicode hex="00B2"/>
  <outline>
    <contour>
      <point x="414" y="988" type="curve"/>
      <point x="522.54" y="988.0"/>
      <point x="602.23" y="961.73"/>
      <point x="656.5" y="915.5" type="curve" smooth="yes" name="inserted"/>
      <point x="710.77" y="869.27"/>
      <point x="737.0" y="803.72"/>
      <point x="737" y="726" type="curve"/>
      <point x="737.0" y="668.38"/>
      <point x="720.8" y="618.07"/>
      <point x="694.0" y="570.5" type="curve" smooth="yes" name="inserted"/>
      <point x="667.2" y="522.93"/>
      <point x="628.22" y="478.22"/>
      <point x="584" y="434" type="curve"/>
      <point x="292" y="136" type="line"/>
      <point x="722" y="136" type="line"/>
      <point x="710" y="0" type="line"/>
      <point x="113" y="0" type="line"/>
      <point x="93" y="136" type="line"/>
      <point x="474" y="542" type="line"/>
      <point x="495.44" y="566.12"/>
      <point x="518.41" y="595.18"/>
      <point x="536.5" y="626.0" type="curve" smooth="yes" name="inserted"/>
      <point x="554.59" y="656.82"/>
      <point x="566.0" y="689.84"/>
      <point x="566" y="722" type="curve"/>
      <point x="566.0" y="795.7"/>
      <point x="512.92" y="849.0"/>
      <point x="395" y="849" type="curve"/>
      <point x="333.36" y="849.0"/>
      <point x="264.28" y="832.74"/>
      <point x="208" y="818" type="curve"/>
      <point x="175.17" y="808.62" name="inserted"/>
      <point x="143.49" y="798.39"/>
      <point x="112" y="787" type="curve"/>
      <point x="131" y="933" type="line"/>
      <point x="158.47" y="943.05" name="inserted"/>
      <point x="187.51" y="951.96"/>
      <point x="219" y="960" type="curve"/>
      <point x="272.6" y="974.74"/>
      <point x="341.64" y="988.0"/>
    </contour>
  </outline>
</glyph>
<glyph name="threesuperior" format="1">
  <advance width="886"/>
  <unicode hex="00B3"/>
  <outline>
    <contour>
      <point x="120" y="155" type="line"/>
      <point x="148.14" y="145.62" name="inserted"/>
      <point x="177.18" y="137.37"/>
      <point x="208" y="130" type="curve"/>
      <point x="260.26" y="116.6"/>
      <point x="328.0" y="105.0"/>
      <point x="395" y="105" type="curve"/>
      <point x="535.03" y="105.0" name="inserted"/>
      <point x="604.0" y="152.85"/>
      <point x="604" y="250" type="curve"/>
      <point x="604.0" y="303.6"/>
      <point x="584.09" y="342.37"/>
      <point x="532.5" y="368.5" type="curve" smooth="yes" name="inserted"/>
      <point x="480.91" y="394.63"/>
      <point x="400.28" y="407.0"/>
      <point x="277" y="407" type="curve"/>
      <point x="277" y="536" type="line"/>
      <point x="392.24" y="536.0"/>
      <point x="465.44" y="546.88"/>
      <point x="511.0" y="571.0" type="curve" smooth="yes" name="inserted"/>
      <point x="556.56" y="595.12"/>
      <point x="573.0" y="631.08"/>
      <point x="573" y="682" type="curve"/>
      <point x="573.0" y="786.52"/>
      <point x="505.0" y="820.0"/>
      <point x="371" y="820" type="curve"/>
      <point x="321.42" y="820.0"/>
      <point x="263.58" y="812.21"/>
      <point x="214.0" y="803.5" type="curve" smooth="yes" name="inserted"/>
      <point x="164.42" y="794.79"/>
      <point x="125.06" y="785.68"/>
      <point x="113" y="783" type="curve"/>
      <point x="134" y="910" type="line"/>
      <point x="159.46" y="916.7" name="inserted"/>
      <point x="185.53" y="922.97"/>
      <point x="213" y="929" type="curve"/>
      <point x="259.9" y="938.38"/>
      <point x="319.72" y="948.0"/>
      <point x="376" y="948" type="curve"/>
      <point x="627.92" y="948.0"/>
      <point x="732.0" y="861.14"/>
      <point x="732" y="699" type="curve"/>
      <point x="732.0" y="614.58"/>
      <point x="691.56" y="562.33"/>
      <point x="646.0" y="529.5" type="curve" smooth="yes" name="inserted"/>
      <point x="600.44" y="496.67"/>
      <point x="553.08" y="482.7"/>
      <point x="537" y="476" type="curve"/>
      <point x="550.4" y="474.66"/>
      <point x="579.99" y="470.89"/>
      <point x="615.5" y="459.5" type="curve" smooth="yes" name="inserted"/>
      <point x="651.01" y="448.11"/>
      <point x="690.18" y="429.67"/>
      <point x="721.0" y="395.5" type="curve" smooth="yes" name="inserted"/>
      <point x="751.82" y="361.33"/>
      <point x="774.0" y="313.68"/>
      <point x="774" y="244" type="curve"/>
      <point x="774.0" y="144.84"/>
      <point x="730.85" y="78.88"/>
      <point x="660.5" y="36.0" type="curve" smooth="yes" name="inserted"/>
      <point x="590.15" y="-6.88"/>
      <point x="496.52" y="-25.0"/>
      <point x="392" y="-25" type="curve"/>
      <point x="319.64" y="-25.0"/>
      <point x="250.11" y="-12.4"/>
      <point x="194.5" y="1.0" type="curve" smooth="yes" name="inserted"/>
      <point x="138.89" y="14.4"/>
      <point x="100.38" y="28.32"/>
      <point x="91" y="31" type="curve"/>
    </contour>
  </outline>
</glyph>
<glyph name="acute" format="1">
  <advance width="393"/>
  <unicode hex="00B4"/>
  <outline>
    <contour>
      <point x="162" y="1707" type="line"/>
      <point x="387" y="1707" type="line"/>
      <point x="147" y="1155" type="line"/>
      <point x="75" y="1155" type="line"/>
    </contour>
  </outline>
</glyph>
<glyph name="mu" format="1">
  <advance width="1161"/>
  <unicode hex="00B5"/>
  <outline>
    <contour>
      <point x="1020" y="3" type="line"/>
      <point x="887" y="-8" type="line"/>
      <point x="862" y="132" type="line"/>
      <point x="838.55" y="101.85" name="inserted"/>
      <point x="811.16" y="75.45"/>
      <point x="779" y="52" type="curve"/>
      <point x="722.72" y="11.8"/>
      <point x="642.54" y="-28.0"/>
      <point x="534" y="-28" type="curve"/>
      <point x="473.7" y="-28.0"/>
      <point x="427.67" y="-11.8"/>
      <point x="393.5" y="15.0" type="curve" smooth="yes" name="inserted"/>
      <point x="359.33" y="41.8"/>
      <point x="338.04" y="78.46"/>
      <point x="330" y="120" type="curve"/>
      <point x="326" y="-300" type="line"/>
      <point x="171" y="-300" type="line"/>
      <point x="171" y="1019" type="line"/>
      <point x="354" y="1019" type="line"/>
      <point x="354" y="435" type="line"/>
      <point x="354.0" y="318.42"/>
      <point x="366.18" y="239.26"/>
      <point x="397.0" y="187.0" type="curve" smooth="yes" name="inserted"/>
      <point x="427.82" y="134.74"/>
      <point x="475.96" y="113.0"/>
      <point x="551" y="113" type="curve"/>
      <point x="635.42" y="113.0"/>
      <point x="704.08" y="141.18"/>
      <point x="755" y="172" type="curve"/>
      <point x="784.48" y="189.42" name="inserted"/>
      <point x="810.88" y="208.89"/>
      <point x="835" y="231" type="curve"/>
      <point x="835" y="1019" type="line"/>
      <point x="1020" y="1019" type="line"/>
    </contour>
  </outline>
</glyph>
<glyph name="paragraph" format="1">
  <advance width="1182"/>
  <unicode hex="00B6"/>
  <outline>
    <contour>
      <point x="440" y="878" type="line"/>
      <point x="324.76" y="873.98"/>
      <point x="232.49" y="887.29"/>
      <point x="167.5" y="929.5" type="curve" smooth="yes" name="inserted"/>
      <point x="102.51" y="971.71"/>
      <point x="67.0" y="1040.8"/>
      <point x="67" y="1148" type="curve"/>
      <point x="68.34" y="1282.0"/>
      <point x="117.71" y="1354.14"/>
      <point x="209.5" y="1393.0" type="curve" smooth="yes" name="inserted"/>
      <point x="301.29" y="1431.86"/>
      <point x="432.82" y="1437.0"/>
      <point x="603" y="1437" type="curve"/>
      <point x="1101" y="1437" type="line"/>
      <point x="1126" y="1298" type="line"/>
      <point x="901" y="1298" type="line"/>
      <point x="901" y="-3" type="line"/>
      <point x="733" y="-3" type="line"/>
      <point x="733" y="1298" type="line"/>
      <point x="608" y="1298" type="line"/>
      <point x="608" y="-3" type="line"/>
      <point x="440" y="-3" type="line"/>
    </contour>
  </outline>
</glyph>
<glyph name="cedilla" format="1">
  <advance width="537"/>
  <unicode hex="00B8"/>
  <outline>
    <contour>
      <point x="498" y="-340" type="curve"/>
      <point x="498.0" y="-402.98"/>
      <point x="475.03" y="-452.33"/>
      <point x="435.5" y="-486.5" type="curve" smooth="yes" name="inserted"/>
      <point x="395.97" y="-520.67"/>
      <point x="343.3" y="-538.0"/>
      <point x="283" y="-538" type="curve"/>
      <point x="229.4" y="-538.0"/>
      <point x="187.82" y="-526.06"/>
      <point x="157" y="-514" type="curve"/>
      <point x="139.58" y="-506.63" name="inserted"/>
      <point x="124.4" y="-498.71"/>
      <point x="111" y="-490" type="curve"/>
      <point x="101" y="-394" type="line"/>
      <point x="120.43" y="-402.04" name="inserted"/>
      <point x="140.23" y="-409.3"/>
      <point x="161" y="-416" type="curve"/>
      <point x="195.84" y="-426.72"/>
      <point x="239.14" y="-437.0"/>
      <point x="278" y="-437" type="curve"/>
      <point x="326.24" y="-437.0"/>
      <point x="352.09" y="-420.93"/>
      <point x="367.5" y="-401.5" type="curve" smooth="yes" name="inserted"/>
      <point x="382.91" y="-382.07"/>
      <point x="386.0" y="-359.74"/>
      <point x="386" y="-345" type="curve"/>
      <point x="386.0" y="-298.1"/>
      <point x="359.73" y="-272.74"/>
      <point x="313.5" y="-258.0" type="curve" smooth="yes" name="inserted"/>
      <point x="267.27" y="-243.26"/>
      <point x="202.06" y="-238.7"/>
      <point x="123" y="-232" type="curve"/>
      <point x="123.0" y="-225.3"/>
      <point x="125.98" y="-207.95"/>
      <point x="130.0" y="-184.5" type="curve" smooth="yes" name="inserted"/>
      <point x="134.02" y="-161.05"/>
      <point x="138.98" y="-133.14"/>
      <point x="143" y="-105" type="curve"/>
      <point x="148.36" y="-72.84" name="inserted"/>
      <point x="154.3" y="-37.53"/>
      <point x="161" y="2" type="curve"/>
      <point x="263" y="2" type="line"/>
      <point x="256.97" y="-23.46" name="inserted"/>
      <point x="251.36" y="-46.89"/>
      <point x="246" y="-69" type="curve"/>
      <point x="236.62" y="-106.52"/>
      <point x="228.68" y="-144.28"/>
      <point x="226" y="-155" type="curve"/>
      <point x="258.16" y="-155.0"/>
      <point x="298.63" y="-157.62"/>
      <point x="339.5" y="-167.0" type="curve" smooth="yes" name="inserted"/>
      <point x="380.37" y="-176.38"/>
      <point x="419.52" y="-193.03"/>
      <point x="449.0" y="-220.5" type="curve" smooth="yes" name="inserted"/>
      <point x="478.48" y="-247.97"/>
      <point x="498.0" y="-286.4"/>
    </contour>
  </outline>
</glyph>
<glyph name="onesuperior" format="1">
  <advance width="613"/>
  <unicode hex="00B9"/>
  <outline>
    <contour>
      <point x="289" y="599" type="line"/>
      <point x="289" y="798" type="line"/>
      <point x="203" y="751" type="line"/>
      <point x="98" y="697" type="line"/>
      <point x="43" y="829" type="line"/>
      <point x="326" y="966" type="line"/>
      <point x="448" y="939" type="line"/>
      <point x="448" y="0" type="line"/>
      <point x="289" y="0" type="line"/>
    </contour>
  </outline>
</glyph>
<glyph name="ordmasculine" format="1">
  <advance width="930"/>
  <unicode hex="00BA"/>
  <outline>
    <contour>
      <point x="190" y="375" type="line"/>
      <point x="739" y="375" type="line"/>
      <point x="739" y="297" type="line"/>
      <point x="190" y="297" type="line"/>
    </contour>
    <component base="o" xScale="0.733965873718" yScale="0.735103785992" xOffset="53" yOffset="528"/>
  </outline>
</glyph>
<glyph name="guillemotright" format="1">
  <advance width="1150"/>
  <unicode hex="00BB"/>
  <outline>
    <contour>
      <point x="545" y="914" type="line"/>
      <point x="620" y="1026" type="line"/>
      <point x="1092" y="552" type="line"/>
      <point x="620" y="76" type="line"/>
      <point x="546" y="189" type="line"/>
      <point x="907" y="552" type="line"/>
    </contour>
    <contour>
      <point x="185" y="93" type="line"/>
      <point x="110" y="205" type="line"/>
      <point x="483" y="552" type="line"/>
      <point x="111" y="900" type="line"/>
      <point x="186" y="1011" type="line"/>
      <point x="673" y="552" type="line"/>
    </contour>
  </outline>
</glyph>
<glyph name="Eth" format="1">
  <advance width="1391"/>
  <unicode hex="00D0"/>
  <outline>
    <contour>
      <point x="194" y="0" type="line"/>
      <point x="194" y="677" type="line"/>
      <point x="45" y="677" type="line"/>
      <point x="45" y="806" type="line"/>
      <point x="194" y="806" type="line"/>
      <point x="194" y="1437" type="line"/>
      <point x="606" y="1437" type="line"/>
      <point x="718.56" y="1437.0"/>
      <point x="827.84" y="1428.84"/>
      <point x="927.0" y="1394.0" type="curve" smooth="yes" name="inserted"/>
      <point x="1026.16" y="1359.16"/>
      <point x="1111.36" y="1301.5"/>
      <point x="1173.0" y="1201.0" type="curve" smooth="yes" name="inserted"/>
      <point x="1234.64" y="1100.5"/>
      <point x="1271.0" y="964.74"/>
      <point x="1271" y="749" type="curve"/>
      <point x="1271.0" y="578.82"/>
      <point x="1258.35" y="454.71"/>
      <point x="1221.5" y="345.5" type="curve" smooth="yes" name="inserted"/>
      <point x="1184.65" y="236.29"/>
      <point x="1126.46" y="151.13"/>
      <point x="1034.0" y="91.5" type="curve" smooth="yes" name="inserted"/>
      <point x="941.54" y="31.87"/>
      <point x="819.5" y="0.0"/>
      <point x="652" y="0" type="curve"/>
    </contour>
    <contour>
      <point x="588" y="139" type="line"/>
      <point x="717.98" y="139.0"/>
      <point x="816.3" y="153.82"/>
      <point x="890.0" y="190.0" type="curve" smooth="yes" name="inserted"/>
      <point x="963.7" y="226.18"/>
      <point x="1011.35" y="283.9"/>
      <point x="1041.5" y="371.0" type="curve" smooth="yes" name="inserted"/>
      <point x="1071.65" y="458.1"/>
      <point x="1083.0" y="566.8"/>
      <point x="1083" y="741" type="curve"/>
      <point x="1083.0" y="935.3"/>
      <point x="1060.66" y="1064.88"/>
      <point x="995.0" y="1156.0" type="curve" smooth="yes" name="inserted"/>
      <point x="929.34" y="1247.12"/>
      <point x="824.16" y="1293.0"/>
      <point x="658" y="1293" type="curve"/>
      <point x="386" y="1293" type="line"/>
      <point x="386" y="806" type="line"/>
      <point x="612" y="806" type="line"/>
      <point x="612" y="677" type="line"/>
      <point x="386" y="677" type="line"/>
      <point x="386" y="139" type="line"/>
    </contour>
  </outline>
</glyph>
<glyph name="Oslash" format="1">
  <advance width="1398"/>
  <unicode hex="00D8"/>
  <outline>
    <contour>
      <point x="289" y="-106" type="line"/>
      <point x="365" y="62" type="line"/>
      <point x="200.85" y="175.23" name="inserted"/>
      <point x="120.0" y="392.37"/>
      <point x="120" y="720" type="curve"/>
      <point x="120.0" y="1226.52"/>
      <point x="319.12" y="1466.0"/>
      <point x="697" y="1466" type="curve"/>
      <point x="802.86" y="1466.0"/>
      <point x="896.6" y="1444.88"/>
      <point x="977" y="1402" type="curve"/>
      <point x="1060" y="1586" type="line"/>
      <point x="1117" y="1554" type="line"/>
      <point x="1033" y="1370" type="line"/>
      <point x="1200.5" y="1256.1"/>
      <point x="1278.0" y="1040.26"/>
      <point x="1278" y="720" type="curve"/>
      <point x="1278.0" y="208.12"/>
      <point x="1077.56" y="-30.0"/>
      <point x="697" y="-30" type="curve"/>
      <point x="590.47" y="-30.0" name="inserted"/>
      <point x="499.39" y="-10.86"/>
      <point x="421" y="28" type="curve"/>
      <point x="346" y="-135" type="line"/>
    </contour>
    <contour>
      <point x="697" y="117" type="curve"/>
      <point x="837.7" y="117.0"/>
      <point x="933.02" y="171.82"/>
      <point x="996.0" y="275.0" type="curve" smooth="yes" name="inserted"/>
      <point x="1058.98" y="378.18"/>
      <point x="1086.0" y="529.72"/>
      <point x="1086" y="720" type="curve"/>
      <point x="1086.0" y="939.76"/>
      <point x="1053.46" y="1109.48"/>
      <point x="961" y="1214" type="curve"/>
      <point x="488" y="176" type="line"/>
      <point x="544.28" y="136.47" name="inserted"/>
      <point x="613.25" y="117.0"/>
    </contour>
    <contour>
      <point x="311" y="720" type="curve"/>
      <point x="311.0" y="489.52"/>
      <point x="349.22" y="325.18"/>
      <point x="439" y="222" type="curve"/>
      <point x="911" y="1257" type="line"/>
      <point x="852.04" y="1301.22"/>
      <point x="781.42" y="1319.0"/>
      <point x="697" y="1319" type="curve"/>
      <point x="558.98" y="1319.0"/>
      <point x="463.81" y="1264.01"/>
      <point x="401.5" y="1161.5" type="curve" smooth="yes" name="inserted"/>
      <point x="339.19" y="1058.99"/>
      <point x="311.0" y="910.28"/>
    </contour>
  </outline>
</glyph>
<glyph name="Thorn" format="1">
  <advance width="1226"/>
  <unicode hex="00DE"/>
  <outline>
    <contour>
      <point x="544" y="512" type="line"/>
      <point x="706.14" y="512.0"/>
      <point x="808.19" y="531.61"/>
      <point x="870.5" y="576.5" type="curve" smooth="yes" name="inserted"/>
      <point x="932.81" y="621.39"/>
      <point x="954.0" y="689.18"/>
      <point x="954" y="787" type="curve"/>
      <point x="954.0" y="906.26"/>
      <point x="934.32" y="976.46"/>
      <point x="870.0" y="1018.0" type="curve" smooth="yes" name="inserted"/>
      <point x="805.68" y="1059.54"/>
      <point x="697.9" y="1071.0"/>
      <point x="517" y="1071" type="curve"/>
      <point x="370" y="1071" type="line"/>
      <point x="370" y="512" type="line"/>
    </contour>
    <contour>
      <point x="1147" y="785" type="curve"/>
      <point x="1147.0" y="629.56"/>
      <point x="1100.67" y="526.83"/>
      <point x="999.5" y="460.5" type="curve" smooth="yes" name="inserted"/>
      <point x="898.33" y="394.17"/>
      <point x="745.08" y="367.0"/>
      <point x="528" y="367" type="curve"/>
      <point x="433" y="367" type="line"/>
      <point x="412.9" y="367.0" name="inserted"/>
      <point x="392.11" y="367.33"/>
      <point x="370" y="368" type="curve"/>
      <point x="370" y="0" type="line"/>
      <point x="185" y="0" type="line"/>
      <point x="185" y="1409" type="line"/>
      <point x="370" y="1409" type="line"/>
      <point x="371" y="1216" type="line"/>
      <point x="494" y="1216" type="line"/>
      <point x="753.96" y="1216.0"/>
      <point x="914.84" y="1190.17"/>
      <point x="1014.0" y="1122.5" type="curve" smooth="yes" name="inserted"/>
      <point x="1113.16" y="1054.83"/>
      <point x="1147.0" y="948.48"/>
    </contour>
  </outline>
</glyph>
<glyph name="germandbls" format="1">
  <advance width="1334"/>
  <unicode hex="00DF"/>
  <outline>
    <contour>
      <point x="571" y="1402" type="curve"/>
      <point x="487.92" y="1402.0"/>
      <point x="438.48" y="1372.92"/>
      <point x="409.0" y="1322.0" type="curve" smooth="yes" name="inserted"/>
      <point x="379.52" y="1271.08"/>
      <point x="372.0" y="1199.1"/>
      <point x="372" y="1112" type="curve"/>
      <point x="372" y="-4" type="line"/>
      <point x="185" y="-4" type="line"/>
      <point x="185" y="1110" type="line"/>
      <point x="185.0" y="1406.14"/>
      <point x="311.04" y="1549.0"/>
      <point x="571" y="1549" type="curve"/>
      <point x="694.28" y="1549.0"/>
      <point x="777.55" y="1527.01"/>
      <point x="834.5" y="1491.5" type="curve" smooth="yes" name="inserted"/>
      <point x="891.45" y="1455.99"/>
      <point x="920.94" y="1406.45"/>
      <point x="933.0" y="1349.5" type="curve" smooth="yes" name="inserted"/>
      <point x="945.06" y="1292.55"/>
      <point x="939.06" y="1229.64"/>
      <point x="927" y="1168" type="curve"/>
      <point x="927.0" y="1155.94"/>
      <point x="919.72" y="1130.16"/>
      <point x="909.0" y="1098.0" type="curve" smooth="yes" name="inserted"/>
      <point x="898.28" y="1065.84"/>
      <point x="883.4" y="1026.52"/>
      <point x="870" y="989" type="curve"/>
      <point x="853.25" y="944.78" name="inserted"/>
      <point x="834.77" y="896.93"/>
      <point x="814" y="844" type="curve"/>
      <point x="929.24" y="835.96"/>
      <point x="1037.6" y="785.93"/>
      <point x="1118.0" y="699.5" type="curve" smooth="yes" name="inserted"/>
      <point x="1198.4" y="613.07"/>
      <point x="1250.0" y="491.76"/>
      <point x="1250" y="339" type="curve"/>
      <point x="1250.0" y="174.18"/>
      <point x="1204.38" y="53.74"/>
      <point x="1128.0" y="-28.0" type="curve" smooth="yes" name="inserted"/>
      <point x="1051.62" y="-109.74"/>
      <point x="946.28" y="-149.68"/>
      <point x="823" y="-147" type="curve"/>
      <point x="758.68" y="-145.66"/>
      <point x="706.52" y="-136.72"/>
      <point x="669" y="-126" type="curve"/>
      <point x="646.89" y="-119.97" name="inserted"/>
      <point x="627.75" y="-113.7"/>
      <point x="611" y="-107" type="curve"/>
      <point x="591" y="34" type="line"/>
      <point x="607.75" y="26.63" name="inserted"/>
      <point x="626.23" y="20.36"/>
      <point x="647" y="15" type="curve"/>
      <point x="681.84" y="5.62"/>
      <point x="730.7" y="-3.0"/>
      <point x="791" y="-3" type="curve"/>
      <point x="891.5" y="-3.0"/>
      <point x="957.29" y="35.68"/>
      <point x="999.5" y="100.0" type="curve" smooth="yes" name="inserted"/>
      <point x="1041.71" y="164.32"/>
      <point x="1058.0" y="252.82"/>
      <point x="1058" y="356" type="curve"/>
      <point x="1058.0" y="504.74"/>
      <point x="1015.55" y="602.36"/>
      <point x="938.5" y="664.0" type="curve" smooth="yes" name="inserted"/>
      <point x="861.45" y="725.64"/>
      <point x="750.36" y="750.66"/>
      <point x="611" y="752" type="curve"/>
      <point x="636.46" y="822.35" name="inserted"/>
      <point x="659.23" y="885.05"/>
      <point x="680" y="942" type="curve"/>
      <point x="697.42" y="990.24"/>
      <point x="714.6" y="1039.14"/>
      <point x="728.0" y="1078.0" type="curve" smooth="yes" name="inserted"/>
      <point x="741.4" y="1116.86"/>
      <point x="750.0" y="1144.96"/>
      <point x="750" y="1153" type="curve"/>
      <point x="767.42" y="1217.32"/>
      <point x="773.95" y="1279.27"/>
      <point x="750.5" y="1325.5" type="curve" smooth="yes" name="inserted"/>
      <point x="727.05" y="1371.73"/>
      <point x="674.18" y="1402.0"/>
    </contour>
  </outline>
</glyph>
<glyph name="ae" format="1">
  <advance width="1648"/>
  <unicode hex="00E6"/>
  <outline>
    <contour>
      <point x="1486" y="20" type="line"/>
      <point x="1461.21" y="11.29" name="inserted"/>
      <point x="1433.49" y="3.37"/>
      <point x="1402" y="-4" type="curve"/>
      <point x="1348.4" y="-16.06"/>
      <point x="1275.76" y="-28.0"/>
      <point x="1190" y="-28" type="curve"/>
      <point x="1035.23" y="-28.0" name="inserted"/>
      <point x="920.39" y="19.52"/>
      <point x="842" y="116" type="curve"/>
      <point x="821.9" y="95.9"/>
      <point x="777.04" y="60.99"/>
      <point x="702.0" y="29.5" type="curve" smooth="yes" name="inserted"/>
      <point x="626.96" y="-1.99"/>
      <point x="524.02" y="-28.0"/>
      <point x="386" y="-28" type="curve"/>
      <point x="294.88" y="-28.0"/>
      <point x="219.6" y="-1.75"/>
      <point x="166.0" y="48.5" type="curve" smooth="yes" name="inserted"/>
      <point x="112.4" y="98.75"/>
      <point x="82.0" y="172.86"/>
      <point x="82" y="268" type="curve"/>
      <point x="82.0" y="359.12"/>
      <point x="116.4" y="421.78"/>
      <point x="170.0" y="466.0" type="curve" smooth="yes" name="inserted"/>
      <point x="223.6" y="510.22"/>
      <point x="296.28" y="532.94"/>
      <point x="374.0" y="545.0" type="curve" smooth="yes" name="inserted"/>
      <point x="451.72" y="557.06"/>
      <point x="532.98" y="557.68"/>
      <point x="604" y="555" type="curve"/>
      <point x="632.14" y="552.32"/>
      <point x="661.22" y="551.68"/>
      <point x="684" y="549" type="curve"/>
      <point x="696.73" y="547.66" name="inserted"/>
      <point x="709.27" y="546.67"/>
      <point x="722" y="546" type="curve"/>
      <point x="722" y="651" type="line"/>
      <point x="722.0" y="739.44"/>
      <point x="710.63" y="796.65"/>
      <point x="684.5" y="833.5" type="curve" smooth="yes" name="inserted"/>
      <point x="658.37" y="870.35"/>
      <point x="615.64" y="886.64"/>
      <point x="554" y="892" type="curve"/>
      <point x="421.34" y="904.06"/>
      <point x="288.96" y="880.22"/>
      <point x="163" y="836" type="curve"/>
      <point x="183" y="969" type="line"/>
      <point x="240.62" y="998.48"/>
      <point x="305.0" y="1017.62"/>
      <point x="372.0" y="1027.0" type="curve" smooth="yes" name="inserted"/>
      <point x="439.0" y="1036.38"/>
      <point x="507.68" y="1037.36"/>
      <point x="572" y="1032" type="curve"/>
      <point x="718.06" y="1019.94"/>
      <point x="814.54" y="964.96"/>
      <point x="840" y="839" type="curve"/>
      <point x="877.52" y="914.04"/>
      <point x="927.55" y="962.18"/>
      <point x="984.5" y="993.0" type="curve" smooth="yes" name="inserted"/>
      <point x="1041.45" y="1023.82"/>
      <point x="1104.0" y="1035.0"/>
      <point x="1171" y="1035" type="curve"/>
      <point x="1298.3" y="1035.0"/>
      <point x="1390.85" y="991.83"/>
      <point x="1454.5" y="925.5" type="curve" smooth="yes" name="inserted"/>
      <point x="1518.15" y="859.17"/>
      <point x="1549.32" y="771.46"/>
      <point x="1552" y="679" type="curve"/>
      <point x="1552.0" y="650.86"/>
      <point x="1549.85" y="612.01"/>
      <point x="1546.5" y="576.5" type="curve" smooth="yes" name="inserted"/>
      <point x="1543.15" y="540.99"/>
      <point x="1539.68" y="509.4"/>
      <point x="1537" y="496" type="curve"/>
      <point x="914" y="496" type="line"/>
      <point x="914" y="460" type="line"/>
      <point x="914.0" y="340.74"/>
      <point x="938.29" y="260.77"/>
      <point x="980.5" y="206.5" type="curve" smooth="yes" name="inserted"/>
      <point x="1022.71" y="152.23"/>
      <point x="1081.66" y="126.38"/>
      <point x="1150" y="117" type="curve"/>
      <point x="1223.7" y="108.96"/>
      <point x="1295.02" y="114.62"/>
      <point x="1358.0" y="124.0" type="curve" smooth="yes" name="inserted"/>
      <point x="1420.98" y="133.38"/>
      <point x="1473.82" y="145.96"/>
      <point x="1510" y="154" type="curve"/>
    </contour>
    <contour>
      <point x="570" y="445" type="curve"/>
      <point x="498.98" y="445.0"/>
      <point x="419.81" y="442.12"/>
      <point x="357.5" y="418.0" type="curve" smooth="yes" name="inserted"/>
      <point x="295.19" y="393.88"/>
      <point x="251.0" y="348.1"/>
      <point x="251" y="261" type="curve"/>
      <point x="251.0" y="151.12"/>
      <point x="319.06" y="106.0"/>
      <point x="441" y="106" type="curve"/>
      <point x="528.1" y="106.0"/>
      <point x="604.21" y="128.71"/>
      <point x="662.5" y="153.5" type="curve" smooth="yes" name="inserted"/>
      <point x="720.79" y="178.29"/>
      <point x="759.6" y="206.28"/>
      <point x="773" y="217" type="curve"/>
      <point x="759.6" y="247.82"/>
      <point x="749.21" y="286.97"/>
      <point x="740.5" y="326.5" type="curve" smooth="yes" name="inserted"/>
      <point x="731.79" y="366.03"/>
      <point x="727.34" y="406.84"/>
      <point x="726" y="439" type="curve"/>
      <point x="708.58" y="439.67" name="inserted"/>
      <point x="691.42" y="440.66"/>
      <point x="674" y="442" type="curve"/>
      <point x="643.18" y="443.34"/>
      <point x="604.84" y="445.0"/>
    </contour>
    <contour>
      <point x="1176" y="898" type="curve"/>
      <point x="1109.0" y="898.0"/>
      <point x="1049.73" y="880.56"/>
      <point x="1003.5" y="835.0" type="curve" smooth="yes" name="inserted"/>
      <point x="957.27" y="789.44"/>
      <point x="925.04" y="717.88"/>
      <point x="917" y="608" type="curve"/>
      <point x="1392" y="608" type="line"/>
      <point x="1393.34" y="606.66"/>
      <point x="1393.0" y="634.56"/>
      <point x="1393" y="656" type="curve"/>
      <point x="1390.32" y="741.76"/>
      <point x="1367.86" y="800.97"/>
      <point x="1329.0" y="840.5" type="curve" smooth="yes" name="inserted"/>
      <point x="1290.14" y="880.03"/>
      <point x="1237.64" y="898.0"/>
    </contour>
  </outline>
</glyph>
<glyph name="eth" format="1">
  <advance width="1202"/>
  <unicode hex="00F0"/>
  <outline>
    <contour>
      <point x="607" y="947" type="line"/>
      <point x="571" y="1057" type="line"/>
      <point x="766" y="1122" type="line"/>
      <point x="741.88" y="1171.58"/>
      <point x="705.69" y="1224.27"/>
      <point x="667.5" y="1270.5" type="curve" smooth="yes" name="inserted"/>
      <point x="629.31" y="1316.73"/>
      <point x="591.48" y="1354.58"/>
      <point x="562" y="1372" type="curve"/>
      <point x="726" y="1371" type="line"/>
      <point x="805.06" y="1314.72"/>
      <point x="865.1" y="1247.72"/>
      <point x="912" y="1170" type="curve"/>
      <point x="1113" y="1240" type="line"/>
      <point x="1149" y="1129" type="line"/>
      <point x="971" y="1067" type="line"/>
      <point x="1051.4" y="904.86"/>
      <point x="1086.0" y="739.86"/>
      <point x="1086" y="567" type="curve"/>
      <point x="1086.0" y="394.14"/>
      <point x="1044.74" y="249.35"/>
      <point x="963.0" y="145.5" type="curve" smooth="yes" name="inserted"/>
      <point x="881.26" y="41.65"/>
      <point x="761.14" y="-18.0"/>
      <point x="599" y="-18" type="curve"/>
      <point x="426.14" y="-18.0"/>
      <point x="304.4" y="35.92"/>
      <point x="224.0" y="119.0" type="curve" smooth="yes" name="inserted"/>
      <point x="143.6" y="202.08"/>
      <point x="106.0" y="313.76"/>
      <point x="106" y="429" type="curve"/>
      <point x="106.0" y="542.9"/>
      <point x="135.66" y="642.64"/>
      <point x="204.0" y="715.0" type="curve" smooth="yes" name="inserted"/>
      <point x="272.34" y="787.36"/>
      <point x="377.9" y="831.0"/>
      <point x="532" y="831" type="curve"/>
      <point x="628.48" y="831.0"/>
      <point x="711.68" y="804.31"/>
      <point x="776.0" y="775.5" type="curve" smooth="yes" name="inserted"/>
      <point x="840.32" y="746.69"/>
      <point x="882.94" y="715.06"/>
      <point x="895" y="703" type="curve"/>
      <point x="893.66" y="753.92"/>
      <point x="886.4" y="810.06"/>
      <point x="873.0" y="865.0" type="curve" smooth="yes" name="inserted"/>
      <point x="859.6" y="919.94"/>
      <point x="840.46" y="972.78"/>
      <point x="815" y="1017" type="curve"/>
    </contour>
    <contour>
      <point x="546" y="693" type="curve"/>
      <point x="454.88" y="693.0"/>
      <point x="389.71" y="666.73"/>
      <point x="347.5" y="620.5" type="curve" smooth="yes" name="inserted"/>
      <point x="305.29" y="574.27"/>
      <point x="286.0" y="507.74"/>
      <point x="286" y="426" type="curve"/>
      <point x="286.0" y="219.64"/>
      <point x="391.34" y="125.0"/>
      <point x="591" y="125" type="curve"/>
      <point x="704.9" y="125.0"/>
      <point x="778.93" y="169.64"/>
      <point x="826.5" y="242.0" type="curve" smooth="yes" name="inserted"/>
      <point x="874.07" y="314.36"/>
      <point x="893.0" y="413.12"/>
      <point x="893" y="523" type="curve"/>
      <point x="893" y="582" type="line"/>
      <point x="859.5" y="602.1" name="inserted"/>
      <point x="824.52" y="620.25"/>
      <point x="787" y="637" type="curve"/>
      <point x="722.68" y="665.14"/>
      <point x="635.78" y="693.0"/>
    </contour>
  </outline>
</glyph>
<glyph name="oslash" format="1">
  <advance width="1119"/>
  <unicode hex="00F8"/>
  <outline>
    <contour>
      <point x="560" y="1035" type="curve"/>
      <point x="628.34" y="1035.0"/>
      <point x="688.74" y="1024.12"/>
      <point x="741" y="1000" type="curve"/>
      <point x="841" y="1226" type="line"/>
      <point x="923" y="1183" type="line"/>
      <point x="917.64" y="1172.28"/>
      <point x="903.76" y="1143.37"/>
      <point x="885.0" y="1102.5" type="curve" smooth="yes" name="inserted"/>
      <point x="866.24" y="1061.63"/>
      <point x="842.78" y="1010.92"/>
      <point x="820" y="960" type="curve"/>
      <point x="951.32" y="868.88"/>
      <point x="1013.0" y="705.0"/>
      <point x="1013" y="504" type="curve"/>
      <point x="1013.0" y="352.58"/>
      <point x="977.04" y="220.31"/>
      <point x="902.0" y="124.5" type="curve" smooth="yes" name="inserted"/>
      <point x="826.96" y="28.69"/>
      <point x="715.44" y="-28.0"/>
      <point x="560" y="-28" type="curve"/>
      <point x="495.68" y="-28.0"/>
      <point x="441.58" y="-17.42"/>
      <point x="392" y="0" type="curve"/>
      <point x="349.12" y="-100.5"/>
      <point x="316.72" y="-172.88"/>
      <point x="306" y="-197" type="curve"/>
      <point x="221" y="-157" type="line"/>
      <point x="311" y="38" type="line"/>
      <point x="241.32" y="83.56"/>
      <point x="190.67" y="148.6"/>
      <point x="156.5" y="229.0" type="curve" smooth="yes" name="inserted"/>
      <point x="122.33" y="309.4"/>
      <point x="106.0" y="402.16"/>
      <point x="106" y="504" type="curve"/>
      <point x="106.0" y="656.76"/>
      <point x="141.96" y="787.69"/>
      <point x="217.0" y="883.5" type="curve" smooth="yes" name="inserted"/>
      <point x="292.04" y="979.31"/>
      <point x="404.56" y="1035.0"/>
    </contour>
    <contour>
      <point x="293" y="506" type="curve"/>
      <point x="293.0" y="374.68"/>
      <point x="318.68" y="263.02"/>
      <point x="383" y="192" type="curve"/>
      <point x="682" y="868" type="line"/>
      <point x="647.16" y="886.76"/>
      <point x="608.24" y="896.0"/>
      <point x="560" y="896" type="curve"/>
      <point x="459.5" y="896.0"/>
      <point x="393.71" y="856.68"/>
      <point x="351.5" y="787.0" type="curve" smooth="yes" name="inserted"/>
      <point x="309.29" y="717.32"/>
      <point x="293.0" y="621.24"/>
    </contour>
    <contour>
      <point x="560" y="109" type="curve"/>
      <point x="660.5" y="109.0"/>
      <point x="726.29" y="152.81"/>
      <point x="768.5" y="224.5" type="curve" smooth="yes" name="inserted"/>
      <point x="810.71" y="296.19"/>
      <point x="827.0" y="394.78"/>
      <point x="827" y="506" type="curve"/>
      <point x="827.0" y="631.96"/>
      <point x="802.62" y="734.66"/>
      <point x="745" y="803" type="curve"/>
      <point x="449" y="131" type="line"/>
      <point x="480.49" y="116.26" name="inserted"/>
      <point x="517.12" y="109.0"/>
    </contour>
  </outline>
</glyph>
<glyph name="thorn" format="1">
  <advance width="1134"/>
  <unicode hex="00FE"/>
  <outline>
    <contour>
      <point x="158" y="-340" type="line"/>
      <point x="158" y="1473" type="line"/>
      <point x="343" y="1499" type="line"/>
      <point x="343" y="958" type="line"/>
      <point x="367.12" y="974.08" name="inserted"/>
      <point x="394.18" y="988.27"/>
      <point x="425" y="1001" type="curve"/>
      <point x="477.26" y="1023.78"/>
      <point x="548.56" y="1045.0"/>
      <point x="637" y="1045" type="curve"/>
      <point x="742.86" y="1045.0"/>
      <point x="839.81" y="1006.1"/>
      <point x="911.5" y="919.0" type="curve" smooth="yes" name="inserted"/>
      <point x="983.19" y="831.9"/>
      <point x="1028.0" y="698.62"/>
      <point x="1028" y="507" type="curve"/>
      <point x="1028.0" y="311.36"/>
      <point x="975.89" y="181.08"/>
      <point x="897.5" y="98.0" type="curve" smooth="yes" name="inserted"/>
      <point x="819.11" y="14.92"/>
      <point x="717.84" y="-18.0"/>
      <point x="616" y="-18" type="curve"/>
      <point x="524.88" y="-18.0"/>
      <point x="457.9" y="10.18"/>
      <point x="411" y="41" type="curve"/>
      <point x="384.2" y="58.42" name="inserted"/>
      <point x="361.1" y="78.22"/>
      <point x="341" y="101" type="curve"/>
      <point x="341" y="-349" type="line"/>
    </contour>
    <contour>
      <point x="343" y="217" type="line"/>
      <point x="363.1" y="198.91" name="inserted"/>
      <point x="385.54" y="183.07"/>
      <point x="411" y="169" type="curve"/>
      <point x="453.88" y="144.88"/>
      <point x="515.3" y="122.0"/>
      <point x="589" y="122" type="curve"/>
      <point x="658.68" y="122.0"/>
      <point x="721.27" y="147.53"/>
      <point x="767.5" y="208.5" type="curve" smooth="yes" name="inserted"/>
      <point x="813.73" y="269.47"/>
      <point x="843.0" y="363.64"/>
      <point x="843" y="503" type="curve"/>
      <point x="843.0" y="758.94"/>
      <point x="764.48" y="903.0"/>
      <point x="601" y="903" type="curve"/>
      <point x="527.3" y="903.0"/>
      <point x="464.9" y="883.1"/>
      <point x="418" y="863" type="curve"/>
      <point x="391.2" y="850.94" name="inserted"/>
      <point x="366.45" y="838.07"/>
      <point x="343" y="824" type="curve"/>
    </contour>
  </outline>
</glyph>
<glyph name="dotlessi" format="1">
  <advance width="492"/>
  <unicode hex="0131"/>
  <outline>
    <contour>
      <point x="158" y="0" type="line"/>
      <point x="158" y="1021" type="line"/>
      <point x="334" y="1021" type="line"/>
      <point x="334" y="0" type="line"/>
    </contour>
  </outline>
</glyph>
<glyph name="Lslash" format="1">
  <advance width="1014"/>
  <unicode hex="0141"/>
  <outline>
    <contour>
      <point x="197" y="0" type="line"/>
      <point x="197" y="641" type="line"/>
      <point x="49" y="577" type="line"/>
      <point x="49" y="722" type="line"/>
      <point x="197" y="786" type="line"/>
      <point x="197" y="1408" type="line"/>
      <point x="382" y="1408" type="line"/>
      <point x="382" y="862" type="line"/>
      <point x="729" y="1014" type="line"/>
      <point x="729" y="870" type="line"/>
      <point x="382" y="717" type="line"/>
      <point x="382" y="145" type="line"/>
      <point x="970" y="145" type="line"/>
      <point x="953" y="0" type="line"/>
    </contour>
  </outline>
</glyph>
<glyph name="OE" format="1">
  <advance width="1988"/>
  <unicode hex="0152"/>
  <outline>
    <contour>
      <point x="120" y="724" type="curve"/>
      <point x="120.0" y="1008.08"/>
      <point x="184.48" y="1183.42"/>
      <point x="289.0" y="1300.0" type="curve" smooth="yes" name="inserted"/>
      <point x="393.52" y="1416.58"/>
      <point x="534.22" y="1464.0"/>
      <point x="691" y="1464" type="curve"/>
      <point x="770.06" y="1464.0"/>
      <point x="832.91" y="1451.44"/>
      <point x="884.5" y="1430.0" type="curve" smooth="yes" name="inserted"/>
      <point x="936.09" y="1408.56"/>
      <point x="974.52" y="1382.14"/>
      <point x="1004" y="1354" type="curve"/>
      <point x="1038.17" y="1321.17" name="inserted"/>
      <point x="1063.25" y="1284.54"/>
      <point x="1080" y="1243" type="curve"/>
      <point x="1080" y="1437" type="line"/>
      <point x="1878" y="1437" type="line"/>
      <point x="1878" y="1292" type="line"/>
      <point x="1265" y="1292" type="line"/>
      <point x="1265" y="826" type="line"/>
      <point x="1795" y="826" type="line"/>
      <point x="1795" y="681" type="line"/>
      <point x="1265" y="681" type="line"/>
      <point x="1265" y="146" type="line"/>
      <point x="1888" y="146" type="line"/>
      <point x="1888" y="0" type="line"/>
      <point x="1080" y="0" type="line"/>
      <point x="1080" y="216" type="line"/>
      <point x="1062.58" y="163.74" name="inserted"/>
      <point x="1037.17" y="125.13"/>
      <point x="1003" y="99" type="curve"/>
      <point x="973.52" y="69.52"/>
      <point x="935.09" y="40.61"/>
      <point x="883.5" y="18.5" type="curve" smooth="yes" name="inserted"/>
      <point x="831.91" y="-3.61"/>
      <point x="768.72" y="-18.0"/>
      <point x="691" y="-18" type="curve"/>
      <point x="534.22" y="-18.0"/>
      <point x="392.52" y="30.25"/>
      <point x="288.0" y="147.5" type="curve" smooth="yes" name="inserted"/>
      <point x="183.48" y="264.75"/>
      <point x="120.0" y="445.28"/>
    </contour>
    <contour>
      <point x="318" y="724" type="curve"/>
      <point x="318.0" y="493.52"/>
      <point x="355.34" y="349.46"/>
      <point x="421.0" y="257.0" type="curve" smooth="yes" name="inserted"/>
      <point x="486.66" y="164.54"/>
      <point x="578.44" y="130.0"/>
      <point x="691" y="130" type="curve"/>
      <point x="804.9" y="130.0"/>
      <point x="898.34" y="164.54"/>
      <point x="964.0" y="257.0" type="curve" smooth="yes" name="inserted"/>
      <point x="1029.66" y="349.46"/>
      <point x="1066.0" y="493.52"/>
      <point x="1066" y="724" type="curve"/>
      <point x="1066.0" y="962.52"/>
      <point x="1029.66" y="1100.88"/>
      <point x="964.0" y="1192.0" type="curve" smooth="yes" name="inserted"/>
      <point x="898.34" y="1283.12"/>
      <point x="804.9" y="1317.0"/>
      <point x="691" y="1317" type="curve"/>
      <point x="578.44" y="1317.0"/>
      <point x="486.66" y="1283.12"/>
      <point x="421.0" y="1192.0" type="curve" smooth="yes" name="inserted"/>
      <point x="355.34" y="1100.88"/>
      <point x="318.0" y="962.52"/>
    </contour>
  </outline>
</glyph>
<glyph name="florin" format="1">
  <advance width="771"/>
  <unicode hex="0192"/>
  <outline>
    <contour>
      <point x="110" y="0" type="line"/>
      <point x="270" y="886" type="line"/>
      <point x="93" y="886" type="line"/>
      <point x="112" y="991" type="line"/>
      <point x="289" y="991" type="line"/>
      <point x="321.16" y="1170.56"/>
      <point x="362.53" y="1286.64"/>
      <point x="423.5" y="1359.0" type="curve" smooth="yes" name="inserted"/>
      <point x="484.47" y="1431.36"/>
      <point x="561.48" y="1459.0"/>
      <point x="666" y="1459" type="curve"/>
      <point x="723.62" y="1459.0"/>
      <point x="767.18" y="1449.72"/>
      <point x="798" y="1439" type="curve"/>
      <point x="815.42" y="1432.97" name="inserted"/>
      <point x="830.93" y="1426.37"/>
      <point x="845" y="1419" type="curve"/>
      <point x="839" y="1296" type="line"/>
      <point x="824.26" y="1300.69" name="inserted"/>
      <point x="808.42" y="1304.98"/>
      <point x="791" y="1309" type="curve"/>
      <point x="761.52" y="1315.7"/>
      <point x="724.86" y="1322.0"/>
      <point x="686" y="1322" type="curve"/>
      <point x="623.02" y="1322.0"/>
      <point x="582.82" y="1311.67"/>
      <point x="552.0" y="1277.5" type="curve" smooth="yes" name="inserted"/>
      <point x="521.18" y="1243.33"/>
      <point x="502.42" y="1185.8"/>
      <point x="485" y="1092" type="curve"/>
      <point x="468" y="991" type="line"/>
      <point x="744" y="991" type="line"/>
      <point x="725" y="886" type="line"/>
      <point x="449" y="886" type="line"/>
      <point x="290" y="0" type="line"/>
    </contour>
  </outline>
</glyph>
<glyph name="breve" format="1">
  <advance width="861"/>
  <unicode hex="02D8"/>
  <outline>
    <contour>
      <point x="431" y="1190" type="curve"/>
      <point x="342.56" y="1190.0"/>
      <point x="269.62" y="1214.65"/>
      <point x="212.0" y="1251.5" type="curve" smooth="yes" name="inserted"/>
      <point x="154.38" y="1288.35"/>
      <point x="113.14" y="1337.1"/>
      <point x="85" y="1384" type="curve"/>
      <point x="162" y="1456" type="line"/>
      <point x="220.96" y="1379.62"/>
      <point x="306.38" y="1322.0"/>
      <point x="431" y="1322" type="curve"/>
      <point x="495.32" y="1322.0"/>
      <point x="548.61" y="1337.71"/>
      <point x="593.5" y="1362.5" type="curve" smooth="yes" name="inserted"/>
      <point x="638.39" y="1387.29"/>
      <point x="673.2" y="1421.16"/>
      <point x="700" y="1456" type="curve"/>
      <point x="775" y="1384" type="line"/>
      <point x="750.88" y="1341.12"/>
      <point x="713.45" y="1293.69"/>
      <point x="656.5" y="1255.5" type="curve" smooth="yes" name="inserted"/>
      <point x="599.55" y="1217.31"/>
      <point x="526.14" y="1190.0"/>
    </contour>
  </outline>
</glyph>
<glyph name="dotaccent" format="1">
  <advance width="421"/>
  <unicode hex="02D9"/>
  <outline>
    <contour>
      <point x="293" y="1304" type="curve"/>
      <point x="305.06" y="1281.22"/>
      <point x="305.7" y="1256.61"/>
      <point x="299.0" y="1234.5" type="curve" smooth="yes" name="inserted"/>
      <point x="292.3" y="1212.39"/>
      <point x="277.44" y="1192.38"/>
      <point x="256" y="1183" type="curve"/>
      <point x="210.44" y="1161.56"/>
      <point x="157.78" y="1179.1"/>
      <point x="135" y="1226" type="curve"/>
      <point x="122.94" y="1247.44"/>
      <point x="122.13" y="1273.39"/>
      <point x="129.5" y="1295.5" type="curve" smooth="yes" name="inserted"/>
      <point x="136.87" y="1317.61"/>
      <point x="151.22" y="1336.28"/>
      <point x="174" y="1347" type="curve"/>
      <point x="216.88" y="1368.44"/>
      <point x="270.22" y="1350.9"/>
    </contour>
  </outline>
</glyph>
<glyph name="ring" format="1">
  <advance width="579"/>
  <unicode hex="02DA"/>
  <outline>
    <contour>
      <point x="299" y="1102" type="curve"/>
      <point x="223.96" y="1102.0"/>
      <point x="162.39" y="1124.29"/>
      <point x="117.5" y="1166.5" type="curve" smooth="yes" name="inserted"/>
      <point x="72.61" y="1208.71"/>
      <point x="47.0" y="1269.28"/>
      <point x="47" y="1347" type="curve"/>
      <point x="47.0" y="1422.04"/>
      <point x="72.61" y="1481.46"/>
      <point x="117.5" y="1523.0" type="curve" smooth="yes" name="inserted"/>
      <point x="162.39" y="1564.54"/>
      <point x="223.96" y="1587.0"/>
      <point x="299" y="1587" type="curve"/>
      <point x="371.36" y="1587.0"/>
      <point x="431.95" y="1564.54"/>
      <point x="475.5" y="1523.0" type="curve" smooth="yes" name="inserted"/>
      <point x="519.05" y="1481.46"/>
      <point x="545.0" y="1422.04"/>
      <point x="545" y="1347" type="curve"/>
      <point x="545.0" y="1267.94"/>
      <point x="519.22" y="1207.54"/>
      <point x="475.0" y="1166.0" type="curve" smooth="yes" name="inserted"/>
      <point x="430.78" y="1124.46"/>
      <point x="370.02" y="1102.0"/>
    </contour>
    <contour>
      <point x="299" y="1195" type="curve"/>
      <point x="353.94" y="1195.0"/>
      <point x="389.39" y="1216.52"/>
      <point x="411.5" y="1246.0" type="curve" smooth="yes" name="inserted"/>
      <point x="433.61" y="1275.48"/>
      <point x="441.0" y="1313.5"/>
      <point x="441" y="1347" type="curve"/>
      <point x="441.0" y="1377.82"/>
      <point x="433.61" y="1414.52"/>
      <point x="411.5" y="1444.0" type="curve" smooth="yes" name="inserted"/>
      <point x="389.39" y="1473.48"/>
      <point x="355.28" y="1495.0"/>
      <point x="299" y="1495" type="curve"/>
      <point x="232.0" y="1495.0"/>
      <point x="195.1" y="1471.65"/>
      <point x="175.0" y="1441.5" type="curve" smooth="yes" name="inserted"/>
      <point x="154.9" y="1411.35"/>
      <point x="152.0" y="1373.8"/>
      <point x="152" y="1347" type="curve"/>
      <point x="152.0" y="1314.84"/>
      <point x="161.05" y="1276.65"/>
      <point x="184.5" y="1246.5" type="curve" smooth="yes" name="inserted"/>
      <point x="207.95" y="1216.35"/>
      <point x="244.06" y="1195.0"/>
    </contour>
  </outline>
</glyph>
<glyph name="ogonek" format="1">
  <advance width="591"/>
  <unicode hex="02DB"/>
  <outline>
    <contour>
      <point x="526" y="-428" type="line"/>
      <point x="515.28" y="-435.37" name="inserted"/>
      <point x="502.08" y="-441.97"/>
      <point x="486" y="-448" type="curve"/>
      <point x="459.2" y="-458.72"/>
      <point x="420.28" y="-468.0"/>
      <point x="364" y="-468" type="curve"/>
      <point x="264.84" y="-468.0"/>
      <point x="195.9" y="-438.73"/>
      <point x="149.0" y="-392.5" type="curve" smooth="yes" name="inserted"/>
      <point x="102.1" y="-346.27"/>
      <point x="81.0" y="-285.0"/>
      <point x="81" y="-218" type="curve"/>
      <point x="81.0" y="-129.56"/>
      <point x="118.89" y="-66.07"/>
      <point x="174.5" y="-18.5" type="curve" smooth="yes" name="inserted"/>
      <point x="230.11" y="29.07"/>
      <point x="301.98" y="57.58"/>
      <point x="373" y="75" type="curve"/>
      <point x="373" y="12" type="line"/>
      <point x="260.44" y="-30.88"/>
      <point x="202.0" y="-104.56"/>
      <point x="202" y="-193" type="curve"/>
      <point x="202.0" y="-305.56"/>
      <point x="256.42" y="-351.0"/>
      <point x="373" y="-351" type="curve"/>
      <point x="422.58" y="-351.0"/>
      <point x="462.18" y="-340.72"/>
      <point x="493" y="-330" type="curve"/>
      <point x="510.42" y="-323.97" name="inserted"/>
      <point x="525.93" y="-317.04"/>
      <point x="540" y="-309" type="curve"/>
    </contour>
  </outline>
</glyph>
